<svg width="172" height="45" viewBox="0 0 172 45" fill="none" xmlns="http://www.w3.org/2000/svg">
<g clip-path="url(#clip0_340_5823)">
<path d="M49.7598 32.396L61.7694 0.716797H66.3948L78.4044 32.3947C75.6837 32.3947 73.2579 30.6921 72.3468 28.1427L70.7991 23.8123H57.4108L55.8376 28.1503C54.9138 30.6984 52.4817 32.396 49.7598 32.396ZM63.9918 5.71837L58.7882 20.0077H69.3746L64.171 5.71837H63.9918Z" fill="#FEFFFF"/>
<path d="M100.555 32.3956H96.641V29.3874H96.4618C95.8392 30.4491 94.8836 31.3339 93.5925 32.0417C92.3027 32.7496 90.9609 33.1047 89.5669 33.1047C86.8984 33.1047 84.8449 32.3463 83.4077 30.8258C81.9692 29.3077 81.25 27.1463 81.25 24.3441V10.7171H85.3417V24.0774C85.4294 27.6178 87.2237 29.3861 90.7232 29.3861C92.3548 29.3861 93.7183 28.7314 94.8162 27.4168C95.9129 26.1048 96.4605 24.5349 96.4605 22.7047V10.7158H100.554V32.3944L100.555 32.3956Z" fill="#FEFFFF"/>
<path d="M110.739 32.3958H106.646V10.7173H110.56V14.2564H110.739C111.154 13.1062 112.008 12.1254 113.297 11.3152C114.587 10.5037 115.854 10.0967 117.101 10.0967C118.286 10.0967 119.294 10.2749 120.125 10.6276L118.878 14.5661C118.374 14.3601 117.573 14.2564 116.477 14.2564C114.934 14.2564 113.592 14.8758 112.451 16.1145C111.307 17.3545 110.738 18.7992 110.738 20.45L110.739 32.3958Z" fill="#FEFFFF"/>
<path d="M129.197 3.23982C129.197 4.03613 128.915 4.71488 128.352 5.27609C127.788 5.83603 127.106 6.11664 126.305 6.11664C125.504 6.11664 124.822 5.83603 124.259 5.27609C123.696 4.71488 123.414 4.03613 123.414 3.23982C123.414 2.44351 123.696 1.76601 124.259 1.20481C124.822 0.644862 125.506 0.364258 126.305 0.364258C127.104 0.364258 127.788 0.644862 128.352 1.20481C128.915 1.76601 129.197 2.44477 129.197 3.23982ZM128.352 10.7175V32.3961H124.259V10.7175H128.352Z" fill="#FEFFFF"/>
<path d="M144.853 0.363569C146.334 0.363569 147.551 0.615101 148.5 1.11564L147.388 4.69903C146.676 4.34638 145.876 4.16815 144.986 4.16815C143.977 4.16815 143.155 4.51575 142.517 5.20715C141.879 5.89981 141.56 6.82252 141.56 7.97274V10.7156H147.255V14.4304H141.56V32.3941H137.469V14.4304H133.377V10.7156H137.469V7.57332C137.469 5.42076 138.159 3.68152 139.537 2.35308C140.916 1.0259 142.688 0.363569 144.853 0.363569Z" fill="#FEFFFF"/>
<path d="M171.764 10.7168L158.109 42.9496C156.004 42.9496 154.596 40.7958 155.449 38.8834L158.952 31.0239L151.759 14.7666C150.915 12.858 152.319 10.7168 154.416 10.7168L160.91 26.2891H160.998L165.65 14.8197C166.655 12.3397 169.076 10.7168 171.764 10.7168Z" fill="#FEFFFF"/>
<path d="M53.0209 38.3441V42.7427H52.3728V38.3441H50.9648V37.7285H54.4301V38.3441H53.0209Z" fill="#FEFFFF"/>
<path d="M62.275 37.7285V38.3441H59.9788V39.9342H62.0488V40.5371H59.9788V42.1284H62.275V42.744H59.332V37.7285H62.275Z" fill="#FEFFFF"/>
<path d="M69.6046 42.8547C68.8574 42.8547 68.2335 42.6045 67.7303 42.1052C67.2322 41.6046 66.9844 40.9815 66.9844 40.2345C66.9844 39.4875 67.2322 38.8669 67.7303 38.3714C68.2284 37.8671 68.8536 37.6143 69.6046 37.6143C70.3658 37.6143 70.9821 37.8873 71.456 38.4333L70.9922 38.8808C70.6313 38.446 70.1688 38.2286 69.6046 38.2286C69.0468 38.2286 68.5779 38.4156 68.203 38.7885C67.8319 39.1576 67.6464 39.6392 67.6464 40.232C67.6464 40.8248 67.8319 41.3076 68.203 41.6754C68.5779 42.0496 69.0455 42.2354 69.6046 42.2354C70.1917 42.2354 70.7 41.9914 71.132 41.501L71.6047 41.9548C71.3658 42.2404 71.071 42.4604 70.7241 42.6171C70.3772 42.7726 70.0036 42.8522 69.6046 42.8522V42.8547Z" fill="#FEFFFF"/>
<path d="M77.2399 42.742H76.5918V37.7266H77.2399V39.8766H79.7597V37.7266H80.4078V42.742H79.7597V40.4795H77.2399V42.742Z" fill="#FEFFFF"/>
<path d="M86.2965 42.742H85.6484V37.7266H86.4363L88.8875 41.6285H88.9155L88.8875 40.6615V37.7266H89.5356V42.742H88.8596L86.2965 38.6518H86.2685L86.2965 39.6187V42.742Z" fill="#FEFFFF"/>
<path d="M99.6403 40.2345C99.6403 40.9777 99.3912 41.5983 98.8931 42.0989C98.3899 42.6032 97.7762 42.856 97.048 42.856C96.3161 42.856 95.6998 42.6045 95.2029 42.0989C94.7048 41.5983 94.457 40.9777 94.457 40.2345C94.457 39.4913 94.7048 38.8719 95.2029 38.3714C95.7011 37.8671 96.3161 37.6143 97.048 37.6143C97.78 37.6143 98.3963 37.8683 98.8931 38.3777C99.3912 38.877 99.6403 39.4963 99.6403 40.2332V40.2345ZM95.1178 40.2345C95.1178 40.8147 95.3021 41.2924 95.668 41.6716C96.0391 42.0496 96.4991 42.2379 97.048 42.2379C97.597 42.2379 98.0557 42.0496 98.4217 41.6716C98.7927 41.2975 98.9783 40.8185 98.9783 40.2345C98.9783 39.6505 98.7927 39.1727 98.4217 38.7986C98.0557 38.4207 97.5983 38.2311 97.048 38.2311C96.4978 38.2311 96.0391 38.4207 95.668 38.7986C95.3021 39.1778 95.1178 39.6556 95.1178 40.2345Z" fill="#FEFFFF"/>
<path d="M107.456 42.742H104.625V37.7266H105.273V42.1252H107.456V42.7408V42.742Z" fill="#FEFFFF"/>
<path d="M117.187 40.2345C117.187 40.9777 116.938 41.5983 116.44 42.0989C115.937 42.6032 115.323 42.856 114.595 42.856C113.863 42.856 113.247 42.6045 112.75 42.0989C112.252 41.5983 112.004 40.9777 112.004 40.2345C112.004 39.4913 112.252 38.8719 112.75 38.3714C113.248 37.8671 113.863 37.6143 114.595 37.6143C115.327 37.6143 115.943 37.8683 116.44 38.3777C116.938 38.877 117.187 39.4963 117.187 40.2332V40.2345ZM112.666 40.2345C112.666 40.8147 112.85 41.2924 113.216 41.6716C113.587 42.0496 114.047 42.2379 114.596 42.2379C115.145 42.2379 115.604 42.0496 115.97 41.6716C116.341 41.2975 116.526 40.8185 116.526 40.2345C116.526 39.6505 116.341 39.1727 115.97 38.7986C115.604 38.4207 115.146 38.2311 114.596 38.2311C114.046 38.2311 113.587 38.4207 113.216 38.7986C112.85 39.1778 112.666 39.6556 112.666 40.2345Z" fill="#FEFFFF"/>
<path d="M126.956 40.4383C126.956 41.1385 126.747 41.6972 126.329 42.1118C125.86 42.6073 125.244 42.855 124.478 42.855C123.746 42.855 123.126 42.6035 122.619 42.0979C122.112 41.5936 121.857 40.9717 121.857 40.2335C121.857 39.4954 122.11 38.876 122.619 38.3704C123.124 37.8661 123.746 37.6133 124.478 37.6133C124.849 37.6133 125.198 37.679 125.527 37.8092C125.855 37.9407 126.126 38.1239 126.337 38.3628L125.873 38.8254C125.718 38.6396 125.517 38.4918 125.269 38.3868C125.024 38.2819 124.76 38.2288 124.478 38.2288C123.927 38.2288 123.464 38.4184 123.082 38.7964C122.708 39.1794 122.519 39.6584 122.519 40.2323C122.519 40.8061 122.708 41.2864 123.082 41.6694C123.464 42.0473 123.927 42.2357 124.478 42.2357C124.981 42.2357 125.398 42.0966 125.731 41.816C126.064 41.5354 126.257 41.1512 126.307 40.6607H124.478V40.0578H126.921C126.945 40.1893 126.956 40.3144 126.956 40.4358V40.4383Z" fill="#FEFFFF"/>
<path d="M132.617 42.742H131.969V37.7266H132.617V42.742Z" fill="#FEFFFF"/>
<path d="M140.793 37.7285V38.3441H138.496V39.9342H140.566V40.5371H138.496V42.1284H140.793V42.744H137.85V37.7285H140.793Z" fill="#FEFFFF"/>
<path d="M149.005 41.4053C149.005 41.8452 148.842 42.1966 148.518 42.4633C148.189 42.7249 147.791 42.8564 147.322 42.8564C146.904 42.8564 146.536 42.7338 146.217 42.4924C145.897 42.2497 145.677 41.9173 145.555 41.4976L146.175 41.2461C146.217 41.3952 146.275 41.5305 146.35 41.6518C146.426 41.7732 146.514 41.8768 146.614 41.9628C146.716 42.0487 146.827 42.117 146.95 42.1663C147.072 42.2156 147.2 42.2396 147.338 42.2396C147.632 42.2396 147.875 42.1637 148.062 42.0121C148.25 41.8604 148.344 41.6581 148.344 41.4066C148.344 41.1968 148.266 41.016 148.111 40.8669C147.967 40.7228 147.693 40.5812 147.294 40.4472C146.89 40.3019 146.639 40.2046 146.541 40.1527C146.005 39.8822 145.738 39.4841 145.738 38.9557C145.738 38.5867 145.885 38.2719 146.181 38.0103C146.481 37.7486 146.85 37.6172 147.287 37.6172C147.672 37.6172 148.005 37.7158 148.287 37.9104C148.569 38.1026 148.756 38.3427 148.85 38.6322L148.244 38.8837C148.188 38.6979 148.076 38.5412 147.908 38.4186C147.742 38.2947 147.538 38.2327 147.299 38.2327C147.045 38.2327 146.832 38.3035 146.658 38.4438C146.484 38.5753 146.397 38.7447 146.397 38.9545C146.397 39.1276 146.466 39.2768 146.602 39.4019C146.752 39.5283 147.078 39.6775 147.581 39.8494C148.092 40.0225 148.457 40.2349 148.676 40.4839C148.894 40.7329 149.005 41.0401 149.005 41.4053Z" fill="#FEFFFF"/>
<path d="M7.95898 4.75004L20.7183 12.0761C22.1517 10.0044 24.0755 8.29046 26.2929 7.06566L15.1119 0.643367C14.3431 0.200973 13.5286 0 12.7344 0C10.2437 0 7.95898 1.98192 7.95898 4.75004Z" fill="#FEFFFF"/>
<mask id="mask0_340_5823" style="mask-type:luminance" maskUnits="userSpaceOnUse" x="7" y="0" width="20" height="13">
<path d="M7.95898 4.75004L20.7183 12.0761C22.1517 10.0044 24.0755 8.29046 26.2929 7.06566L15.1119 0.643367C14.3431 0.200973 13.5286 0 12.7344 0C10.2437 0 7.95898 1.98192 7.95898 4.75004Z" fill="white"/>
</mask>
<g mask="url(#mask0_340_5823)">
<path d="M26.2929 0H7.95898V12.0761H26.2929V0Z" fill="#FEFFFF"/>
<mask id="mask1_340_5823" style="mask-type:luminance" maskUnits="userSpaceOnUse" x="7" y="0" width="20" height="13">
<path d="M26.2929 0H7.95898V12.0761H26.2929V0Z" fill="white"/>
</mask>
<g mask="url(#mask1_340_5823)">
<path d="M26.2929 0H7.95898V2.17152H26.2929V0Z" fill="#FEFFFF"/>
<path d="M26.2929 2.17188H7.95898V2.25277H26.2929V2.17188Z" fill="#FEFFFF"/>
<path d="M26.2929 2.25391H7.95898V2.3348H26.2929V2.25391Z" fill="#FEFFFF"/>
<path d="M26.2929 2.33496H7.95898V2.41586H26.2929V2.33496Z" fill="#FEFFFF"/>
<path d="M26.2929 2.41602H7.95898V2.49691H26.2929V2.41602Z" fill="#FEFFFF"/>
<path d="M26.2929 2.49805H7.95898V2.57894H26.2929V2.49805Z" fill="#FEFFFF"/>
<path d="M26.2929 2.57812H7.95898V2.65902H26.2929V2.57812Z" fill="#FEFFFF"/>
<path d="M26.2929 2.65918H7.95898V2.74007H26.2929V2.65918Z" fill="#FEFFFF"/>
<path d="M26.2929 2.74121H7.95898V2.82211H26.2929V2.74121Z" fill="#FEFFFF"/>
<path d="M26.2929 2.82227H7.95898V2.90316H26.2929V2.82227Z" fill="#FEFFFF"/>
<path d="M26.2929 2.9043H7.95898V2.98519H26.2929V2.9043Z" fill="#FEFFFF"/>
<path d="M26.2929 2.98535H7.95898V3.06625H26.2929V2.98535Z" fill="#FEFFFF"/>
<path d="M26.2929 3.06641H7.95898V3.1473H26.2929V3.06641Z" fill="#FEFFFF"/>
<path d="M26.2929 3.14844H7.95898V3.22933H26.2929V3.14844Z" fill="#FEFFFF"/>
<path d="M26.2929 3.22949H7.95898V3.31039H26.2929V3.22949Z" fill="#FEFFFF"/>
<path d="M26.2929 3.31055H7.95898V3.39144H26.2929V3.31055Z" fill="#FEFFFF"/>
<path d="M26.2929 3.39258H7.95898V3.47347H26.2929V3.39258Z" fill="#FEFFFF"/>
<path d="M26.2929 3.47363H7.95898V3.55453H26.2929V3.47363Z" fill="#FEFFFF"/>
<path d="M26.2929 3.55469H7.95898V3.63558H26.2929V3.55469Z" fill="#FEFFFF"/>
<path d="M26.2929 3.63672H7.95898V3.71761H26.2929V3.63672Z" fill="#FEFFFF"/>
<path d="M26.2929 3.71777H7.95898V3.79867H26.2929V3.71777Z" fill="#FEFFFF"/>
<path d="M26.2929 3.7998H7.95898V3.8807H26.2929V3.7998Z" fill="#FEFFFF"/>
<path d="M26.2929 3.88086H7.95898V3.96175H26.2929V3.88086Z" fill="#FEFFFF"/>
<path d="M26.2929 3.96094H7.95898V4.04183H26.2929V3.96094Z" fill="#FEFFFF"/>
<path d="M26.2929 4.04297H7.95898V4.12386H26.2929V4.04297Z" fill="#FEFFFF"/>
<path d="M26.2929 4.12402H7.95898V4.20492H26.2929V4.12402Z" fill="#FEFFFF"/>
<path d="M26.2929 4.20508H7.95898V4.28597H26.2929V4.20508Z" fill="#FEFFFF"/>
<path d="M26.2929 4.28711H7.95898V4.368H26.2929V4.28711Z" fill="#FEFFFF"/>
<path d="M26.2929 4.36816H7.95898V4.44906H26.2929V4.36816Z" fill="#FEFFFF"/>
<path d="M26.2929 4.4502H7.95898V4.53109H26.2929V4.4502Z" fill="#FEFFFF"/>
<path d="M26.2929 4.53125H7.95898V4.61214H26.2929V4.53125Z" fill="#FEFFFF"/>
<path d="M26.2929 4.6123H7.95898V4.6932H26.2929V4.6123Z" fill="#FEFFFF"/>
<path d="M26.2929 4.69434H7.95898V4.77523H26.2929V4.69434Z" fill="#FEFFFF"/>
<path d="M26.2929 4.77539H7.95898V4.85629H26.2929V4.77539Z" fill="#FEFFFF"/>
<path d="M26.2929 4.85645H7.95898V4.93734H26.2929V4.85645Z" fill="#FEFFFF"/>
<path d="M26.2929 4.93848H7.95898V5.01937H26.2929V4.93848Z" fill="#FEFFFF"/>
<path d="M26.2929 5.01953H7.95898V5.10043H26.2929V5.01953Z" fill="#FEFFFF"/>
<path d="M26.2929 5.10156H7.95898V5.18246H26.2929V5.10156Z" fill="#FEFFFF"/>
<path d="M26.2929 5.18262H7.95898V5.26351H26.2929V5.18262Z" fill="#FEFFFF"/>
<path d="M26.2929 5.26367H7.95898V5.34457H26.2929V5.26367Z" fill="#FEFFFF"/>
<path d="M26.2929 5.3457H7.95898V5.4266H26.2929V5.3457Z" fill="#FEFFFF"/>
<path d="M26.2929 5.42578H7.95898V5.50668H26.2929V5.42578Z" fill="#FEFFFF"/>
<path d="M26.2929 5.50684H7.95898V5.58773H26.2929V5.50684Z" fill="#FEFFFF"/>
<path d="M26.2929 5.58984H7.95898V5.67074H26.2929V5.58984Z" fill="#FEFFFF"/>
<path d="M26.2929 5.66992H7.95898V5.75082H26.2929V5.66992Z" fill="#FEFFFF"/>
<path d="M26.2929 5.75195H7.95898V5.83285H26.2929V5.75195Z" fill="#FEFFFF"/>
<path d="M26.2929 5.83301H7.95898V5.9139H26.2929V5.83301Z" fill="#FEFFFF"/>
<path d="M26.2929 5.91406H7.95898V5.99496H26.2929V5.91406Z" fill="#FEFFFF"/>
<path d="M26.2929 5.99609H7.95898V6.07699H26.2929V5.99609Z" fill="#FEFFFF"/>
<path d="M26.2929 6.07715H7.95898V6.15804H26.2929V6.07715Z" fill="#FEFFFF"/>
<path d="M26.2929 6.1582H7.95898V6.2391H26.2929V6.1582Z" fill="#FEFFFF"/>
<path d="M26.2929 6.24023H7.95898V6.32113H26.2929V6.24023Z" fill="#FEFFFF"/>
<path d="M26.2929 6.32129H7.95898V6.40218H26.2929V6.32129Z" fill="#FEFFFF"/>
<path d="M26.2929 6.40234H7.95898V6.48324H26.2929V6.40234Z" fill="#FEFFFF"/>
<path d="M26.2929 6.48438H7.95898V6.56527H26.2929V6.48438Z" fill="#FEFFFF"/>
<path d="M26.2929 6.56543H7.95898V6.64632H26.2929V6.56543Z" fill="#FEFFFF"/>
<path d="M26.2929 6.64746H7.95898V6.69423H26.2929V6.64746Z" fill="#FEFFFF"/>
<path d="M26.2929 6.69238H7.95898V6.73915H26.2929V6.69238Z" fill="#FEFFFF"/>
<path d="M26.2929 6.73926H7.95898V6.78603H26.2929V6.73926Z" fill="#FEFFFF"/>
<path d="M26.2929 6.78613H7.95898V6.8329H26.2929V6.78613Z" fill="#FEFFFF"/>
<path d="M26.2929 6.83203H7.95898V6.8788H26.2929V6.83203Z" fill="#FEFFFF"/>
<path d="M26.2929 6.87891H7.95898V6.92567H26.2929V6.87891Z" fill="#FEFFFF"/>
<path d="M26.2929 6.9248H7.95898V6.97157H26.2929V6.9248Z" fill="#FEFFFF"/>
<path d="M26.2929 6.9707H7.95898V7.01747H26.2929V6.9707Z" fill="#FEFFFF"/>
<path d="M26.2929 7.01758H7.95898V7.06435H26.2929V7.01758Z" fill="#FEFFFF"/>
<path d="M26.2929 7.06445H7.95898V7.11122H26.2929V7.06445Z" fill="#FEFFFF"/>
<path d="M26.2929 7.11133H7.95898V7.1581H26.2929V7.11133Z" fill="#FEFFFF"/>
<path d="M26.2929 7.15625H7.95898V7.20302H26.2929V7.15625Z" fill="#FEFFFF"/>
<path d="M26.2929 7.20312H7.95898V7.24989H26.2929V7.20312Z" fill="#FEFFFF"/>
<path d="M26.2929 7.25H7.95898V7.29677H26.2929V7.25Z" fill="#FEFFFF"/>
<path d="M26.2929 7.2959H7.95898V7.34267H26.2929V7.2959Z" fill="#FEFFFF"/>
<path d="M26.2929 7.34277H7.95898V7.38954H26.2929V7.34277Z" fill="#FEFFFF"/>
<path d="M26.2929 7.38965H7.95898V7.43642H26.2929V7.38965Z" fill="#FEFFFF"/>
<path d="M26.2929 7.43457H7.95898V7.48134H26.2929V7.43457Z" fill="#FEFFFF"/>
<path d="M26.2929 7.48145H7.95898V7.52821H26.2929V7.48145Z" fill="#FEFFFF"/>
<path d="M26.2929 7.52832H7.95898V7.57509H26.2929V7.52832Z" fill="#FEFFFF"/>
<path d="M26.2929 7.5752H7.95898V7.62196H26.2929V7.5752Z" fill="#FEFFFF"/>
<path d="M26.2929 7.62012H7.95898V7.66688H26.2929V7.62012Z" fill="#FEFFFF"/>
<path d="M26.2929 7.66797H7.95898V7.71474H26.2929V7.66797Z" fill="#FEFFFF"/>
<path d="M26.2929 7.71387H7.95898V7.76063H26.2929V7.71387Z" fill="#FEFFFF"/>
<path d="M26.2929 7.75977H7.95898V7.80653H26.2929V7.75977Z" fill="#FEFFFF"/>
<path d="M26.2929 7.80664H7.95898V7.85341H26.2929V7.80664Z" fill="#FEFFFF"/>
<path d="M26.2929 7.85352H7.95898V7.90028H26.2929V7.85352Z" fill="#FEFFFF"/>
<path d="M26.2929 7.89844H7.95898V7.9452H26.2929V7.89844Z" fill="#FEFFFF"/>
<path d="M26.2929 7.94531H7.95898V7.99208H26.2929V7.94531Z" fill="#FEFFFF"/>
<path d="M26.2929 7.99219H7.95898V8.03896H26.2929V7.99219Z" fill="#FEFFFF"/>
<path d="M26.2929 8.03809H7.95898V8.08485H26.2929V8.03809Z" fill="#FEFFFF"/>
<path d="M26.2929 8.08398H7.95898V8.13075H26.2929V8.08398Z" fill="#FEFFFF"/>
<path d="M26.2929 8.13086H7.95898V8.17763H26.2929V8.13086Z" fill="#FEFFFF"/>
<path d="M26.2929 8.17773H7.95898V8.2245H26.2929V8.17773Z" fill="#FEFFFF"/>
<path d="M26.2929 8.22363H7.95898V8.2704H26.2929V8.22363Z" fill="#FEFFFF"/>
<path d="M26.2929 8.27051H7.95898V8.31727H26.2929V8.27051Z" fill="#FEFFFF"/>
<path d="M26.2929 8.31738H7.95898V8.36415H26.2929V8.31738Z" fill="#FEFFFF"/>
<path d="M26.2929 8.3623H7.95898V8.40907H26.2929V8.3623Z" fill="#FEFFFF"/>
<path d="M26.2929 8.40918H7.95898V8.45595H26.2929V8.40918Z" fill="#FEFFFF"/>
<path d="M26.2929 8.45605H7.95898V8.50282H26.2929V8.45605Z" fill="#FEFFFF"/>
<path d="M26.2929 8.50195H7.95898V8.54872H26.2929V8.50195Z" fill="#FEFFFF"/>
<path d="M26.2929 8.54883H7.95898V8.5956H26.2929V8.54883Z" fill="#FEFFFF"/>
<path d="M26.2929 8.59473H7.95898V8.64149H26.2929V8.59473Z" fill="#FEFFFF"/>
<path d="M26.2929 8.6416H7.95898V8.68837H26.2929V8.6416Z" fill="#FEFFFF"/>
<path d="M26.2929 8.6875H7.95898V8.73427H26.2929V8.6875Z" fill="#FEFFFF"/>
<path d="M26.2929 8.73438H7.95898V8.78114H26.2929V8.73438Z" fill="#FEFFFF"/>
<path d="M26.2929 8.78125H7.95898V8.82802H26.2929V8.78125Z" fill="#FEFFFF"/>
<path d="M26.2929 8.82617H7.95898V8.87294H26.2929V8.82617Z" fill="#FEFFFF"/>
<path d="M26.2929 8.87305H7.95898V8.91981H26.2929V8.87305Z" fill="#FEFFFF"/>
<path d="M26.2929 8.91992H7.95898V8.96669H26.2929V8.91992Z" fill="#FEFFFF"/>
<path d="M26.2929 8.96582H7.95898V9.01259H26.2929V8.96582Z" fill="#FEFFFF"/>
<path d="M26.2929 9.01172H7.95898V9.05849H26.2929V9.01172Z" fill="#FEFFFF"/>
<path d="M26.2929 9.05859H7.95898V9.10536H26.2929V9.05859Z" fill="#FEFFFF"/>
<path d="M26.2929 9.10449H7.95898V9.15126H26.2929V9.10449Z" fill="#FEFFFF"/>
<path d="M26.2929 9.15137H7.95898V9.19813H26.2929V9.15137Z" fill="#FEFFFF"/>
<path d="M26.2929 9.19824H7.95898V9.24501H26.2929V9.19824Z" fill="#FEFFFF"/>
<path d="M26.2929 9.24512H7.95898V9.29188H26.2929V9.24512Z" fill="#FEFFFF"/>
<path d="M26.2929 9.29004H7.95898V9.33681H26.2929V9.29004Z" fill="#FEFFFF"/>
<path d="M26.2929 9.33691H7.95898V9.38368H26.2929V9.33691Z" fill="#FEFFFF"/>
<path d="M26.2929 9.38379H7.95898V9.43056H26.2929V9.38379Z" fill="#FEFFFF"/>
<path d="M26.2929 9.42871H7.95898V9.47548H26.2929V9.42871Z" fill="#FEFFFF"/>
<path d="M26.2929 9.47656H7.95898V9.52333H26.2929V9.47656Z" fill="#FEFFFF"/>
<path d="M26.2929 9.52246H7.95898V9.55027H26.2929V9.52246Z" fill="#FEFFFF"/>
<path d="M26.2929 9.55078H7.95898V9.57859H26.2929V9.55078Z" fill="#FEFFFF"/>
<path d="M26.2929 9.57812H7.95898V9.60593H26.2929V9.57812Z" fill="#FEFFFF"/>
<path d="M26.2929 9.60742H7.95898V9.63523H26.2929V9.60742Z" fill="#FEFFFF"/>
<path d="M26.2929 9.63574H7.95898V9.66355H26.2929V9.63574Z" fill="#FEFFFF"/>
<path d="M26.2929 9.66309H7.95898V9.69089H26.2929V9.66309Z" fill="#FEFFFF"/>
<path d="M26.2929 9.69238H7.95898V9.72019H26.2929V9.69238Z" fill="#FEFFFF"/>
<path d="M26.2929 9.71973H7.95898V9.74753H26.2929V9.71973Z" fill="#FEFFFF"/>
<path d="M26.2929 9.74805H7.95898V9.77585H26.2929V9.74805Z" fill="#FEFFFF"/>
<path d="M26.2929 9.77637H7.95898V9.80417H26.2929V9.77637Z" fill="#FEFFFF"/>
<path d="M26.2929 9.80469H7.95898V9.83249H26.2929V9.80469Z" fill="#FEFFFF"/>
<path d="M26.2929 9.83203H7.95898V9.85984H26.2929V9.83203Z" fill="#FEFFFF"/>
<path d="M26.2929 9.86133H7.95898V9.88914H26.2929V9.86133Z" fill="#FEFFFF"/>
<path d="M26.2929 9.88965H7.95898V9.91746H26.2929V9.88965Z" fill="#FEFFFF"/>
<path d="M26.2929 9.91699H7.95898V9.9448H26.2929V9.91699Z" fill="#FEFFFF"/>
<path d="M26.2929 9.94629H7.95898V9.9741H26.2929V9.94629Z" fill="#FEFFFF"/>
<path d="M26.2929 9.97461H7.95898V10.0024H26.2929V9.97461Z" fill="#FEFFFF"/>
<path d="M26.2929 10.0029H7.95898V10.0307H26.2929V10.0029Z" fill="#FEFFFF"/>
<path d="M26.2929 10.0312H7.95898V10.0591H26.2929V10.0312Z" fill="#FEFFFF"/>
<path d="M26.2929 10.0586H7.95898V10.0864H26.2929V10.0586Z" fill="#FEFFFF"/>
<path d="M26.2929 10.0879H7.95898V10.1157H26.2929V10.0879Z" fill="#FEFFFF"/>
<path d="M26.2929 10.1152H7.95898V10.143H26.2929V10.1152Z" fill="#FEFFFF"/>
<path d="M26.2929 10.1436H7.95898V10.1714H26.2929V10.1436Z" fill="#FEFFFF"/>
<path d="M26.2929 10.1729H7.95898V10.2007H26.2929V10.1729Z" fill="#FEFFFF"/>
<path d="M26.2929 10.2002H7.95898V10.228H26.2929V10.2002Z" fill="#FEFFFF"/>
<path d="M26.2929 10.2285H7.95898V10.2563H26.2929V10.2285Z" fill="#FEFFFF"/>
<path d="M26.2929 10.2568H7.95898V10.2846H26.2929V10.2568Z" fill="#FEFFFF"/>
<path d="M26.2929 10.2852H7.95898V10.313H26.2929V10.2852Z" fill="#FEFFFF"/>
<path d="M26.2929 10.3125H7.95898V10.3403H26.2929V10.3125Z" fill="#FEFFFF"/>
<path d="M26.2929 10.3418H7.95898V10.3696H26.2929V10.3418Z" fill="#FEFFFF"/>
<path d="M26.2929 10.3691H7.95898V10.3969H26.2929V10.3691Z" fill="#FEFFFF"/>
<path d="M26.2929 10.3975H7.95898V10.4253H26.2929V10.3975Z" fill="#FEFFFF"/>
<path d="M26.2929 10.4268H7.95898V10.4546H26.2929V10.4268Z" fill="#FEFFFF"/>
<path d="M26.2929 10.4541H7.95898V10.4819H26.2929V10.4541Z" fill="#FEFFFF"/>
<path d="M26.2929 10.4824H7.95898V10.5102H26.2929V10.4824Z" fill="#FEFFFF"/>
<path d="M26.2929 10.5117H7.95898V10.5395H26.2929V10.5117Z" fill="#FEFFFF"/>
<path d="M26.2929 10.5391H7.95898V10.5669H26.2929V10.5391Z" fill="#FEFFFF"/>
<path d="M26.2929 10.5674H7.95898V10.5952H26.2929V10.5674Z" fill="#FEFFFF"/>
<path d="M26.2929 10.5957H7.95898V10.6235H26.2929V10.5957Z" fill="#FEFFFF"/>
<path d="M26.2929 10.624H7.95898V10.6518H26.2929V10.624Z" fill="#FEFFFF"/>
<path d="M26.2929 10.6514H7.95898V10.6792H26.2929V10.6514Z" fill="#FEFFFF"/>
<path d="M26.2929 10.6807H7.95898V10.7085H26.2929V10.6807Z" fill="#FEFFFF"/>
<path d="M26.2929 10.709H7.95898V10.7368H26.2929V10.709Z" fill="#FEFFFF"/>
<path d="M26.2929 10.7363H7.95898V10.7641H26.2929V10.7363Z" fill="#FEFFFF"/>
<path d="M26.2929 10.7656H7.95898V10.7934H26.2929V10.7656Z" fill="#FEFFFF"/>
<path d="M26.2929 10.793H7.95898V10.8208H26.2929V10.793Z" fill="#FEFFFF"/>
<path d="M26.2929 10.8213H7.95898V10.8491H26.2929V10.8213Z" fill="#FEFFFF"/>
<path d="M26.2929 10.8496H7.95898V10.8774H26.2929V10.8496Z" fill="#FEFFFF"/>
<path d="M26.2929 10.8779H7.95898V10.9057H26.2929V10.8779Z" fill="#FEFFFF"/>
<path d="M26.2929 10.9053H7.95898V10.9331H26.2929V10.9053Z" fill="#FEFFFF"/>
<path d="M26.2929 10.9346H7.95898V10.9624H26.2929V10.9346Z" fill="#FEFFFF"/>
<path d="M26.2929 10.9629H7.95898V10.9907H26.2929V10.9629Z" fill="#FEFFFF"/>
<path d="M26.2929 10.9902H7.95898V11.018H26.2929V10.9902Z" fill="#FEFFFF"/>
<path d="M26.2929 11.0195H7.95898V11.0473H26.2929V11.0195Z" fill="#FEFFFF"/>
<path d="M26.2929 11.0469H7.95898V11.0747H26.2929V11.0469Z" fill="#FEFFFF"/>
<path d="M26.2929 11.0762H7.95898V11.104H26.2929V11.0762Z" fill="#FEFFFF"/>
<path d="M26.2929 11.1045H7.95898V11.1323H26.2929V11.1045Z" fill="#FEFFFF"/>
<path d="M26.2929 11.1318H7.95898V11.1596H26.2929V11.1318Z" fill="#FEFFFF"/>
<path d="M26.2929 11.1611H7.95898V11.1889H26.2929V11.1611Z" fill="#FEFFFF"/>
<path d="M26.2929 11.1885H7.95898V11.2163H26.2929V11.1885Z" fill="#FEFFFF"/>
<path d="M26.2929 11.2168H7.95898V11.2446H26.2929V11.2168Z" fill="#FEFFFF"/>
<path d="M26.2929 11.2451H7.95898V11.2729H26.2929V11.2451Z" fill="#FEFFFF"/>
<path d="M26.2929 11.2734H7.95898V11.3012H26.2929V11.2734Z" fill="#FEFFFF"/>
<path d="M26.2929 11.3008H7.95898V11.3286H26.2929V11.3008Z" fill="#FEFFFF"/>
<path d="M26.2929 11.3301H7.95898V11.3579H26.2929V11.3301Z" fill="#FEFFFF"/>
<path d="M26.2929 11.3584H7.95898V11.3862H26.2929V11.3584Z" fill="#FEFFFF"/>
<path d="M26.2929 11.3857H7.95898V11.4135H26.2929V11.3857Z" fill="#FEFFFF"/>
<path d="M26.2929 11.415H7.95898V11.4428H26.2929V11.415Z" fill="#FEFFFF"/>
<path d="M26.2929 11.4434H7.95898V11.4712H26.2929V11.4434Z" fill="#FEFFFF"/>
<path d="M26.2929 11.4707H7.95898V11.4985H26.2929V11.4707Z" fill="#FEFFFF"/>
<path d="M26.2929 11.5H7.95898V11.5278H26.2929V11.5Z" fill="#FEFFFF"/>
<path d="M26.2929 11.5273H7.95898V11.5552H26.2929V11.5273Z" fill="#FEFFFF"/>
<path d="M26.2929 11.5557H7.95898V11.5835H26.2929V11.5557Z" fill="#FEFFFF"/>
<path d="M26.2929 11.584H7.95898V11.6118H26.2929V11.584Z" fill="#FEFFFF"/>
<path d="M26.2929 11.6123H7.95898V11.6401H26.2929V11.6123Z" fill="#FEFFFF"/>
<path d="M26.2929 11.6396H7.95898V11.6675H26.2929V11.6396Z" fill="#FEFFFF"/>
<path d="M26.2929 11.6689H7.95898V11.6968H26.2929V11.6689Z" fill="#FEFFFF"/>
<path d="M26.2929 11.6973H7.95898V11.7251H26.2929V11.6973Z" fill="#FEFFFF"/>
<path d="M26.2929 11.7246H7.95898V11.7524H26.2929V11.7246Z" fill="#FEFFFF"/>
<path d="M26.2929 11.7539H7.95898V11.7817H26.2929V11.7539Z" fill="#FEFFFF"/>
<path d="M26.2929 11.7812H7.95898V11.8091H26.2929V11.7812Z" fill="#FEFFFF"/>
<path d="M26.2929 11.8096H7.95898V11.8374H26.2929V11.8096Z" fill="#FEFFFF"/>
<path d="M26.2929 11.8379H7.95898V11.8657H26.2929V11.8379Z" fill="#FEFFFF"/>
<path d="M26.2929 11.8662H7.95898V11.894H26.2929V11.8662Z" fill="#FEFFFF"/>
<path d="M26.2929 11.8936H7.95898V11.9214H26.2929V11.8936Z" fill="#FEFFFF"/>
<path d="M26.2929 11.9229H7.95898V11.9507H26.2929V11.9229Z" fill="#FEFFFF"/>
<path d="M26.2929 11.9512H7.95898V11.979H26.2929V11.9512Z" fill="#FEFFFF"/>
<path d="M26.2929 12.0758H7.95898V11.9785H26.2929V12.0758Z" fill="#FEFFFF"/>
</g>
</g>
<path d="M21.6152 12.5868L36.9732 21.4271L33.6591 23.3256C33.6591 23.3256 27.9511 26.7965 21.9253 30.4507C23.3803 32.4275 25.3512 34.0328 27.6169 35.0996L37.7839 29.217C38.6188 26.8521 39.0635 24.3065 39.0635 21.666C39.0635 18.8119 38.5387 16.0754 37.5857 13.5525L27.3462 7.66992C25.0411 8.80119 23.0689 10.5151 21.6152 12.5868Z" fill="#FEFFFF"/>
<mask id="mask2_340_5823" style="mask-type:luminance" maskUnits="userSpaceOnUse" x="21" y="7" width="19" height="29">
<path d="M21.6152 12.5868L36.9732 21.4271L33.6591 23.3256C33.6591 23.3256 27.9511 26.7965 21.9253 30.4507C23.3803 32.4275 25.3512 34.0328 27.6169 35.0996L37.7839 29.217C38.6188 26.8521 39.0635 24.3065 39.0635 21.666C39.0635 18.8119 38.5387 16.0754 37.5857 13.5525L27.3462 7.66992C25.0411 8.80119 23.0689 10.5151 21.6152 12.5868Z" fill="white"/>
</mask>
<g mask="url(#mask2_340_5823)">
<path d="M39.0635 7.66797H21.6152V35.0989H39.0635V7.66797Z" fill="#FEFFFF"/>
<mask id="mask3_340_5823" style="mask-type:luminance" maskUnits="userSpaceOnUse" x="21" y="7" width="19" height="29">
<path d="M39.0635 7.66797H21.6152V35.0989H39.0635V7.66797Z" fill="white"/>
</mask>
<g mask="url(#mask3_340_5823)">
<path d="M24.7526 7.66797H21.6152V35.0989H24.7526V7.66797Z" fill="#FEFFFF"/>
<path d="M24.8721 7.66797H24.7539V35.0989H24.8721V7.66797Z" fill="#FEFFFF"/>
<path d="M24.9893 7.66797H24.8711V35.0989H24.9893V7.66797Z" fill="#FEFFFF"/>
<path d="M25.1065 7.66797H24.9883V35.0989H25.1065V7.66797Z" fill="#FEFFFF"/>
<path d="M25.2236 7.66797H25.1055V35.0989H25.2236V7.66797Z" fill="#FEFFFF"/>
<path d="M25.3408 7.66797H25.2227V35.0989H25.3408V7.66797Z" fill="#FEFFFF"/>
<path d="M25.46 7.66797H25.3418V35.0989H25.46V7.66797Z" fill="#FEFFFF"/>
<path d="M25.5752 7.66797H25.457V35.0989H25.5752V7.66797Z" fill="#FEFFFF"/>
<path d="M25.6943 7.66797H25.5762V35.0989H25.6943V7.66797Z" fill="#FEFFFF"/>
<path d="M25.8115 7.66797H25.6934V35.0989H25.8115V7.66797Z" fill="#FEFFFF"/>
<path d="M25.9287 7.66797H25.8105V35.0989H25.9287V7.66797Z" fill="#FEFFFF"/>
<path d="M26.0459 7.66797H25.9277V35.0989H26.0459V7.66797Z" fill="#FEFFFF"/>
<path d="M26.1651 7.66797H26.0469V35.0989H26.1651V7.66797Z" fill="#FEFFFF"/>
<path d="M26.2803 7.66797H26.1621V35.0989H26.2803V7.66797Z" fill="#FEFFFF"/>
<path d="M26.3994 7.66797H26.2812V35.0989H26.3994V7.66797Z" fill="#FEFFFF"/>
<path d="M26.5186 7.66797H26.4004V35.0989H26.5186V7.66797Z" fill="#FEFFFF"/>
<path d="M26.6338 7.66797H26.5156V35.0989H26.6338V7.66797Z" fill="#FEFFFF"/>
<path d="M26.7529 7.66797H26.6348V35.0989H26.7529V7.66797Z" fill="#FEFFFF"/>
<path d="M26.8701 7.66797H26.752V35.0989H26.8701V7.66797Z" fill="#FEFFFF"/>
<path d="M26.9873 7.66797H26.8691V35.0989H26.9873V7.66797Z" fill="#FEFFFF"/>
<path d="M27.1045 7.66797H26.9863V35.0989H27.1045V7.66797Z" fill="#FEFFFF"/>
<path d="M27.2236 7.66797H27.1055V35.0989H27.2236V7.66797Z" fill="#FEFFFF"/>
<path d="M27.3408 7.66797H27.2227V35.0989H27.3408V7.66797Z" fill="#FEFFFF"/>
<path d="M27.458 7.66797H27.3398V35.0989H27.458V7.66797Z" fill="#FEFFFF"/>
<path d="M27.5752 7.66797H27.457V35.0989H27.5752V7.66797Z" fill="#FEFFFF"/>
<path d="M27.6924 7.66797H27.5742V35.0989H27.6924V7.66797Z" fill="#FEFFFF"/>
<path d="M27.8096 7.66797H27.6914V35.0989H27.8096V7.66797Z" fill="#FEFFFF"/>
<path d="M27.9287 7.66797H27.8105V35.0989H27.9287V7.66797Z" fill="#FEFFFF"/>
<path d="M28.0459 7.66797H27.9277V35.0989H28.0459V7.66797Z" fill="#FEFFFF"/>
<path d="M28.1631 7.66797H28.0449V35.0989H28.1631V7.66797Z" fill="#FEFFFF"/>
<path d="M28.2803 7.66797H28.1621V35.0989H28.2803V7.66797Z" fill="#FEFFFF"/>
<path d="M28.3975 7.66797H28.2793V35.0989H28.3975V7.66797Z" fill="#FEFFFF"/>
<path d="M28.5147 7.66797H28.3965V35.0989H28.5147V7.66797Z" fill="#FEFFFF"/>
<path d="M28.6338 7.66797H28.5156V35.0989H28.6338V7.66797Z" fill="#FEFFFF"/>
<path d="M28.751 7.66797H28.6328V35.0989H28.751V7.66797Z" fill="#FEFFFF"/>
<path d="M28.8682 7.66797H28.75V35.0989H28.8682V7.66797Z" fill="#FEFFFF"/>
<path d="M28.9854 7.66797H28.8672V35.0989H28.9854V7.66797Z" fill="#FEFFFF"/>
<path d="M29.1045 7.66797H28.9863V35.0989H29.1045V7.66797Z" fill="#FEFFFF"/>
<path d="M29.2197 7.66797H29.1016V35.0989H29.2197V7.66797Z" fill="#FEFFFF"/>
<path d="M29.3389 7.66797H29.2207V35.0989H29.3389V7.66797Z" fill="#FEFFFF"/>
<path d="M29.4561 7.66797H29.3379V35.0989H29.4561V7.66797Z" fill="#FEFFFF"/>
<path d="M29.5733 7.66797H29.4551V35.0989H29.5733V7.66797Z" fill="#FEFFFF"/>
<path d="M29.6924 7.66797H29.5742V35.0989H29.6924V7.66797Z" fill="#FEFFFF"/>
<path d="M29.8096 7.66797H29.6914V35.0989H29.8096V7.66797Z" fill="#FEFFFF"/>
<path d="M29.9268 7.66797H29.8086V35.0989H29.9268V7.66797Z" fill="#FEFFFF"/>
<path d="M30.044 7.66797H29.9258V35.0989H30.044V7.66797Z" fill="#FEFFFF"/>
<path d="M30.1631 7.66797H30.0449V35.0989H30.1631V7.66797Z" fill="#FEFFFF"/>
<path d="M30.2783 7.66797H30.1602V35.0989H30.2783V7.66797Z" fill="#FEFFFF"/>
<path d="M30.3975 7.66797H30.2793V35.0989H30.3975V7.66797Z" fill="#FEFFFF"/>
<path d="M30.5147 7.66797H30.3965V35.0989H30.5147V7.66797Z" fill="#FEFFFF"/>
<path d="M30.6318 7.66797H30.5137V35.0989H30.6318V7.66797Z" fill="#FEFFFF"/>
<path d="M30.749 7.66797H30.6309V35.0989H30.749V7.66797Z" fill="#FEFFFF"/>
<path d="M30.8682 7.66797H30.75V35.0989H30.8682V7.66797Z" fill="#FEFFFF"/>
<path d="M30.9854 7.66797H30.8672V35.0989H30.9854V7.66797Z" fill="#FEFFFF"/>
<path d="M31.1026 7.66797H30.9844V35.0989H31.1026V7.66797Z" fill="#FEFFFF"/>
<path d="M31.2197 7.66797H31.1016V35.0989H31.2197V7.66797Z" fill="#FEFFFF"/>
<path d="M31.2881 7.66797H31.2207V35.0989H31.2881V7.66797Z" fill="#FEFFFF"/>
<path d="M31.3525 7.66797H31.2852V35.0989H31.3525V7.66797Z" fill="#FEFFFF"/>
<path d="M31.4209 7.66797H31.3535V35.0989H31.4209V7.66797Z" fill="#FEFFFF"/>
<path d="M31.4873 7.66797H31.4199V35.0989H31.4873V7.66797Z" fill="#FEFFFF"/>
<path d="M31.5556 7.66797H31.4883V35.0989H31.5556V7.66797Z" fill="#FEFFFF"/>
<path d="M31.6201 7.66797H31.5527V35.0989H31.6201V7.66797Z" fill="#FEFFFF"/>
<path d="M31.6884 7.66797H31.6211V35.0989H31.6884V7.66797Z" fill="#FEFFFF"/>
<path d="M31.7568 7.66797H31.6895V35.0989H31.7568V7.66797Z" fill="#FEFFFF"/>
<path d="M31.8232 7.66797H31.7559V35.0989H31.8232V7.66797Z" fill="#FEFFFF"/>
<path d="M31.8896 7.66797H31.8223V35.0989H31.8896V7.66797Z" fill="#FEFFFF"/>
<path d="M31.956 7.66797H31.8887V35.0989H31.956V7.66797Z" fill="#FEFFFF"/>
<path d="M32.0244 7.66797H31.957V35.0989H32.0244V7.66797Z" fill="#FEFFFF"/>
<path d="M32.0908 7.66797H32.0234V35.0989H32.0908V7.66797Z" fill="#FEFFFF"/>
<path d="M32.1572 7.66797H32.0898V35.0989H32.1572V7.66797Z" fill="#FEFFFF"/>
<path d="M32.2256 7.66797H32.1582V35.0989H32.2256V7.66797Z" fill="#FEFFFF"/>
<path d="M32.292 7.66797H32.2246V35.0989H32.292V7.66797Z" fill="#FEFFFF"/>
<path d="M32.3584 7.66797H32.291V35.0989H32.3584V7.66797Z" fill="#FEFFFF"/>
<path d="M32.4248 7.66797H32.3574V35.0989H32.4248V7.66797Z" fill="#FEFFFF"/>
<path d="M32.4931 7.66797H32.4258V35.0989H32.4931V7.66797Z" fill="#FEFFFF"/>
<path d="M32.5595 7.66797H32.4922V35.0989H32.5595V7.66797Z" fill="#FEFFFF"/>
<path d="M32.6279 7.66797H32.5605V35.0989H32.6279V7.66797Z" fill="#FEFFFF"/>
<path d="M32.6924 7.66797H32.625V35.0989H32.6924V7.66797Z" fill="#FEFFFF"/>
<path d="M32.7607 7.66797H32.6934V35.0989H32.7607V7.66797Z" fill="#FEFFFF"/>
<path d="M32.8291 7.66797H32.7617V35.0989H32.8291V7.66797Z" fill="#FEFFFF"/>
<path d="M32.8955 7.66797H32.8281V35.0989H32.8955V7.66797Z" fill="#FEFFFF"/>
<path d="M32.9619 7.66797H32.8945V35.0989H32.9619V7.66797Z" fill="#FEFFFF"/>
<path d="M33.0283 7.66797H32.9609V35.0989H33.0283V7.66797Z" fill="#FEFFFF"/>
<path d="M33.0966 7.66797H33.0293V35.0989H33.0966V7.66797Z" fill="#FEFFFF"/>
<path d="M33.1611 7.66797H33.0938V35.0989H33.1611V7.66797Z" fill="#FEFFFF"/>
<path d="M33.2295 7.66797H33.1621V35.0989H33.2295V7.66797Z" fill="#FEFFFF"/>
<path d="M33.2978 7.66797H33.2305V35.0989H33.2978V7.66797Z" fill="#FEFFFF"/>
<path d="M33.3642 7.66797H33.2969V35.0989H33.3642V7.66797Z" fill="#FEFFFF"/>
<path d="M33.4306 7.66797H33.3633V35.0989H33.4306V7.66797Z" fill="#FEFFFF"/>
<path d="M33.497 7.66797H33.4297V35.0989H33.497V7.66797Z" fill="#FEFFFF"/>
<path d="M33.5654 7.66797H33.498V35.0989H33.5654V7.66797Z" fill="#FEFFFF"/>
<path d="M33.6338 7.66797H33.5664V35.0989H33.6338V7.66797Z" fill="#FEFFFF"/>
<path d="M33.6982 7.66797H33.6309V35.0989H33.6982V7.66797Z" fill="#FEFFFF"/>
<path d="M33.7666 7.66797H33.6992V35.0989H33.7666V7.66797Z" fill="#FEFFFF"/>
<path d="M33.833 7.66797H33.7656V35.0989H33.833V7.66797Z" fill="#FEFFFF"/>
<path d="M33.9013 7.66797H33.834V35.0989H33.9013V7.66797Z" fill="#FEFFFF"/>
<path d="M33.9658 7.66797H33.8984V35.0989H33.9658V7.66797Z" fill="#FEFFFF"/>
<path d="M34.0341 7.66797H33.9668V35.0989H34.0341V7.66797Z" fill="#FEFFFF"/>
<path d="M34.1025 7.66797H34.0352V35.0989H34.1025V7.66797Z" fill="#FEFFFF"/>
<path d="M34.1689 7.66797H34.1016V35.0989H34.1689V7.66797Z" fill="#FEFFFF"/>
<path d="M34.2353 7.66797H34.168V35.0989H34.2353V7.66797Z" fill="#FEFFFF"/>
<path d="M34.3017 7.66797H34.2344V35.0989H34.3017V7.66797Z" fill="#FEFFFF"/>
<path d="M34.3701 7.66797H34.3027V35.0989H34.3701V7.66797Z" fill="#FEFFFF"/>
<path d="M34.4365 7.66797H34.3691V35.0989H34.4365V7.66797Z" fill="#FEFFFF"/>
<path d="M34.5029 7.66797H34.4355V35.0989H34.5029V7.66797Z" fill="#FEFFFF"/>
<path d="M34.5713 7.66797H34.5039V35.0989H34.5713V7.66797Z" fill="#FEFFFF"/>
<path d="M34.6377 7.66797H34.5703V35.0989H34.6377V7.66797Z" fill="#FEFFFF"/>
<path d="M34.7041 7.66797H34.6367V35.0989H34.7041V7.66797Z" fill="#FEFFFF"/>
<path d="M34.7705 7.66797H34.7031V35.0989H34.7705V7.66797Z" fill="#FEFFFF"/>
<path d="M34.8388 7.66797H34.7715V35.0989H34.8388V7.66797Z" fill="#FEFFFF"/>
<path d="M34.9072 7.66797H34.8398V35.0989H34.9072V7.66797Z" fill="#FEFFFF"/>
<path d="M34.9716 7.66797H34.9043V35.0989H34.9716V7.66797Z" fill="#FEFFFF"/>
<path d="M35.04 7.66797H34.9727V35.0989H35.04V7.66797Z" fill="#FEFFFF"/>
<path d="M35.1064 7.66797H35.0391V35.0989H35.1064V7.66797Z" fill="#FEFFFF"/>
<path d="M35.1748 7.66797H35.1074V35.0989H35.1748V7.66797Z" fill="#FEFFFF"/>
<path d="M35.2392 7.66797H35.1719V35.0989H35.2392V7.66797Z" fill="#FEFFFF"/>
<path d="M35.3076 7.66797H35.2402V35.0989H35.3076V7.66797Z" fill="#FEFFFF"/>
<path d="M35.374 7.66797H35.3066V35.0989H35.374V7.66797Z" fill="#FEFFFF"/>
<path d="M35.4157 7.66797H35.375V35.0989H35.4157V7.66797Z" fill="#FEFFFF"/>
<path d="M35.4567 7.66797H35.416V35.0989H35.4567V7.66797Z" fill="#FEFFFF"/>
<path d="M35.4957 7.66797H35.4551V35.0989H35.4957V7.66797Z" fill="#FEFFFF"/>
<path d="M35.5368 7.66797H35.4961V35.0989H35.5368V7.66797Z" fill="#FEFFFF"/>
<path d="M35.5778 7.66797H35.5371V35.0989H35.5778V7.66797Z" fill="#FEFFFF"/>
<path d="M35.6188 7.66797H35.5781V35.0989H35.6188V7.66797Z" fill="#FEFFFF"/>
<path d="M35.6598 7.66797H35.6191V35.0989H35.6598V7.66797Z" fill="#FEFFFF"/>
<path d="M35.7008 7.66797H35.6602V35.0989H35.7008V7.66797Z" fill="#FEFFFF"/>
<path d="M35.7418 7.66797H35.7012V35.0989H35.7418V7.66797Z" fill="#FEFFFF"/>
<path d="M35.7829 7.66797H35.7422V35.0989H35.7829V7.66797Z" fill="#FEFFFF"/>
<path d="M35.8239 7.66797H35.7832V35.0989H35.8239V7.66797Z" fill="#FEFFFF"/>
<path d="M35.8649 7.66797H35.8242V35.0989H35.8649V7.66797Z" fill="#FEFFFF"/>
<path d="M35.9039 7.66797H35.8633V35.0989H35.9039V7.66797Z" fill="#FEFFFF"/>
<path d="M35.945 7.66797H35.9043V35.0989H35.945V7.66797Z" fill="#FEFFFF"/>
<path d="M35.986 7.66797H35.9453V35.0989H35.986V7.66797Z" fill="#FEFFFF"/>
<path d="M36.027 7.66797H35.9863V35.0989H36.027V7.66797Z" fill="#FEFFFF"/>
<path d="M36.068 7.66797H36.0273V35.0989H36.068V7.66797Z" fill="#FEFFFF"/>
<path d="M36.109 7.66797H36.0684V35.0989H36.109V7.66797Z" fill="#FEFFFF"/>
<path d="M36.15 7.66797H36.1094V35.0989H36.15V7.66797Z" fill="#FEFFFF"/>
<path d="M36.1911 7.66797H36.1504V35.0989H36.1911V7.66797Z" fill="#FEFFFF"/>
<path d="M36.2321 7.66797H36.1914V35.0989H36.2321V7.66797Z" fill="#FEFFFF"/>
<path d="M36.2711 7.66797H36.2305V35.0989H36.2711V7.66797Z" fill="#FEFFFF"/>
<path d="M36.3121 7.66797H36.2715V35.0989H36.3121V7.66797Z" fill="#FEFFFF"/>
<path d="M36.3532 7.66797H36.3125V35.0989H36.3532V7.66797Z" fill="#FEFFFF"/>
<path d="M36.3942 7.66797H36.3535V35.0989H36.3942V7.66797Z" fill="#FEFFFF"/>
<path d="M36.4352 7.66797H36.3945V35.0989H36.4352V7.66797Z" fill="#FEFFFF"/>
<path d="M36.4762 7.66797H36.4355V35.0989H36.4762V7.66797Z" fill="#FEFFFF"/>
<path d="M36.5172 7.66797H36.4766V35.0989H36.5172V7.66797Z" fill="#FEFFFF"/>
<path d="M36.5582 7.66797H36.5176V35.0989H36.5582V7.66797Z" fill="#FEFFFF"/>
<path d="M36.5993 7.66797H36.5586V35.0989H36.5993V7.66797Z" fill="#FEFFFF"/>
<path d="M36.6383 7.66797H36.5977V35.0989H36.6383V7.66797Z" fill="#FEFFFF"/>
<path d="M36.6793 7.66797H36.6387V35.0989H36.6793V7.66797Z" fill="#FEFFFF"/>
<path d="M36.7204 7.66797H36.6797V35.0989H36.7204V7.66797Z" fill="#FEFFFF"/>
<path d="M36.7614 7.66797H36.7207V35.0989H36.7614V7.66797Z" fill="#FEFFFF"/>
<path d="M36.8024 7.66797H36.7617V35.0989H36.8024V7.66797Z" fill="#FEFFFF"/>
<path d="M36.8434 7.66797H36.8027V35.0989H36.8434V7.66797Z" fill="#FEFFFF"/>
<path d="M36.8844 7.66797H36.8438V35.0989H36.8844V7.66797Z" fill="#FEFFFF"/>
<path d="M36.9254 7.66797H36.8848V35.0989H36.9254V7.66797Z" fill="#FEFFFF"/>
<path d="M36.9664 7.66797H36.9258V35.0989H36.9664V7.66797Z" fill="#FEFFFF"/>
<path d="M37.0055 7.66797H36.9648V35.0989H37.0055V7.66797Z" fill="#FEFFFF"/>
<path d="M37.0465 7.66797H37.0059V35.0989H37.0465V7.66797Z" fill="#FEFFFF"/>
<path d="M37.0875 7.66797H37.0469V35.0989H37.0875V7.66797Z" fill="#FEFFFF"/>
<path d="M37.1286 7.66797H37.0879V35.0989H37.1286V7.66797Z" fill="#FEFFFF"/>
<path d="M37.1696 7.66797H37.1289V35.0989H37.1696V7.66797Z" fill="#FEFFFF"/>
<path d="M37.2106 7.66797H37.1699V35.0989H37.2106V7.66797Z" fill="#FEFFFF"/>
<path d="M37.2516 7.66797H37.2109V35.0989H37.2516V7.66797Z" fill="#FEFFFF"/>
<path d="M37.2926 7.66797H37.252V35.0989H37.2926V7.66797Z" fill="#FEFFFF"/>
<path d="M37.3336 7.66797H37.293V35.0989H37.3336V7.66797Z" fill="#FEFFFF"/>
<path d="M37.3746 7.66797H37.334V35.0989H37.3746V7.66797Z" fill="#FEFFFF"/>
<path d="M37.4137 7.66797H37.373V35.0989H37.4137V7.66797Z" fill="#FEFFFF"/>
<path d="M37.4547 7.66797H37.4141V35.0989H37.4547V7.66797Z" fill="#FEFFFF"/>
<path d="M37.4957 7.66797H37.4551V35.0989H37.4957V7.66797Z" fill="#FEFFFF"/>
<path d="M37.5368 7.66797H37.4961V35.0989H37.5368V7.66797Z" fill="#FEFFFF"/>
<path d="M37.5758 7.66797H37.5352V35.0989H37.5758V7.66797Z" fill="#FEFFFF"/>
<path d="M37.6188 7.66797H37.5781V35.0989H37.6188V7.66797Z" fill="#FEFFFF"/>
<path d="M37.6598 7.66797H37.6191V35.0989H37.6598V7.66797Z" fill="#FEFFFF"/>
<path d="M37.7008 7.66797H37.6602V35.0989H37.7008V7.66797Z" fill="#FEFFFF"/>
<path d="M37.7418 7.66797H37.7012V35.0989H37.7418V7.66797Z" fill="#FEFFFF"/>
<path d="M37.7809 7.66797H37.7402V35.0989H37.7809V7.66797Z" fill="#FEFFFF"/>
<path d="M37.8219 7.66797H37.7812V35.0989H37.8219V7.66797Z" fill="#FEFFFF"/>
<path d="M37.8629 7.66797H37.8223V35.0989H37.8629V7.66797Z" fill="#FEFFFF"/>
<path d="M37.9039 7.66797H37.8633V35.0989H37.9039V7.66797Z" fill="#FEFFFF"/>
<path d="M37.943 7.66797H37.9023V35.0989H37.943V7.66797Z" fill="#FEFFFF"/>
<path d="M37.986 7.66797H37.9453V35.0989H37.986V7.66797Z" fill="#FEFFFF"/>
<path d="M38.027 7.66797H37.9863V35.0989H38.027V7.66797Z" fill="#FEFFFF"/>
<path d="M38.068 7.66797H38.0273V35.0989H38.068V7.66797Z" fill="#FEFFFF"/>
<path d="M38.109 7.66797H38.0684V35.0989H38.109V7.66797Z" fill="#FEFFFF"/>
<path d="M38.1481 7.66797H38.1074V35.0989H38.1481V7.66797Z" fill="#FEFFFF"/>
<path d="M38.1891 7.66797H38.1484V35.0989H38.1891V7.66797Z" fill="#FEFFFF"/>
<path d="M38.2301 7.66797H38.1895V35.0989H38.2301V7.66797Z" fill="#FEFFFF"/>
<path d="M38.2711 7.66797H38.2305V35.0989H38.2711V7.66797Z" fill="#FEFFFF"/>
<path d="M38.3102 7.66797H38.2695V35.0989H38.3102V7.66797Z" fill="#FEFFFF"/>
<path d="M38.3532 7.66797H38.3125V35.0989H38.3532V7.66797Z" fill="#FEFFFF"/>
<path d="M38.3942 7.66797H38.3535V35.0989H38.3942V7.66797Z" fill="#FEFFFF"/>
<path d="M38.4352 7.66797H38.3945V35.0989H38.4352V7.66797Z" fill="#FEFFFF"/>
<path d="M38.4743 7.66797H38.4336V35.0989H38.4743V7.66797Z" fill="#FEFFFF"/>
<path d="M38.5153 7.66797H38.4746V35.0989H38.5153V7.66797Z" fill="#FEFFFF"/>
<path d="M38.5563 7.66797H38.5156V35.0989H38.5563V7.66797Z" fill="#FEFFFF"/>
<path d="M38.5973 7.66797H38.5566V35.0989H38.5973V7.66797Z" fill="#FEFFFF"/>
<path d="M38.6383 7.66797H38.5977V35.0989H38.6383V7.66797Z" fill="#FEFFFF"/>
<path d="M38.6793 7.66797H38.6387V35.0989H38.6793V7.66797Z" fill="#FEFFFF"/>
<path d="M38.7204 7.66797H38.6797V35.0989H38.7204V7.66797Z" fill="#FEFFFF"/>
<path d="M38.7614 7.66797H38.7207V35.0989H38.7614V7.66797Z" fill="#FEFFFF"/>
<path d="M38.8024 7.66797H38.7617V35.0989H38.8024V7.66797Z" fill="#FEFFFF"/>
<path d="M38.8414 7.66797H38.8008V35.0989H38.8414V7.66797Z" fill="#FEFFFF"/>
<path d="M38.8844 7.66797H38.8438V35.0989H38.8844V7.66797Z" fill="#FEFFFF"/>
<path d="M38.9235 7.66797H38.8828V35.0989H38.9235V7.66797Z" fill="#FEFFFF"/>
<path d="M39.0636 7.66797H38.9238V35.0989H39.0636V7.66797Z" fill="#FEFFFF"/>
</g>
</g>
<path d="M0 12.5885L15.3567 21.4287L12.0439 23.3209C12.0439 23.3209 6.33582 26.7944 0.312597 30.4473L0.357073 30.5067C2.69901 33.6628 7.12621 34.449 10.5368 32.476L19.0507 27.5515C18.2666 25.6808 17.8422 23.6331 17.8422 21.473C17.8422 19.2914 18.2679 17.2197 19.0735 15.3275L10.3437 10.3158C9.11234 9.60926 7.76284 9.27051 6.42731 9.27051C3.94559 9.26924 1.51851 10.4384 0 12.5885Z" fill="#FEFFFF"/>
<mask id="mask4_340_5823" style="mask-type:luminance" maskUnits="userSpaceOnUse" x="0" y="9" width="20" height="25">
<path d="M0 12.5885L15.3567 21.4287L12.0439 23.3209C12.0439 23.3209 6.33582 26.7944 0.312597 30.4473L0.357073 30.5067C2.69901 33.6628 7.12621 34.449 10.5368 32.476L19.0507 27.5515C18.2666 25.6808 17.8422 23.6331 17.8422 21.473C17.8422 19.2914 18.2679 17.2197 19.0735 15.3275L10.3437 10.3158C9.11234 9.60926 7.76284 9.27051 6.42731 9.27051C3.94559 9.26924 1.51851 10.4384 0 12.5885Z" fill="white"/>
</mask>
<g mask="url(#mask4_340_5823)">
<path d="M19.0723 9.26855H0V34.4471H19.0723V9.26855Z" fill="#FEFFFF"/>
<mask id="mask5_340_5823" style="mask-type:luminance" maskUnits="userSpaceOnUse" x="0" y="9" width="20" height="26">
<path d="M19.0723 9.26855H0V34.4471H19.0723V9.26855Z" fill="white"/>
</mask>
<g mask="url(#mask5_340_5823)">
<path d="M19.0723 13.6356H0V9.26855H3.08531H19.0723V13.6356Z" fill="#FEFFFF"/>
<path d="M19.0723 13.6357H0V13.7988H19.0723V13.6357Z" fill="#FEFFFF"/>
<path d="M19.0723 13.7988H0V13.9619H19.0723V13.7988Z" fill="#FEFFFF"/>
<path d="M19.0723 13.9629H0V14.1259H19.0723V13.9629Z" fill="#FEFFFF"/>
<path d="M19.0723 14.126H0V14.289H19.0723V14.126Z" fill="#FEFFFF"/>
<path d="M19.0723 14.29H0V14.4531H19.0723V14.29Z" fill="#FEFFFF"/>
<path d="M19.0723 14.4541H0V14.6172H19.0723V14.4541Z" fill="#FEFFFF"/>
<path d="M19.0723 14.6182H0V14.7812H19.0723V14.6182Z" fill="#FEFFFF"/>
<path d="M19.0723 14.7812H0V14.9443H19.0723V14.7812Z" fill="#FEFFFF"/>
<path d="M19.0723 14.9443H0V15.1074H19.0723V14.9443Z" fill="#FEFFFF"/>
<path d="M19.0723 15.1084H0V15.2715H19.0723V15.1084Z" fill="#FEFFFF"/>
<path d="M19.0723 15.2715H0V15.4345H19.0723V15.2715Z" fill="#FEFFFF"/>
<path d="M19.0723 15.4355H0V15.5986H19.0723V15.4355Z" fill="#FEFFFF"/>
<path d="M19.0723 15.5986H0V15.7617H19.0723V15.5986Z" fill="#FEFFFF"/>
<path d="M19.0723 15.7627H0V15.9257H19.0723V15.7627Z" fill="#FEFFFF"/>
<path d="M19.0723 15.9258H0V16.0888H19.0723V15.9258Z" fill="#FEFFFF"/>
<path d="M19.0723 16.0908H0V16.2539H19.0723V16.0908Z" fill="#FEFFFF"/>
<path d="M19.0723 16.2539H0V16.417H19.0723V16.2539Z" fill="#FEFFFF"/>
<path d="M19.0723 16.417H0V16.58H19.0723V16.417Z" fill="#FEFFFF"/>
<path d="M19.0723 16.5811H0V16.7441H19.0723V16.5811Z" fill="#FEFFFF"/>
<path d="M19.0723 16.7441H0V16.9072H19.0723V16.7441Z" fill="#FEFFFF"/>
<path d="M19.0723 16.9082H0V17.0713H19.0723V16.9082Z" fill="#FEFFFF"/>
<path d="M19.0723 17.0713H0V17.2343H19.0723V17.0713Z" fill="#FEFFFF"/>
<path d="M19.0723 17.2354H0V17.3984H19.0723V17.2354Z" fill="#FEFFFF"/>
<path d="M19.0723 17.3984H0V17.5615H19.0723V17.3984Z" fill="#FEFFFF"/>
<path d="M19.0723 17.5615H0V17.7246H19.0723V17.5615Z" fill="#FEFFFF"/>
<path d="M19.0723 17.7256H0V17.8886H19.0723V17.7256Z" fill="#FEFFFF"/>
<path d="M19.0723 17.8896H0V18.0527H19.0723V17.8896Z" fill="#FEFFFF"/>
<path d="M19.0723 18.0537H0V18.2168H19.0723V18.0537Z" fill="#FEFFFF"/>
<path d="M19.0723 18.2168H0V18.3799H19.0723V18.2168Z" fill="#FEFFFF"/>
<path d="M19.0723 18.3809H0V18.5439H19.0723V18.3809Z" fill="#FEFFFF"/>
<path d="M19.0723 18.5439H0V18.707H19.0723V18.5439Z" fill="#FEFFFF"/>
<path d="M19.0723 18.708H0V18.8711H19.0723V18.708Z" fill="#FEFFFF"/>
<path d="M19.0723 18.8711H0V19.0341H19.0723V18.8711Z" fill="#FEFFFF"/>
<path d="M19.0723 19.0342H0V19.1972H19.0723V19.0342Z" fill="#FEFFFF"/>
<path d="M19.0723 19.1982H0V19.3613H19.0723V19.1982Z" fill="#FEFFFF"/>
<path d="M19.0723 19.3623H0V19.5254H19.0723V19.3623Z" fill="#FEFFFF"/>
<path d="M19.0723 19.5264H0V19.6894H19.0723V19.5264Z" fill="#FEFFFF"/>
<path d="M19.0723 19.6895H0V19.8525H19.0723V19.6895Z" fill="#FEFFFF"/>
<path d="M19.0723 19.8535H0V20.0166H19.0723V19.8535Z" fill="#FEFFFF"/>
<path d="M19.0723 20.0166H0V20.1797H19.0723V20.0166Z" fill="#FEFFFF"/>
<path d="M19.0723 20.1797H0V20.3427H19.0723V20.1797Z" fill="#FEFFFF"/>
<path d="M19.0723 20.3438H0V20.5068H19.0723V20.3438Z" fill="#FEFFFF"/>
<path d="M19.0723 20.5068H0V20.6699H19.0723V20.5068Z" fill="#FEFFFF"/>
<path d="M19.0723 20.6709H0V20.834H19.0723V20.6709Z" fill="#FEFFFF"/>
<path d="M19.0723 20.834H0V20.997H19.0723V20.834Z" fill="#FEFFFF"/>
<path d="M19.0723 20.998H0V21.1611H19.0723V20.998Z" fill="#FEFFFF"/>
<path d="M19.0723 21.1611H0V21.3242H19.0723V21.1611Z" fill="#FEFFFF"/>
<path d="M19.0723 21.3262H0V21.4892H19.0723V21.3262Z" fill="#FEFFFF"/>
<path d="M19.0723 21.4883H0V21.6513H19.0723V21.4883Z" fill="#FEFFFF"/>
<path d="M19.0723 21.6523H0V21.8154H19.0723V21.6523Z" fill="#FEFFFF"/>
<path d="M19.0723 21.8164H0V21.9795H19.0723V21.8164Z" fill="#FEFFFF"/>
<path d="M19.0723 21.9795H0V22.1425H19.0723V21.9795Z" fill="#FEFFFF"/>
<path d="M19.0723 22.1436H0V22.3066H19.0723V22.1436Z" fill="#FEFFFF"/>
<path d="M19.0723 22.3066H0V22.4697H19.0723V22.3066Z" fill="#FEFFFF"/>
<path d="M19.0723 22.4707H0V22.6338H19.0723V22.4707Z" fill="#FEFFFF"/>
<path d="M19.0723 22.6348H0V22.7283H19.0723V22.6348Z" fill="#FEFFFF"/>
<path d="M19.0723 22.7275H0V22.8211H19.0723V22.7275Z" fill="#FEFFFF"/>
<path d="M19.0723 22.8213H0V22.9148H19.0723V22.8213Z" fill="#FEFFFF"/>
<path d="M19.0723 22.9141H0V23.0076H19.0723V22.9141Z" fill="#FEFFFF"/>
<path d="M19.0723 23.0068H0V23.1004H19.0723V23.0068Z" fill="#FEFFFF"/>
<path d="M19.0723 23.1006H0V23.1941H19.0723V23.1006Z" fill="#FEFFFF"/>
<path d="M19.0723 23.1943H0V23.2879H19.0723V23.1943Z" fill="#FEFFFF"/>
<path d="M19.0723 23.2871H0V23.3806H19.0723V23.2871Z" fill="#FEFFFF"/>
<path d="M19.0723 23.3799H0V23.4734H19.0723V23.3799Z" fill="#FEFFFF"/>
<path d="M19.0723 23.4736H0V23.5672H19.0723V23.4736Z" fill="#FEFFFF"/>
<path d="M19.0723 23.5664H0V23.6599H19.0723V23.5664Z" fill="#FEFFFF"/>
<path d="M19.0723 23.6602H0V23.7537H19.0723V23.6602Z" fill="#FEFFFF"/>
<path d="M19.0723 23.7539H0V23.8474H19.0723V23.7539Z" fill="#FEFFFF"/>
<path d="M19.0723 23.8467H0V23.9402H19.0723V23.8467Z" fill="#FEFFFF"/>
<path d="M19.0723 23.9395H0V24.033H19.0723V23.9395Z" fill="#FEFFFF"/>
<path d="M19.0723 24.0332H0V24.1267H19.0723V24.0332Z" fill="#FEFFFF"/>
<path d="M19.0723 24.127H0V24.2205H19.0723V24.127Z" fill="#FEFFFF"/>
<path d="M19.0723 24.2188H0V24.3123H19.0723V24.2188Z" fill="#FEFFFF"/>
<path d="M19.0723 24.3125H0V24.406H19.0723V24.3125Z" fill="#FEFFFF"/>
<path d="M19.0723 24.4062H0V24.4998H19.0723V24.4062Z" fill="#FEFFFF"/>
<path d="M19.0723 24.5H0V24.5935H19.0723V24.5Z" fill="#FEFFFF"/>
<path d="M19.0723 24.5938H0V24.6873H19.0723V24.5938Z" fill="#FEFFFF"/>
<path d="M19.0723 24.6855H0V24.7791H19.0723V24.6855Z" fill="#FEFFFF"/>
<path d="M19.0723 24.7793H0V24.8728H19.0723V24.7793Z" fill="#FEFFFF"/>
<path d="M19.0723 24.873H0V24.9666H19.0723V24.873Z" fill="#FEFFFF"/>
<path d="M19.0723 24.9658H0V25.0594H19.0723V24.9658Z" fill="#FEFFFF"/>
<path d="M19.0723 25.0596H0V25.1531H19.0723V25.0596Z" fill="#FEFFFF"/>
<path d="M19.0723 25.1523H0V25.2459H19.0723V25.1523Z" fill="#FEFFFF"/>
<path d="M19.0723 25.2451H0V25.3387H19.0723V25.2451Z" fill="#FEFFFF"/>
<path d="M19.0723 25.3389H0V25.4324H19.0723V25.3389Z" fill="#FEFFFF"/>
<path d="M19.0723 25.4326H0V25.5262H19.0723V25.4326Z" fill="#FEFFFF"/>
<path d="M19.0723 25.5244H0V25.6179H19.0723V25.5244Z" fill="#FEFFFF"/>
<path d="M19.0723 25.6182H0V25.7117H19.0723V25.6182Z" fill="#FEFFFF"/>
<path d="M19.0723 25.7119H0V25.8055H19.0723V25.7119Z" fill="#FEFFFF"/>
<path d="M19.0723 25.8057H0V25.8992H19.0723V25.8057Z" fill="#FEFFFF"/>
<path d="M19.0723 25.8994H0V25.9929H19.0723V25.8994Z" fill="#FEFFFF"/>
<path d="M19.0723 25.9912H0V26.0847H19.0723V25.9912Z" fill="#FEFFFF"/>
<path d="M19.0723 26.085H0V26.1785H19.0723V26.085Z" fill="#FEFFFF"/>
<path d="M19.0723 26.1787H0V26.2722H19.0723V26.1787Z" fill="#FEFFFF"/>
<path d="M19.0723 26.2715H0V26.365H19.0723V26.2715Z" fill="#FEFFFF"/>
<path d="M19.0723 26.3652H0V26.4588H19.0723V26.3652Z" fill="#FEFFFF"/>
<path d="M19.0723 26.458H0V26.5515H19.0723V26.458Z" fill="#FEFFFF"/>
<path d="M19.0723 26.5508H0V26.6443H19.0723V26.5508Z" fill="#FEFFFF"/>
<path d="M19.0723 26.6445H0V26.7381H19.0723V26.6445Z" fill="#FEFFFF"/>
<path d="M19.0723 26.7383H0V26.8318H19.0723V26.7383Z" fill="#FEFFFF"/>
<path d="M19.0723 26.832H0V26.9256H19.0723V26.832Z" fill="#FEFFFF"/>
<path d="M19.0723 26.9238H0V27.0174H19.0723V26.9238Z" fill="#FEFFFF"/>
<path d="M19.0723 27.0176H0V27.1111H19.0723V27.0176Z" fill="#FEFFFF"/>
<path d="M19.0723 27.1113H0V27.2049H19.0723V27.1113Z" fill="#FEFFFF"/>
<path d="M19.0723 27.2051H0V27.2986H19.0723V27.2051Z" fill="#FEFFFF"/>
<path d="M19.0723 27.2969H0V27.3904H19.0723V27.2969Z" fill="#FEFFFF"/>
<path d="M19.0723 27.3906H0V27.4842H19.0723V27.3906Z" fill="#FEFFFF"/>
<path d="M19.0723 27.4844H0V27.5779H19.0723V27.4844Z" fill="#FEFFFF"/>
<path d="M19.0723 27.5771H0V27.6707H19.0723V27.5771Z" fill="#FEFFFF"/>
<path d="M19.0723 27.6709H0V27.7644H19.0723V27.6709Z" fill="#FEFFFF"/>
<path d="M19.0723 27.7637H0V27.8572H19.0723V27.7637Z" fill="#FEFFFF"/>
<path d="M19.0723 27.8564H0V27.95H19.0723V27.8564Z" fill="#FEFFFF"/>
<path d="M19.0723 27.9502H0V28.0437H19.0723V27.9502Z" fill="#FEFFFF"/>
<path d="M19.0723 28.0439H0V28.1375H19.0723V28.0439Z" fill="#FEFFFF"/>
<path d="M19.0723 28.1377H0V28.2312H19.0723V28.1377Z" fill="#FEFFFF"/>
<path d="M19.0723 28.2295H0V28.323H19.0723V28.2295Z" fill="#FEFFFF"/>
<path d="M19.0723 28.3232H0V28.4168H19.0723V28.3232Z" fill="#FEFFFF"/>
<path d="M19.0723 28.417H0V28.4739H19.0723V28.417Z" fill="#FEFFFF"/>
<path d="M19.0723 28.4736H0V28.5305H19.0723V28.4736Z" fill="#FEFFFF"/>
<path d="M19.0723 28.5303H0V28.5872H19.0723V28.5303Z" fill="#FEFFFF"/>
<path d="M19.0723 28.5879H0V28.6448H19.0723V28.5879Z" fill="#FEFFFF"/>
<path d="M19.0723 28.6445H0V28.7014H19.0723V28.6445Z" fill="#FEFFFF"/>
<path d="M19.0723 28.7012H0V28.7581H19.0723V28.7012Z" fill="#FEFFFF"/>
<path d="M19.0723 28.7568H0V28.8137H19.0723V28.7568Z" fill="#FEFFFF"/>
<path d="M19.0723 28.8135H0V28.8704H19.0723V28.8135Z" fill="#FEFFFF"/>
<path d="M19.0723 28.8701H0V28.927H19.0723V28.8701Z" fill="#FEFFFF"/>
<path d="M19.0723 28.9277H0V28.9846H19.0723V28.9277Z" fill="#FEFFFF"/>
<path d="M19.0723 28.9844H0V29.0413H19.0723V28.9844Z" fill="#FEFFFF"/>
<path d="M19.0723 29.041H0V29.0979H19.0723V29.041Z" fill="#FEFFFF"/>
<path d="M19.0723 29.0986H0V29.1555H19.0723V29.0986Z" fill="#FEFFFF"/>
<path d="M19.0723 29.1553H0V29.2122H19.0723V29.1553Z" fill="#FEFFFF"/>
<path d="M19.0723 29.2119H0V29.2688H19.0723V29.2119Z" fill="#FEFFFF"/>
<path d="M19.0723 29.2686H0V29.3254H19.0723V29.2686Z" fill="#FEFFFF"/>
<path d="M19.0723 29.3252H0V29.3821H19.0723V29.3252Z" fill="#FEFFFF"/>
<path d="M19.0723 29.3828H0V29.4397H19.0723V29.3828Z" fill="#FEFFFF"/>
<path d="M19.0723 29.4395H0V29.4963H19.0723V29.4395Z" fill="#FEFFFF"/>
<path d="M19.0723 29.4951H0V29.552H19.0723V29.4951Z" fill="#FEFFFF"/>
<path d="M19.0723 29.5518H0V29.6086H19.0723V29.5518Z" fill="#FEFFFF"/>
<path d="M19.0723 29.6094H0V29.6663H19.0723V29.6094Z" fill="#FEFFFF"/>
<path d="M19.0723 29.666H0V29.7229H19.0723V29.666Z" fill="#FEFFFF"/>
<path d="M19.0723 29.7227H0V29.7795H19.0723V29.7227Z" fill="#FEFFFF"/>
<path d="M19.0723 29.7793H0V29.8362H19.0723V29.7793Z" fill="#FEFFFF"/>
<path d="M19.0723 29.8359H0V29.8928H19.0723V29.8359Z" fill="#FEFFFF"/>
<path d="M19.0723 29.8936H0V29.9504H19.0723V29.8936Z" fill="#FEFFFF"/>
<path d="M19.0723 29.9502H0V30.0071H19.0723V29.9502Z" fill="#FEFFFF"/>
<path d="M19.0723 30.0068H0V30.0637H19.0723V30.0068Z" fill="#FEFFFF"/>
<path d="M19.0723 30.0635H0V30.1204H19.0723V30.0635Z" fill="#FEFFFF"/>
<path d="M19.0723 30.1211H0V30.178H19.0723V30.1211Z" fill="#FEFFFF"/>
<path d="M19.0723 30.1777H0V30.2346H19.0723V30.1777Z" fill="#FEFFFF"/>
<path d="M19.0723 30.2344H0V30.2913H19.0723V30.2344Z" fill="#FEFFFF"/>
<path d="M19.0723 30.29H0V30.3469H19.0723V30.29Z" fill="#FEFFFF"/>
<path d="M19.0723 30.3467H0V30.4036H19.0723V30.3467Z" fill="#FEFFFF"/>
<path d="M19.0723 30.4043H0V30.4612H19.0723V30.4043Z" fill="#FEFFFF"/>
<path d="M19.0723 30.4609H0V30.5178H19.0723V30.4609Z" fill="#FEFFFF"/>
<path d="M19.0723 30.5176H0V30.5745H19.0723V30.5176Z" fill="#FEFFFF"/>
<path d="M19.0723 30.5742H0V30.6311H19.0723V30.5742Z" fill="#FEFFFF"/>
<path d="M19.0723 30.6309H0V30.6877H19.0723V30.6309Z" fill="#FEFFFF"/>
<path d="M19.0723 30.6885H0V30.7454H19.0723V30.6885Z" fill="#FEFFFF"/>
<path d="M19.0723 30.7451H0V30.802H19.0723V30.7451Z" fill="#FEFFFF"/>
<path d="M19.0723 30.8018H0V30.8586H19.0723V30.8018Z" fill="#FEFFFF"/>
<path d="M19.0723 30.8594H0V30.9163H19.0723V30.8594Z" fill="#FEFFFF"/>
<path d="M19.0723 30.916H0V30.9729H19.0723V30.916Z" fill="#FEFFFF"/>
<path d="M19.0723 30.9727H0V31.0295H19.0723V30.9727Z" fill="#FEFFFF"/>
<path d="M19.0723 31.0283H0V31.0852H19.0723V31.0283Z" fill="#FEFFFF"/>
<path d="M19.0723 31.085H0V31.1418H19.0723V31.085Z" fill="#FEFFFF"/>
<path d="M19.0723 31.1416H0V31.1985H19.0723V31.1416Z" fill="#FEFFFF"/>
<path d="M19.0723 31.1992H0V31.2561H19.0723V31.1992Z" fill="#FEFFFF"/>
<path d="M19.0723 31.2559H0V31.3127H19.0723V31.2559Z" fill="#FEFFFF"/>
<path d="M19.0723 31.3125H0V31.3694H19.0723V31.3125Z" fill="#FEFFFF"/>
<path d="M19.0723 31.3691H0V31.426H19.0723V31.3691Z" fill="#FEFFFF"/>
<path d="M19.0723 31.4268H0V31.4836H19.0723V31.4268Z" fill="#FEFFFF"/>
<path d="M19.0723 31.4834H0V31.5403H19.0723V31.4834Z" fill="#FEFFFF"/>
<path d="M19.0723 31.54H0V31.5969H19.0723V31.54Z" fill="#FEFFFF"/>
<path d="M19.0723 31.5977H0V31.6545H19.0723V31.5977Z" fill="#FEFFFF"/>
<path d="M19.0723 31.6543H0V31.7112H19.0723V31.6543Z" fill="#FEFFFF"/>
<path d="M19.0723 31.7109H0V31.7678H19.0723V31.7109Z" fill="#FEFFFF"/>
<path d="M19.0723 31.7666H0V31.8235H19.0723V31.7666Z" fill="#FEFFFF"/>
<path d="M19.0723 31.8232H0V31.8801H19.0723V31.8232Z" fill="#FEFFFF"/>
<path d="M19.0723 31.8799H0V31.9368H19.0723V31.8799Z" fill="#FEFFFF"/>
<path d="M19.0723 31.9375H0V31.9944H19.0723V31.9375Z" fill="#FEFFFF"/>
<path d="M19.0723 31.9941H0V32.051H19.0723V31.9941Z" fill="#FEFFFF"/>
<path d="M19.0723 32.0508H0V32.1077H19.0723V32.0508Z" fill="#FEFFFF"/>
<path d="M19.0723 32.1074H0V32.1643H19.0723V32.1074Z" fill="#FEFFFF"/>
<path d="M19.0723 32.1641H0V32.2209H19.0723V32.1641Z" fill="#FEFFFF"/>
<path d="M19.0723 32.2217H0V32.2786H19.0723V32.2217Z" fill="#FEFFFF"/>
<path d="M19.0723 32.2783H0V32.3352H19.0723V32.2783Z" fill="#FEFFFF"/>
<path d="M19.0723 32.335H0V32.3918H19.0723V32.335Z" fill="#FEFFFF"/>
<path d="M19.0723 32.3916H0V32.4485H19.0723V32.3916Z" fill="#FEFFFF"/>
<path d="M19.0723 32.4492H0V32.5061H19.0723V32.4492Z" fill="#FEFFFF"/>
<path d="M19.0723 32.5049H0V32.5618H19.0723V32.5049Z" fill="#FEFFFF"/>
<path d="M19.0723 32.5615H0V32.6184H19.0723V32.5615Z" fill="#FEFFFF"/>
<path d="M19.0723 32.6182H0V32.675H19.0723V32.6182Z" fill="#FEFFFF"/>
<path d="M19.0723 32.6748H0V32.7317H19.0723V32.6748Z" fill="#FEFFFF"/>
<path d="M19.0723 32.7324H0V32.7893H19.0723V32.7324Z" fill="#FEFFFF"/>
<path d="M19.0723 32.7891H0V32.8459H19.0723V32.7891Z" fill="#FEFFFF"/>
<path d="M19.0723 32.8457H0V32.9026H19.0723V32.8457Z" fill="#FEFFFF"/>
<path d="M19.0723 32.9023H0V32.9592H19.0723V32.9023Z" fill="#FEFFFF"/>
<path d="M19.0723 32.96H0V33.0168H19.0723V32.96Z" fill="#FEFFFF"/>
<path d="M19.0723 33.0166H0V33.0735H19.0723V33.0166Z" fill="#FEFFFF"/>
<path d="M19.0723 33.0732H0V33.1301H19.0723V33.0732Z" fill="#FEFFFF"/>
<path d="M19.0723 33.1299H0V33.1868H19.0723V33.1299Z" fill="#FEFFFF"/>
<path d="M19.0723 33.1875H0V33.2444H19.0723V33.1875Z" fill="#FEFFFF"/>
<path d="M19.0723 33.2441H0V33.301H19.0723V33.2441Z" fill="#FEFFFF"/>
<path d="M19.0723 33.2998H0V33.3567H19.0723V33.2998Z" fill="#FEFFFF"/>
<path d="M19.0723 33.3564H0V33.5511H19.0723V33.3564Z" fill="#FEFFFF"/>
<path d="M19.0723 33.5508H0V34.4469H19.0723V33.5508Z" fill="#FEFFFF"/>
</g>
</g>
<path d="M8.06963 38.8854C8.06963 42.2147 11.6975 44.2915 14.5922 42.6192L26.5599 35.7014C24.3666 34.5879 22.486 32.9624 21.0526 30.9805C14.9417 34.6991 8.74184 38.462 8.06963 38.8854Z" fill="#FEFFFF"/>
<mask id="mask6_340_5823" style="mask-type:luminance" maskUnits="userSpaceOnUse" x="8" y="30" width="19" height="14">
<path d="M8.06963 38.8854C8.06963 42.2147 11.6975 44.2915 14.5922 42.6192L26.5599 35.7014C24.3666 34.5879 22.486 32.9624 21.0526 30.9805C14.9417 34.6991 8.74184 38.462 8.06963 38.8854Z" fill="white"/>
</mask>
<g mask="url(#mask6_340_5823)">
<path d="M26.5606 30.9805H8.07031V44.2915H26.5606V30.9805Z" fill="#FEFFFF"/>
<mask id="mask7_340_5823" style="mask-type:luminance" maskUnits="userSpaceOnUse" x="8" y="30" width="19" height="15">
<path d="M26.5606 30.9805H8.07031V44.2915H26.5606V30.9805Z" fill="white"/>
</mask>
<g mask="url(#mask7_340_5823)">
<path d="M26.5606 33.1798H8.07031V30.9805H26.5606V33.1798Z" fill="#FEFFFF"/>
<path d="M26.5606 33.1797H8.07031V33.2618H26.5606V33.1797Z" fill="#FEFFFF"/>
<path d="M26.5606 33.2617H8.07031V33.3439H26.5606V33.2617Z" fill="#FEFFFF"/>
<path d="M26.5606 33.3438H8.07031V33.4259H26.5606V33.3438Z" fill="#FEFFFF"/>
<path d="M26.5606 33.4277H8.07031V33.5099H26.5606V33.4277Z" fill="#FEFFFF"/>
<path d="M26.5606 33.5098H8.07031V33.5919H26.5606V33.5098Z" fill="#FEFFFF"/>
<path d="M26.5606 33.5918H8.07031V33.674H26.5606V33.5918Z" fill="#FEFFFF"/>
<path d="M26.5606 33.6738H8.07031V33.756H26.5606V33.6738Z" fill="#FEFFFF"/>
<path d="M26.5606 33.7559H8.07031V33.838H26.5606V33.7559Z" fill="#FEFFFF"/>
<path d="M26.5606 33.8398H8.07031V33.922H26.5606V33.8398Z" fill="#FEFFFF"/>
<path d="M26.5606 33.9219H8.07031V34.004H26.5606V33.9219Z" fill="#FEFFFF"/>
<path d="M26.5606 34.0039H8.07031V34.0861H26.5606V34.0039Z" fill="#FEFFFF"/>
<path d="M26.5606 34.0859H8.07031V34.1681H26.5606V34.0859Z" fill="#FEFFFF"/>
<path d="M26.5606 34.168H8.07031V34.2501H26.5606V34.168Z" fill="#FEFFFF"/>
<path d="M26.5606 34.25H8.07031V34.3322H26.5606V34.25Z" fill="#FEFFFF"/>
<path d="M26.5606 34.334H8.07031V34.4161H26.5606V34.334Z" fill="#FEFFFF"/>
<path d="M26.5606 34.416H8.07031V34.4982H26.5606V34.416Z" fill="#FEFFFF"/>
<path d="M26.5606 34.498H8.07031V34.5802H26.5606V34.498Z" fill="#FEFFFF"/>
<path d="M26.5606 34.5801H8.07031V34.6622H26.5606V34.5801Z" fill="#FEFFFF"/>
<path d="M26.5606 34.6621H8.07031V34.7443H26.5606V34.6621Z" fill="#FEFFFF"/>
<path d="M26.5606 34.7461H8.07031V34.8283H26.5606V34.7461Z" fill="#FEFFFF"/>
<path d="M26.5606 34.8281H8.07031V34.9103H26.5606V34.8281Z" fill="#FEFFFF"/>
<path d="M26.5606 34.9102H8.07031V34.9923H26.5606V34.9102Z" fill="#FEFFFF"/>
<path d="M26.5606 34.9922H8.07031V35.0743H26.5606V34.9922Z" fill="#FEFFFF"/>
<path d="M26.5606 35.0742H8.07031V35.1564H26.5606V35.0742Z" fill="#FEFFFF"/>
<path d="M26.5606 35.1582H8.07031V35.2404H26.5606V35.1582Z" fill="#FEFFFF"/>
<path d="M26.5606 35.2402H8.07031V35.3224H26.5606V35.2402Z" fill="#FEFFFF"/>
<path d="M26.5606 35.3223H8.07031V35.4044H26.5606V35.3223Z" fill="#FEFFFF"/>
<path d="M26.5606 35.4043H8.07031V35.4865H26.5606V35.4043Z" fill="#FEFFFF"/>
<path d="M26.5606 35.4863H8.07031V35.5685H26.5606V35.4863Z" fill="#FEFFFF"/>
<path d="M26.5606 35.5703H8.07031V35.6525H26.5606V35.5703Z" fill="#FEFFFF"/>
<path d="M26.5606 35.6523H8.07031V35.7345H26.5606V35.6523Z" fill="#FEFFFF"/>
<path d="M26.5606 35.7344H8.07031V35.8165H26.5606V35.7344Z" fill="#FEFFFF"/>
<path d="M26.5606 35.8164H8.07031V35.8986H26.5606V35.8164Z" fill="#FEFFFF"/>
<path d="M26.5606 35.8984H8.07031V35.9806H26.5606V35.8984Z" fill="#FEFFFF"/>
<path d="M26.5606 35.9805H8.07031V36.0626H26.5606V35.9805Z" fill="#FEFFFF"/>
<path d="M26.5606 36.0645H8.07031V36.1466H26.5606V36.0645Z" fill="#FEFFFF"/>
<path d="M26.5606 36.1465H8.07031V36.2286H26.5606V36.1465Z" fill="#FEFFFF"/>
<path d="M26.5606 36.2285H8.07031V36.3107H26.5606V36.2285Z" fill="#FEFFFF"/>
<path d="M26.5606 36.3105H8.07031V36.3927H26.5606V36.3105Z" fill="#FEFFFF"/>
<path d="M26.5606 36.3926H8.07031V36.4747H26.5606V36.3926Z" fill="#FEFFFF"/>
<path d="M26.5606 36.4766H8.07031V36.5587H26.5606V36.4766Z" fill="#FEFFFF"/>
<path d="M26.5606 36.5586H8.07031V36.6408H26.5606V36.5586Z" fill="#FEFFFF"/>
<path d="M26.5606 36.6406H8.07031V36.7228H26.5606V36.6406Z" fill="#FEFFFF"/>
<path d="M26.5606 36.7227H8.07031V36.8048H26.5606V36.7227Z" fill="#FEFFFF"/>
<path d="M26.5606 36.8047H8.07031V36.8868H26.5606V36.8047Z" fill="#FEFFFF"/>
<path d="M26.5606 36.8887H8.07031V36.9708H26.5606V36.8887Z" fill="#FEFFFF"/>
<path d="M26.5606 36.9707H8.07031V37.0529H26.5606V36.9707Z" fill="#FEFFFF"/>
<path d="M26.5606 37.0527H8.07031V37.1349H26.5606V37.0527Z" fill="#FEFFFF"/>
<path d="M26.5606 37.1348H8.07031V37.2169H26.5606V37.1348Z" fill="#FEFFFF"/>
<path d="M26.5606 37.2168H8.07031V37.299H26.5606V37.2168Z" fill="#FEFFFF"/>
<path d="M26.5606 37.3008H8.07031V37.3829H26.5606V37.3008Z" fill="#FEFFFF"/>
<path d="M26.5606 37.3828H8.07031V37.465H26.5606V37.3828Z" fill="#FEFFFF"/>
<path d="M26.5606 37.4648H8.07031V37.547H26.5606V37.4648Z" fill="#FEFFFF"/>
<path d="M26.5606 37.5469H8.07031V37.629H26.5606V37.5469Z" fill="#FEFFFF"/>
<path d="M26.5606 37.6289H8.07031V37.7111H26.5606V37.6289Z" fill="#FEFFFF"/>
<path d="M26.5606 37.7109H8.07031V37.7577H26.5606V37.7109Z" fill="#FEFFFF"/>
<path d="M26.5606 37.7588H8.07031V37.8056H26.5606V37.7588Z" fill="#FEFFFF"/>
<path d="M26.5606 37.8057H8.07031V37.8524H26.5606V37.8057Z" fill="#FEFFFF"/>
<path d="M26.5606 37.8525H8.07031V37.8993H26.5606V37.8525Z" fill="#FEFFFF"/>
<path d="M26.5606 37.8994H8.07031V37.9462H26.5606V37.8994Z" fill="#FEFFFF"/>
<path d="M26.5606 37.9463H8.07031V37.9931H26.5606V37.9463Z" fill="#FEFFFF"/>
<path d="M26.5606 37.9932H8.07031V38.0399H26.5606V37.9932Z" fill="#FEFFFF"/>
<path d="M26.5606 38.041H8.07031V38.0878H26.5606V38.041Z" fill="#FEFFFF"/>
<path d="M26.5606 38.0879H8.07031V38.1347H26.5606V38.0879Z" fill="#FEFFFF"/>
<path d="M26.5606 38.1348H8.07031V38.1815H26.5606V38.1348Z" fill="#FEFFFF"/>
<path d="M26.5606 38.1816H8.07031V38.2284H26.5606V38.1816Z" fill="#FEFFFF"/>
<path d="M26.5606 38.2285H8.07031V38.2753H26.5606V38.2285Z" fill="#FEFFFF"/>
<path d="M26.5606 38.2744H8.07031V38.3212H26.5606V38.2744Z" fill="#FEFFFF"/>
<path d="M26.5606 38.3232H8.07031V38.37H26.5606V38.3232Z" fill="#FEFFFF"/>
<path d="M26.5606 38.3701H8.07031V38.4169H26.5606V38.3701Z" fill="#FEFFFF"/>
<path d="M26.5606 38.417H8.07031V38.4638H26.5606V38.417Z" fill="#FEFFFF"/>
<path d="M26.5606 38.4629H8.07031V38.5097H26.5606V38.4629Z" fill="#FEFFFF"/>
<path d="M26.5606 38.5098H8.07031V38.5565H26.5606V38.5098Z" fill="#FEFFFF"/>
<path d="M26.5606 38.5566H8.07031V38.6034H26.5606V38.5566Z" fill="#FEFFFF"/>
<path d="M26.5606 38.6045H8.07031V38.6513H26.5606V38.6045Z" fill="#FEFFFF"/>
<path d="M26.5606 38.6514H8.07031V38.6981H26.5606V38.6514Z" fill="#FEFFFF"/>
<path d="M26.5606 38.6982H8.07031V38.745H26.5606V38.6982Z" fill="#FEFFFF"/>
<path d="M26.5606 38.7451H8.07031V38.7919H26.5606V38.7451Z" fill="#FEFFFF"/>
<path d="M26.5606 38.792H8.07031V38.8388H26.5606V38.792Z" fill="#FEFFFF"/>
<path d="M26.5606 38.8389H8.07031V38.8856H26.5606V38.8389Z" fill="#FEFFFF"/>
<path d="M26.5606 38.8867H8.07031V38.9335H26.5606V38.8867Z" fill="#FEFFFF"/>
<path d="M26.5606 38.9336H8.07031V38.9804H26.5606V38.9336Z" fill="#FEFFFF"/>
<path d="M26.5606 38.9805H8.07031V39.0272H26.5606V38.9805Z" fill="#FEFFFF"/>
<path d="M26.5606 39.0264H8.07031V39.0731H26.5606V39.0264Z" fill="#FEFFFF"/>
<path d="M26.5606 39.0742H8.07031V39.121H26.5606V39.0742Z" fill="#FEFFFF"/>
<path d="M26.5606 39.1201H8.07031V39.1669H26.5606V39.1201Z" fill="#FEFFFF"/>
<path d="M26.5606 39.167H8.07031V39.2138H26.5606V39.167Z" fill="#FEFFFF"/>
<path d="M26.5606 39.2148H8.07031V39.2616H26.5606V39.2148Z" fill="#FEFFFF"/>
<path d="M26.5606 39.2617H8.07031V39.3085H26.5606V39.2617Z" fill="#FEFFFF"/>
<path d="M26.5606 39.3086H8.07031V39.3554H26.5606V39.3086Z" fill="#FEFFFF"/>
<path d="M26.5606 39.3555H8.07031V39.4022H26.5606V39.3555Z" fill="#FEFFFF"/>
<path d="M26.5606 39.4023H8.07031V39.4491H26.5606V39.4023Z" fill="#FEFFFF"/>
<path d="M26.5606 39.4492H8.07031V39.496H26.5606V39.4492Z" fill="#FEFFFF"/>
<path d="M26.5606 39.4971H8.07031V39.5438H26.5606V39.4971Z" fill="#FEFFFF"/>
<path d="M26.5606 39.5439H8.07031V39.5907H26.5606V39.5439Z" fill="#FEFFFF"/>
<path d="M26.5606 39.5908H8.07031V39.6376H26.5606V39.5908Z" fill="#FEFFFF"/>
<path d="M26.5606 39.6377H8.07031V39.6845H26.5606V39.6377Z" fill="#FEFFFF"/>
<path d="M26.5606 39.6846H8.07031V39.7313H26.5606V39.6846Z" fill="#FEFFFF"/>
<path d="M26.5606 39.7305H8.07031V39.7772H26.5606V39.7305Z" fill="#FEFFFF"/>
<path d="M26.5606 39.7793H8.07031V39.8261H26.5606V39.7793Z" fill="#FEFFFF"/>
<path d="M26.5606 39.8262H8.07031V39.8729H26.5606V39.8262Z" fill="#FEFFFF"/>
<path d="M26.5606 39.873H8.07031V39.9198H26.5606V39.873Z" fill="#FEFFFF"/>
<path d="M26.5606 39.9189H8.07031V39.9657H26.5606V39.9189Z" fill="#FEFFFF"/>
<path d="M26.5606 39.9658H8.07031V40.0126H26.5606V39.9658Z" fill="#FEFFFF"/>
<path d="M26.5606 40.0127H8.07031V40.0595H26.5606V40.0127Z" fill="#FEFFFF"/>
<path d="M26.5606 40.0605H8.07031V40.1073H26.5606V40.0605Z" fill="#FEFFFF"/>
<path d="M26.5606 40.1074H8.07031V40.1542H26.5606V40.1074Z" fill="#FEFFFF"/>
<path d="M26.5606 40.1543H8.07031V40.2011H26.5606V40.1543Z" fill="#FEFFFF"/>
<path d="M26.5606 40.2012H8.07031V40.2479H26.5606V40.2012Z" fill="#FEFFFF"/>
<path d="M26.5606 40.248H8.07031V40.2948H26.5606V40.248Z" fill="#FEFFFF"/>
<path d="M26.5606 40.2949H8.07031V40.3417H26.5606V40.2949Z" fill="#FEFFFF"/>
<path d="M26.5606 40.3428H8.07031V40.3895H26.5606V40.3428Z" fill="#FEFFFF"/>
<path d="M26.5606 40.3896H8.07031V40.4364H26.5606V40.3896Z" fill="#FEFFFF"/>
<path d="M26.5606 40.4365H8.07031V40.4833H26.5606V40.4365Z" fill="#FEFFFF"/>
<path d="M26.5606 40.4824H8.07031V40.5292H26.5606V40.4824Z" fill="#FEFFFF"/>
<path d="M26.5606 40.5303H8.07031V40.577H26.5606V40.5303Z" fill="#FEFFFF"/>
<path d="M26.5606 40.5762H8.07031V40.6229H26.5606V40.5762Z" fill="#FEFFFF"/>
<path d="M26.5606 40.625H8.07031V40.6541H26.5606V40.625Z" fill="#FEFFFF"/>
<path d="M26.5606 40.6523H8.07031V40.6814H26.5606V40.6523Z" fill="#FEFFFF"/>
<path d="M26.5606 40.6816H8.07031V40.7107H26.5606V40.6816Z" fill="#FEFFFF"/>
<path d="M26.5606 40.709H8.07031V40.7381H26.5606V40.709Z" fill="#FEFFFF"/>
<path d="M26.5606 40.7383H8.07031V40.7674H26.5606V40.7383Z" fill="#FEFFFF"/>
<path d="M26.5606 40.7676H8.07031V40.7967H26.5606V40.7676Z" fill="#FEFFFF"/>
<path d="M26.5606 40.7949H8.07031V40.824H26.5606V40.7949Z" fill="#FEFFFF"/>
<path d="M26.5606 40.8242H8.07031V40.8533H26.5606V40.8242Z" fill="#FEFFFF"/>
<path d="M26.5606 40.8535H8.07031V40.8826H26.5606V40.8535Z" fill="#FEFFFF"/>
<path d="M26.5606 40.8809H8.07031V40.9099H26.5606V40.8809Z" fill="#FEFFFF"/>
<path d="M26.5606 40.9102H8.07031V40.9392H26.5606V40.9102Z" fill="#FEFFFF"/>
<path d="M26.5606 40.9385H8.07031V40.9675H26.5606V40.9385Z" fill="#FEFFFF"/>
<path d="M26.5606 40.9668H8.07031V40.9959H26.5606V40.9668Z" fill="#FEFFFF"/>
<path d="M26.5606 40.9961H8.07031V41.0252H26.5606V40.9961Z" fill="#FEFFFF"/>
<path d="M26.5606 41.0244H8.07031V41.0535H26.5606V41.0244Z" fill="#FEFFFF"/>
<path d="M26.5606 41.0527H8.07031V41.0818H26.5606V41.0527Z" fill="#FEFFFF"/>
<path d="M26.5606 41.082H8.07031V41.1111H26.5606V41.082Z" fill="#FEFFFF"/>
<path d="M26.5606 41.1104H8.07031V41.1394H26.5606V41.1104Z" fill="#FEFFFF"/>
<path d="M26.5606 41.1387H8.07031V41.1677H26.5606V41.1387Z" fill="#FEFFFF"/>
<path d="M26.5606 41.167H8.07031V41.1961H26.5606V41.167Z" fill="#FEFFFF"/>
<path d="M26.5606 41.1963H8.07031V41.2254H26.5606V41.1963Z" fill="#FEFFFF"/>
<path d="M26.5606 41.2246H8.07031V41.2537H26.5606V41.2246Z" fill="#FEFFFF"/>
<path d="M26.5606 41.2529H8.07031V41.282H26.5606V41.2529Z" fill="#FEFFFF"/>
<path d="M26.5606 41.2822H8.07031V41.3113H26.5606V41.2822Z" fill="#FEFFFF"/>
<path d="M26.5606 41.3115H8.07031V41.3406H26.5606V41.3115Z" fill="#FEFFFF"/>
<path d="M26.5606 41.3389H8.07031V41.3679H26.5606V41.3389Z" fill="#FEFFFF"/>
<path d="M26.5606 41.3682H8.07031V41.3972H26.5606V41.3682Z" fill="#FEFFFF"/>
<path d="M26.5606 41.3955H8.07031V41.4246H26.5606V41.3955Z" fill="#FEFFFF"/>
<path d="M26.5606 41.4248H8.07031V41.4539H26.5606V41.4248Z" fill="#FEFFFF"/>
<path d="M26.5606 41.4531H8.07031V41.4822H26.5606V41.4531Z" fill="#FEFFFF"/>
<path d="M26.5606 41.4814H8.07031V41.5105H26.5606V41.4814Z" fill="#FEFFFF"/>
<path d="M26.5606 41.5107H8.07031V41.5398H26.5606V41.5107Z" fill="#FEFFFF"/>
<path d="M26.5606 41.54H8.07031V41.5691H26.5606V41.54Z" fill="#FEFFFF"/>
<path d="M26.5606 41.5674H8.07031V41.5965H26.5606V41.5674Z" fill="#FEFFFF"/>
<path d="M26.5606 41.5967H8.07031V41.6257H26.5606V41.5967Z" fill="#FEFFFF"/>
<path d="M26.5606 41.624H8.07031V41.6531H26.5606V41.624Z" fill="#FEFFFF"/>
<path d="M26.5606 41.6533H8.07031V41.6824H26.5606V41.6533Z" fill="#FEFFFF"/>
<path d="M26.5606 41.6826H8.07031V41.7117H26.5606V41.6826Z" fill="#FEFFFF"/>
<path d="M26.5606 41.71H8.07031V41.739H26.5606V41.71Z" fill="#FEFFFF"/>
<path d="M26.5606 41.7393H8.07031V41.7683H26.5606V41.7393Z" fill="#FEFFFF"/>
<path d="M26.5606 41.7686H8.07031V41.7976H26.5606V41.7686Z" fill="#FEFFFF"/>
<path d="M26.5606 41.7959H8.07031V41.825H26.5606V41.7959Z" fill="#FEFFFF"/>
<path d="M26.5606 41.8252H8.07031V41.8543H26.5606V41.8252Z" fill="#FEFFFF"/>
<path d="M26.5606 41.8535H8.07031V41.8826H26.5606V41.8535Z" fill="#FEFFFF"/>
<path d="M26.5606 41.8828H8.07031V41.9119H26.5606V41.8828Z" fill="#FEFFFF"/>
<path d="M26.5606 41.9111H8.07031V41.9402H26.5606V41.9111Z" fill="#FEFFFF"/>
<path d="M26.5606 41.9385H8.07031V41.9675H26.5606V41.9385Z" fill="#FEFFFF"/>
<path d="M26.5606 41.9688H8.07031V41.9978H26.5606V41.9688Z" fill="#FEFFFF"/>
<path d="M26.5606 41.9971H8.07031V42.0261H26.5606V41.9971Z" fill="#FEFFFF"/>
<path d="M26.5606 42.0254H8.07031V42.0545H26.5606V42.0254Z" fill="#FEFFFF"/>
<path d="M26.5606 42.0537H8.07031V42.0828H26.5606V42.0537Z" fill="#FEFFFF"/>
<path d="M26.5606 42.082H8.07031V42.1111H26.5606V42.082Z" fill="#FEFFFF"/>
<path d="M26.5606 42.1113H8.07031V42.1404H26.5606V42.1113Z" fill="#FEFFFF"/>
<path d="M26.5606 42.1396H8.07031V42.1687H26.5606V42.1396Z" fill="#FEFFFF"/>
<path d="M26.5606 42.168H8.07031V42.197H26.5606V42.168Z" fill="#FEFFFF"/>
<path d="M26.5606 42.1973H8.07031V42.2263H26.5606V42.1973Z" fill="#FEFFFF"/>
<path d="M26.5606 42.2256H8.07031V42.2547H26.5606V42.2256Z" fill="#FEFFFF"/>
<path d="M26.5606 42.2539H8.07031V42.283H26.5606V42.2539Z" fill="#FEFFFF"/>
<path d="M26.5606 42.2832H8.07031V42.3123H26.5606V42.2832Z" fill="#FEFFFF"/>
<path d="M26.5606 42.3105H8.07031V42.3396H26.5606V42.3105Z" fill="#FEFFFF"/>
<path d="M26.5606 42.3398H8.07031V42.3689H26.5606V42.3398Z" fill="#FEFFFF"/>
<path d="M26.5606 42.3691H8.07031V42.3982H26.5606V42.3691Z" fill="#FEFFFF"/>
<path d="M26.5606 42.3965H8.07031V42.4256H26.5606V42.3965Z" fill="#FEFFFF"/>
<path d="M26.5606 42.4258H8.07031V42.4549H26.5606V42.4258Z" fill="#FEFFFF"/>
<path d="M26.5606 42.4551H8.07031V42.4841H26.5606V42.4551Z" fill="#FEFFFF"/>
<path d="M26.5606 42.4824H8.07031V42.5115H26.5606V42.4824Z" fill="#FEFFFF"/>
<path d="M26.5606 42.5117H8.07031V42.5408H26.5606V42.5117Z" fill="#FEFFFF"/>
<path d="M26.5606 42.5391H8.07031V42.5681H26.5606V42.5391Z" fill="#FEFFFF"/>
<path d="M26.5606 42.5684H8.07031V42.5974H26.5606V42.5684Z" fill="#FEFFFF"/>
<path d="M26.5606 42.5977H8.07031V42.6267H26.5606V42.5977Z" fill="#FEFFFF"/>
<path d="M26.5606 42.625H8.07031V42.6541H26.5606V42.625Z" fill="#FEFFFF"/>
<path d="M26.5606 42.6543H8.07031V42.6834H26.5606V42.6543Z" fill="#FEFFFF"/>
<path d="M26.5606 42.6836H8.07031V42.7127H26.5606V42.6836Z" fill="#FEFFFF"/>
<path d="M26.5606 42.7119H8.07031V42.741H26.5606V42.7119Z" fill="#FEFFFF"/>
<path d="M26.5606 42.7402H8.07031V42.7693H26.5606V42.7402Z" fill="#FEFFFF"/>
<path d="M26.5606 42.7686H8.07031V42.7976H26.5606V42.7686Z" fill="#FEFFFF"/>
<path d="M26.5606 42.7979H8.07031V42.8269H26.5606V42.7979Z" fill="#FEFFFF"/>
<path d="M26.5606 42.8262H8.07031V42.8552H26.5606V42.8262Z" fill="#FEFFFF"/>
<path d="M26.5606 42.8545H8.07031V42.8836H26.5606V42.8545Z" fill="#FEFFFF"/>
<path d="M26.5606 42.8828H8.07031V42.9119H26.5606V42.8828Z" fill="#FEFFFF"/>
<path d="M26.5606 42.9121H8.07031V42.9412H26.5606V42.9121Z" fill="#FEFFFF"/>
<path d="M26.5606 42.9404H8.07031V42.9695H26.5606V42.9404Z" fill="#FEFFFF"/>
<path d="M26.5606 42.9697H8.07031V42.9988H26.5606V42.9697Z" fill="#FEFFFF"/>
<path d="M26.5606 42.9971H8.07031V43.0261H26.5606V42.9971Z" fill="#FEFFFF"/>
<path d="M26.5606 43.0264H8.07031V43.0554H26.5606V43.0264Z" fill="#FEFFFF"/>
<path d="M26.5606 43.0557H8.07031V43.0847H26.5606V43.0557Z" fill="#FEFFFF"/>
<path d="M26.5606 43.083H8.07031V43.1121H26.5606V43.083Z" fill="#FEFFFF"/>
<path d="M26.5606 43.1123H8.07031V43.2096H26.5606V43.1123Z" fill="#FEFFFF"/>
<path d="M26.5606 43.209H8.07031V44.291H26.5606V43.209Z" fill="#FEFFFF"/>
</g>
</g>
</g>
<defs>
<clipPath id="clip0_340_5823">
<rect width="171.763" height="44.2912" fill="white"/>
</clipPath>
</defs>
</svg>
