<svg width="85" height="82" viewBox="0 0 85 82" fill="none" xmlns="http://www.w3.org/2000/svg">
<path d="M30.1354 72.8739C25.7118 72.8739 22.1133 69.1313 22.1133 64.5314V12.4662C22.1133 11.795 22.656 11.251 23.3255 11.251H68.7385C69.4079 11.251 69.9507 11.795 69.9507 12.4662V57.4474C69.9507 58.1185 69.4079 58.6626 68.7385 58.6626H38.1571V64.5313C38.1571 69.1312 34.5586 72.8738 30.1356 72.8738L30.1354 72.8739ZM24.5376 13.6815V64.5314C24.5376 67.7913 27.0489 70.4433 30.1356 70.4433C33.2223 70.4433 35.7329 67.7911 35.7329 64.5314V57.4475C35.7329 56.7764 36.2756 56.2323 36.9451 56.2323H67.5265V13.6815H24.5376Z" fill="#ABBD4F"/>
<path d="M28.9185 40.7476H26.4941V24.6959C26.4941 24.0247 27.0368 23.4807 27.7063 23.4807C31.3487 23.4807 34.3117 20.5101 34.3117 16.8588C34.3117 16.1876 34.8543 15.6436 35.5238 15.6436H41.4816V18.0741H36.655C36.1146 22.0959 32.9304 25.2882 28.9186 25.83V40.7478L28.9185 40.7476Z" fill="#ABBD4F"/>
<path d="M52.8696 29.9766H35.4473V32.4071H52.8696V29.9766Z" fill="#ABBD4F"/>
<path d="M52.8696 35.1572H35.4473V37.5878H52.8696V35.1572Z" fill="#ABBD4F"/>
<path d="M53.3648 40.3379H40.1855V42.7685H53.3648V40.3379Z" fill="#ABBD4F"/>
<path d="M63.2399 50.5329L49.2638 54.7506V36.4078C48.0206 35.9974 46.6525 35.2851 45.6376 33.8874C44.0451 31.6926 44.3328 29.1821 44.505 27.6825C44.5222 27.5321 44.5439 27.3451 44.5606 27.1724C44.4573 27.0576 44.3467 26.9379 44.2562 26.84C43.2181 25.7157 41.4805 23.8339 41.4805 21.061C41.4805 18.2882 43.2185 16.4054 44.2568 15.281C44.3473 15.1831 44.4579 15.0634 44.5606 14.9491C44.5439 14.777 44.5222 14.5893 44.505 14.439C44.3328 12.9393 44.0451 10.4287 45.6376 8.23467C47.2378 6.02943 49.7187 5.53037 51.2006 5.23194C51.3439 5.20296 51.5216 5.16737 51.6855 5.13178C51.7665 4.99087 51.8515 4.83878 51.9204 4.71523C52.6636 3.38485 53.9072 1.1577 56.5163 0.309024C57.1458 0.104136 57.8106 0 58.4911 0C60.2069 0 61.6516 0.661586 62.706 1.14491C62.8632 1.21668 63.0632 1.30861 63.2397 1.38436C63.4164 1.30861 63.6164 1.21668 63.7735 1.14491C64.8278 0.661439 66.2726 0 67.9884 0C68.6689 0 69.3337 0.104136 69.9647 0.309613C72.5726 1.1577 73.8163 3.38485 74.5591 4.71582C74.6279 4.83893 74.7129 4.99146 74.794 5.13178C74.9578 5.16737 75.1351 5.20311 75.2783 5.23194C76.7608 5.53037 79.2416 6.02943 80.8424 8.23526C82.4349 10.4283 82.1466 12.9393 81.9745 14.4396C81.9572 14.5899 81.9361 14.777 81.9189 14.9491C82.0216 15.0632 82.1321 15.1829 82.2227 15.2805C83.2608 16.4048 84.999 18.2872 84.999 21.061C84.999 23.8349 83.2615 25.7155 82.2233 26.84C82.1327 26.9379 82.0221 27.0582 81.9189 27.173C81.9355 27.3451 81.9572 27.5327 81.9745 27.6831C82.1466 29.1827 82.4343 31.6937 80.8419 33.888C79.8276 35.2853 78.4589 35.998 77.2157 36.4084V57.2541L63.2396 50.5329H63.2399Z" fill="white"/>
<path d="M72.6676 50.0066L63.2421 45.4732L53.8164 50.0066V29.6279H72.6676V50.0066Z" fill="white"/>
<path d="M72.6673 51.2221C72.4886 51.2221 72.3092 51.1826 72.1429 51.1025L63.2418 46.8211L54.3401 51.1025C53.9643 51.2831 53.5227 51.2576 53.1699 51.0354C52.8171 50.8129 52.6035 50.4246 52.6035 50.0067V29.6283C52.6035 28.9572 53.1462 28.4131 53.8157 28.4131H72.6673C73.3367 28.4131 73.8795 28.9572 73.8795 29.6283V50.0067C73.8795 50.4244 73.6658 50.8129 73.3131 51.0354C73.1167 51.1591 72.8923 51.2221 72.6674 51.2221H72.6673ZM55.0277 30.8435V48.0758L62.7172 44.3775C63.0487 44.2179 63.4346 44.2179 63.766 44.3775L71.455 48.0758V30.8435H55.0276H55.0277Z" fill="#ABBD4F"/>
<path d="M80.4494 21.0607C80.4494 22.801 77.9919 24.1305 77.4833 25.7007C76.9562 27.3282 78.1466 29.8485 77.1632 31.2032C76.17 32.5714 73.4047 32.2101 72.0401 33.2057C70.6889 34.1915 70.1827 36.9452 68.5595 37.4737C66.9932 37.9835 64.9762 36.0708 63.2403 36.0708C61.5045 36.0708 59.4875 37.9836 57.9212 37.4737C56.298 36.9452 55.7916 34.1915 54.4404 33.2057C53.0758 32.21 50.3105 32.5712 49.3173 31.203C48.3341 29.8485 49.5244 27.3282 48.9974 25.7007C48.4888 24.1305 46.0312 22.801 46.0312 21.0607C46.0312 19.3204 48.4888 17.9909 48.9974 16.4206C49.5244 14.7931 48.3341 12.2728 49.3175 10.9183C50.3107 9.55014 53.0758 9.91138 54.4406 8.91576C55.7917 7.93 56.298 5.17629 57.9212 4.64796C59.4875 4.13802 61.5045 6.05085 63.2403 6.05085C64.9762 6.05085 66.9932 4.13802 68.5595 4.64796C70.1827 5.17644 70.6891 7.93 72.0402 8.91591C73.4048 9.91167 76.1702 9.55043 77.1634 10.9186C78.1466 12.2733 76.9562 14.7934 77.4833 16.4209C77.9919 17.9912 80.4494 19.3204 80.4494 21.0607Z" fill="white"/>
<path d="M58.4901 38.7761C58.1777 38.7761 57.8633 38.7324 57.5478 38.6297C56.1824 38.1852 55.4662 36.9026 54.8347 35.7714C54.4755 35.1279 54.1038 34.4624 53.7284 34.1882C53.3426 33.907 52.5879 33.755 51.8588 33.6085C50.5999 33.3548 49.1729 33.068 48.3384 31.9182C47.5115 30.7792 47.6766 29.3376 47.8229 28.0654C47.9088 27.3174 47.997 26.5442 47.8454 26.0766C47.7075 25.6496 47.1992 25.0994 46.7078 24.5671C45.823 23.609 44.8203 22.5232 44.8203 21.0611C44.8203 19.5989 45.8229 18.5137 46.7073 17.5556C47.1992 17.023 47.7075 16.4726 47.8454 16.0458C47.997 15.5779 47.9088 14.8047 47.8229 14.0568C47.6768 12.7845 47.5116 11.3429 48.3384 10.2039C49.1729 9.05412 50.5999 8.7673 51.8588 8.51358C52.5879 8.36708 53.3426 8.21515 53.7284 7.93348C54.1042 7.65931 54.4759 6.9939 54.8353 6.35026C55.4668 5.21904 56.1829 3.93661 57.5484 3.49226C58.8636 3.06498 60.1686 3.66171 61.3198 4.18915C62.014 4.50715 62.7314 4.83588 63.2416 4.83588C63.7518 4.83588 64.4685 4.50715 65.1622 4.18915C66.3133 3.66156 67.6196 3.06322 68.9342 3.49226C70.3002 3.93675 71.0158 5.21933 71.6478 6.3507C72.0071 6.9942 72.3788 7.65975 72.754 7.93363C73.1398 8.21515 73.8945 8.36708 74.6237 8.51402C75.8825 8.76745 77.3096 9.05456 78.1441 10.204C78.9709 11.343 78.8058 12.7849 78.6595 14.0569C78.5737 14.8048 78.4855 15.578 78.637 16.0456C78.7749 16.4729 79.2834 17.0231 79.7752 17.5557C80.6594 18.5137 81.6621 19.5993 81.6621 21.0612C81.6621 22.5231 80.6595 23.6091 79.7746 24.5673C79.2834 25.0996 78.7749 25.6499 78.637 26.0765C78.4855 26.5444 78.5737 27.3176 78.6595 28.0655C78.8057 29.3378 78.9708 30.7797 78.1441 31.9187C77.3096 33.0681 75.8825 33.3553 74.6237 33.6087C73.8939 33.7555 73.1398 33.9074 72.754 34.1886C72.3782 34.4628 72.0065 35.1285 71.6471 35.7721C71.0156 36.9034 70.3001 38.1855 68.9352 38.6298C67.6171 39.0598 66.3126 38.461 65.162 37.933C64.4684 37.6153 63.7511 37.2864 63.2414 37.2864C62.7318 37.2864 62.0139 37.6151 61.3203 37.9333C60.4448 38.3344 59.4807 38.7762 58.49 38.7762L58.4901 38.7761ZM63.2416 34.8558C64.2791 34.8558 65.2842 35.3163 66.1701 35.7224C66.9188 36.0657 67.7653 36.4543 68.1867 36.3178C68.6483 36.1674 69.1177 35.3269 69.532 34.5849C70.0185 33.713 70.5221 32.8109 71.3276 32.2231C72.1427 31.6289 73.1612 31.4239 74.1467 31.2253C74.9712 31.0594 75.9058 30.8714 76.1838 30.4883C76.4543 30.1153 76.3466 29.1736 76.2513 28.3426C76.1358 27.3366 76.0169 26.2961 76.3311 25.3252C76.6342 24.3906 77.3261 23.6408 77.9954 22.9158C78.5778 22.2852 79.2378 21.5706 79.2378 21.0609C79.2378 20.5513 78.5778 19.8367 77.996 19.2066C77.3261 18.4812 76.6342 17.7312 76.3311 16.7963C76.0168 15.8259 76.1358 14.7854 76.2513 13.7792C76.3465 12.9485 76.4543 12.0067 76.1838 11.6338C75.9056 11.2508 74.9711 11.0627 74.1467 10.8968C73.1612 10.6982 72.1425 10.4933 71.3276 9.89867C70.5227 9.31122 70.0191 8.40959 69.5326 7.53782C69.1183 6.79549 68.6483 5.95431 68.1861 5.80399C67.7659 5.66808 66.9189 6.05624 66.1707 6.39939C65.2842 6.80593 64.2797 7.2663 63.2416 7.2663C62.2035 7.2663 61.1984 6.80578 60.3118 6.39939C59.5631 6.05609 58.7161 5.66808 58.2965 5.80399C57.8342 5.95446 57.3648 6.79519 56.9506 7.53723C56.4635 8.40915 55.9605 9.31092 55.1549 9.89867C54.3399 10.4932 53.3214 10.6982 52.3359 10.8965C51.5114 11.0627 50.5768 11.2507 50.2987 11.6338C50.0283 12.0065 50.1359 12.9485 50.2313 13.7792C50.3467 14.7853 50.4656 15.8257 50.1514 16.7966C49.8484 17.7312 49.1565 18.4813 48.4865 19.2068C47.9047 19.8369 47.2448 20.5517 47.2448 21.0611C47.2448 21.5704 47.9048 22.2855 48.4871 22.9159C49.1565 23.6411 49.8484 24.3908 50.1514 25.3256C50.4658 26.2961 50.3467 27.3366 50.2313 28.3428C50.1361 29.1735 50.0283 30.1156 50.2987 30.4881C50.577 30.8711 51.5115 31.0593 52.3359 31.2255C53.3214 31.4236 54.34 31.6286 55.1549 32.2233C55.9599 32.811 56.4635 33.7124 56.95 34.5841C57.3643 35.3265 57.8342 36.1677 58.2965 36.318C58.722 36.4565 59.5648 36.0654 60.3124 35.7226C61.1984 35.3163 62.2035 34.8558 63.2416 34.8558Z" fill="#ABBD4F"/>
<path d="M63.2411 33.3924C56.4589 33.3924 50.9414 27.8609 50.9414 21.0614C50.9414 14.262 56.4587 8.73047 63.2411 8.73047C70.0234 8.73047 75.5401 14.262 75.5401 21.0614C75.5401 27.8609 70.0228 33.3924 63.2411 33.3924ZM63.2411 11.161C57.7958 11.161 53.3658 15.6023 53.3658 21.0614C53.3658 26.5206 57.796 30.9618 63.2411 30.9618C68.6861 30.9618 73.1158 26.5206 73.1158 21.0614C73.1158 15.6023 68.6863 11.161 63.2411 11.161Z" fill="#ABBD4F"/>
<path d="M63.2415 46.6884C62.5721 46.6884 62.0293 46.1443 62.0293 45.4732V41.4398C62.0293 40.7687 62.572 40.2246 63.2415 40.2246C63.911 40.2246 64.4537 40.7688 64.4537 41.4398V45.4732C64.4537 46.1443 63.911 46.6884 63.2415 46.6884Z" fill="#ABBD4F"/>
<path d="M68.8633 72.8738H30.136C29.4667 72.8738 28.9238 72.3298 28.9238 71.6586C28.9238 70.9875 29.4665 70.4434 30.136 70.4434C33.2226 70.4434 35.7334 67.7912 35.7334 64.5315V57.4476C35.7334 56.7765 36.276 56.2324 36.9455 56.2324H78.2604C78.9298 56.2324 79.4726 56.7765 79.4726 57.4476V61.8235C79.4726 67.9168 74.7134 72.874 68.8633 72.874V72.8738ZM35.7903 70.4433H68.8634C73.3764 70.4433 77.0484 66.5764 77.0484 61.8234V58.6627H38.1577V64.5314C38.1577 66.8394 37.2515 68.9314 35.7903 70.4433Z" fill="#ABBD4F"/>
<path d="M4.78864 61.2148L9.02476 52.006C9.45569 51.0343 10.4169 50.4082 11.4774 50.4082H22.1762C22.7556 50.4082 23.3196 50.5962 23.7836 50.9443L40.8239 62.9433L40.7532 62.9916C41.0989 63.1392 41.3834 63.4156 41.5321 63.778L44.4079 75.146C44.7733 76.0366 44.1203 77.014 43.1599 77.014H21.5912C21.2582 77.014 20.977 76.849 20.8037 76.6072L20.8027 76.6079L5.63353 64.4629C4.63008 63.7105 4.27931 62.3625 4.78835 61.2146L4.78864 61.2148Z" fill="white"/>
<path d="M43.1603 78.2297H21.5919C20.961 78.2297 20.3608 77.9523 19.9483 77.479L4.87751 65.4131C3.44167 64.337 2.93732 62.3982 3.68127 60.7214C3.68303 60.7164 3.68537 60.7112 3.68771 60.7062L7.92368 51.4974C8.54155 50.1035 9.93906 49.1934 11.4773 49.1934H22.1766C23.0128 49.1934 23.8415 49.4699 24.5104 49.9719L41.5207 61.9491C41.6147 62.0153 41.6977 62.0935 41.768 62.1811C42.1599 62.4686 42.4657 62.8578 42.6534 63.316C42.6754 63.3691 42.6931 63.4236 42.7072 63.4794L45.5655 74.7772C45.8472 75.5478 45.7465 76.4057 45.2884 77.0912C44.8114 77.8038 44.016 78.2296 43.1601 78.2296L43.1603 78.2297ZM21.7091 75.7992H43.1603C43.1787 75.7992 43.2337 75.7992 43.2745 75.738C43.3153 75.6768 43.2945 75.6253 43.2875 75.6082C43.2656 75.5551 43.2479 75.5006 43.2337 75.4451L40.3879 64.1971C40.3541 64.1482 40.3069 64.1221 40.2784 64.1099C40.0594 64.0162 39.8771 63.8625 39.7487 63.6715L23.0876 51.9393C22.8052 51.7284 22.4928 51.6239 22.1767 51.6239H11.4774C10.8961 51.6239 10.3682 51.9678 10.1321 52.5001L5.89309 61.7157C5.61663 62.3474 5.80782 63.0764 6.36015 63.4903L21.5167 75.6247C21.5859 75.6752 21.6505 75.7333 21.7091 75.7992Z" fill="#ABBD4F"/>
<path d="M24.5247 64.1487C24.2643 64.1487 24.002 64.065 23.7807 63.8923L12.4931 55.0802C11.9647 54.6678 11.8699 53.9041 12.2812 53.3744C12.6931 52.8451 13.4549 52.7508 13.9822 53.1624L25.2698 61.9745C25.7983 62.3869 25.8931 63.1506 25.4818 63.6802C25.2426 63.9879 24.8851 64.1487 24.5247 64.1487Z" fill="#ABBD4F"/>
<path d="M21.5664 72.7807L24.5253 62.9326H35.122L21.5664 72.7807Z" fill="white"/>
<path d="M21.5664 73.9968C21.4504 73.9968 21.3327 73.9802 21.2161 73.9449C20.5751 73.7515 20.2124 73.0736 20.4053 72.4308L23.364 62.5826C23.5185 62.069 23.9896 61.7178 24.5247 61.7178H35.1216C35.7909 61.7178 36.3338 62.2618 36.3338 62.933C36.3338 63.6041 35.7911 64.1482 35.1216 64.1482H25.4256L22.7267 73.1315C22.5687 73.6572 22.0875 73.9967 21.5666 73.9967L21.5664 73.9968Z" fill="#ABBD4F"/>
</svg>
