<svg width="73" height="70" viewBox="0 0 73 70" fill="none" xmlns="http://www.w3.org/2000/svg">
<g clip-path="url(#clip0_154_22149)">
<path d="M5.09824 33.246C2.75764 27.9177 2.74791 21.8036 5.0728 16.4715C9.69833 5.86023 22.1253 0.975822 32.776 5.5854L31.788 7.85176C22.3924 3.78511 11.4286 8.09429 7.34681 17.4559C5.29619 22.16 5.30472 27.5542 7.36985 32.2555L5.09824 33.246Z" fill="#ABBD4F"/>
<path d="M5.86593 34.9498C5.50264 34.9498 5.15281 34.7905 4.91476 34.507L0 28.651L1.90219 27.0657L5.38952 31.2212L7.33899 25.3662L9.6929 26.1443L7.04288 34.1034C6.90119 34.5287 6.53984 34.8442 6.09785 34.9281C6.02034 34.9426 5.94283 34.9498 5.86593 34.9498Z" fill="#ABBD4F"/>
<path d="M46.1472 62.7598C44.2401 62.7598 42.322 62.4992 40.4355 61.9725L41.1039 59.5933C45.8825 60.9273 50.8956 60.3269 55.2207 57.9033C59.5459 55.4798 62.665 51.5229 64.0037 46.7619C65.3919 41.8235 64.6466 36.4806 61.9586 32.1031L64.074 30.8135C67.1205 35.7749 67.9652 41.8307 66.3916 47.4285C64.8744 52.825 61.3393 57.3099 56.4365 60.057C53.2417 61.8471 49.715 62.7598 46.1472 62.7598Z" fill="#ABBD4F"/>
<path d="M62.9308 38.9235L60.4922 38.4722L62.0287 30.2278C62.111 29.7872 62.4264 29.4255 62.8527 29.2825C63.2778 29.1393 63.7494 29.2375 64.0817 29.5393L69.7509 34.6734L68.0834 36.5018L64.0603 32.8589L62.9306 38.9235H62.9308Z" fill="#ABBD4F"/>
<path d="M34.4702 64.4272C26.8282 71.9337 14.4821 71.8459 6.94875 64.2322C-0.585052 56.6179 -0.496922 44.3165 7.14491 36.8101C14.7866 29.3039 27.1327 29.3916 34.6665 37.0058C42.1998 44.6197 42.1117 56.9212 34.47 64.4274L34.4702 64.4272Z" fill="white"/>
<path d="M32.8899 38.7513C39.4678 45.3994 39.3912 56.1019 32.7189 62.6559C26.0466 69.2099 15.3053 69.1336 8.72746 62.4854C2.14962 55.8373 2.22622 45.1349 8.89849 38.5809C15.5707 32.0269 26.3121 32.1031 32.8899 38.7513Z" fill="white"/>
<path d="M20.811 68.7575C20.7668 68.7575 20.7219 68.7575 20.6778 68.7572C15.815 68.7225 11.2568 66.8034 7.84336 63.3531C0.796143 56.23 0.878587 44.7229 8.02681 37.7012C15.1758 30.6795 26.7255 30.7622 33.7714 37.8839C37.1854 41.3341 39.0465 45.9028 39.012 50.7476C38.9769 55.5928 37.0511 60.1342 33.588 63.5356C30.157 66.906 25.6241 68.7572 20.811 68.7572V68.7575ZM20.8068 34.958C16.817 34.958 12.8266 36.4564 9.768 39.4608C3.59325 45.5257 3.52172 55.4656 9.6088 61.6181C12.5578 64.5988 16.495 66.2564 20.6955 66.2863C24.9056 66.3156 28.8561 64.7147 31.8469 61.7762C34.8384 58.8381 36.5021 54.9152 36.5323 50.7303C36.5619 46.545 34.9545 42.5989 32.0061 39.6189C28.9342 36.514 24.8711 34.958 20.8069 34.958H20.8068Z" fill="#ABBD4F"/>
<path d="M29.987 59.8964C24.8441 64.9482 16.5648 64.8894 11.4948 59.7651C6.4247 54.6409 6.48365 46.3916 11.6266 41.3398L29.987 59.8964Z" fill="white"/>
<path d="M20.8088 64.876C17.1084 64.876 13.4098 63.4596 10.6127 60.6328C5.07057 55.0314 5.13536 45.982 10.7568 40.4603C11.2447 39.981 12.0306 39.9867 12.5101 40.4727C12.9915 40.9586 12.9853 41.7409 12.498 42.2199C7.85017 46.7852 7.7963 54.2669 12.3781 58.8978C16.9606 63.5286 24.4697 63.582 29.1171 59.0167C29.6044 58.5381 30.3902 58.5432 30.8704 59.0291C31.3511 59.5151 31.3456 60.2974 30.8583 60.7763C28.0739 63.5114 24.4401 64.8759 20.8088 64.8759V64.876Z" fill="#ABBD4F"/>
<path d="M21.7636 58.3573H18.6493C16.8493 58.3573 15.3848 57.0754 15.3848 55.4997V53.5892H17.8647V55.4997C17.8647 55.6118 18.1395 55.8864 18.6493 55.8864H21.7636C22.2734 55.8864 22.5482 55.6118 22.5482 55.4997V54.0823C22.5482 53.2662 21.8683 52.5155 20.8168 52.1698L19.2783 51.6639C17.1913 50.978 15.8431 49.3062 15.8431 47.4048V45.7372C15.8431 44.1618 17.3076 42.8799 19.1082 42.8799H21.7636C23.5636 42.8799 25.0281 44.1618 25.0281 45.7372V47.5228H22.5482V45.7372C22.5482 45.625 22.2734 45.3508 21.7636 45.3508H19.1082C18.6197 45.3508 18.323 45.6192 18.323 45.7372V47.4048C18.323 48.2084 19.0192 48.9769 20.055 49.3174L21.5935 49.8233C23.6797 50.5088 25.0281 52.1807 25.0281 54.0825V55.4999C25.0281 57.0756 23.5636 58.3573 21.7636 58.3573Z" fill="#ABBD4F"/>
<path d="M21.7592 40.9736H19.2793V44.1159H21.7592V40.9736Z" fill="#ABBD4F"/>
<path d="M21.7592 57.1221H19.2793V60.2644H21.7592V57.1221Z" fill="#ABBD4F"/>
<path d="M71.5093 12.6596L67.0032 2.92439C66.5449 1.8973 65.5225 1.23535 64.3943 1.23535H53.0138C52.3974 1.23535 51.7975 1.43407 51.3039 1.8022L33.1778 14.4869L33.2529 14.5379C32.8851 14.694 32.5826 14.9862 32.4243 15.3694L29.3653 27.3871C28.9766 28.3287 29.6711 29.3619 30.6929 29.3619H53.636C53.9903 29.3619 54.2892 29.1875 54.4737 28.9318L54.4748 28.9326L70.6105 16.0934C71.6778 15.2981 72.051 13.873 71.5095 12.6596H71.5093Z" fill="white"/>
<path d="M53.6364 30.5974H30.6937C29.7995 30.5974 28.9688 30.1556 28.4711 29.4154C27.9922 28.7034 27.8868 27.8118 28.1824 27.0112L31.2229 15.0659C31.2374 15.0089 31.2555 14.9532 31.2786 14.8987C31.4759 14.421 31.7975 14.0156 32.2091 13.717C32.2818 13.626 32.3677 13.5445 32.4658 13.476L50.5917 0.79114C51.2642 0.288585 52.1355 0 53.0139 0H64.3948C66.0113 0 67.4801 0.950983 68.1363 2.42262L72.6359 12.1422C72.6383 12.1473 72.6407 12.1526 72.6424 12.1576C73.4241 13.9095 72.8937 15.9348 71.3536 17.0827L55.3545 29.8135C54.9241 30.3075 54.2956 30.5974 53.6364 30.5974ZM33.5961 15.7925L30.5677 27.6907C30.5532 27.7473 30.5349 27.8028 30.5126 27.8569C30.486 27.9212 30.4927 27.9827 30.5307 28.0403C30.5695 28.0975 30.624 28.1265 30.6935 28.1265H53.5339C53.5842 28.0684 53.6398 28.0147 53.7004 27.9664L69.837 15.128C70.4739 14.6529 70.6834 13.8576 70.3795 13.168L65.8776 3.44163C65.6118 2.84592 65.0323 2.47076 64.3949 2.47076H53.0141C52.6677 2.47076 52.3245 2.58455 52.0472 2.79105L34.2863 15.2211C34.155 15.4189 33.9667 15.5782 33.7396 15.6745C33.7021 15.6905 33.6397 15.7252 33.5961 15.7925Z" fill="#ABBD4F"/>
<path d="M50.5161 15.7107C50.1468 15.7107 49.7817 15.5473 49.5371 15.2342C49.1164 14.696 49.2132 13.9197 49.7539 13.5004L61.7614 4.18468C62.3014 3.76541 63.08 3.8617 63.5014 4.40059C63.9221 4.93874 63.8253 5.71507 63.2846 6.13434L51.2771 15.4501C51.0507 15.6256 50.7824 15.7107 50.5161 15.7107Z" fill="#ABBD4F"/>
<path d="M53.6643 24.8865L50.517 14.4756H40.4551L53.6643 24.8865Z" fill="white"/>
<path d="M53.6635 26.1223C53.1306 26.1223 52.6385 25.7775 52.4768 25.2428L49.595 15.711H40.4548C39.7701 15.711 39.2148 15.1579 39.2148 14.4756C39.2148 13.7933 39.77 13.2402 40.4548 13.2402H50.5164C51.0637 13.2402 51.5457 13.5973 51.7037 14.1194L54.8513 24.5305C55.0487 25.1837 54.6776 25.8726 54.022 26.0697C53.9027 26.1056 53.7823 26.1225 53.6636 26.1225L53.6635 26.1223Z" fill="#ABBD4F"/>
</g>
<defs>
<clipPath id="clip0_154_22149">
<rect width="73" height="70" fill="white"/>
</clipPath>
</defs>
</svg>
