<svg width="77" height="74" viewBox="0 0 77 74" fill="none" xmlns="http://www.w3.org/2000/svg">
<g clip-path="url(#clip0_154_22108)">
<path d="M23.114 10.5766L21.2188 8.71069L24.3556 5.62207L26.2508 7.48786L23.114 10.5766Z" fill="#ABBD4F"/>
<path d="M16.7448 16.8462L14.8496 14.9804L17.987 11.8916L19.8822 13.7575L16.7448 16.8462Z" fill="#ABBD4F"/>
<path d="M24.3556 16.8462L21.2188 13.7575L23.114 11.8916L26.2508 14.9804L24.3556 16.8462Z" fill="#ABBD4F"/>
<path d="M17.987 10.5766L14.8496 7.48786L16.7448 5.62207L19.8822 8.71069L17.987 10.5766Z" fill="#ABBD4F"/>
<path d="M12.4616 67.7311L10.5664 65.8651L13.7038 62.7764L15.599 64.6423L12.4616 67.7311Z" fill="#ABBD4F"/>
<path d="M6.09249 74.0005L4.19727 72.1345L7.33414 69.0459L9.22936 70.9117L6.09249 74.0005Z" fill="#ABBD4F"/>
<path d="M13.7038 74.0005L10.5664 70.9117L12.4616 69.0459L15.599 72.1345L13.7038 74.0005Z" fill="#ABBD4F"/>
<path d="M7.33414 67.7311L4.19727 64.6423L6.09249 62.7764L9.22936 65.8651L7.33414 67.7311Z" fill="#ABBD4F"/>
<path d="M73.3701 72.2484H33.047C32.1624 72.2484 31.3295 71.8592 30.7702 71.196L2.3048 48.8634C0.151773 47.2795 -0.600462 44.4407 0.508401 41.9853L7.56899 26.9141C8.49234 24.8679 10.5762 23.5352 12.8689 23.5352H32.117C33.3624 23.5352 34.5979 23.9395 35.5953 24.6737L64.4335 44.1102C66.3313 45.4211 67.8104 47.2089 68.7229 49.2893L76.6776 67.3507C77.1435 68.4649 77.0175 69.702 76.35 70.6827C75.6829 71.6633 74.569 72.2484 73.3701 72.2484ZM32.8406 69.5193C32.8815 69.5653 32.9469 69.6095 33.0471 69.6095H73.3702C73.8071 69.6095 74.0424 69.3328 74.1234 69.2139C74.2043 69.0948 74.3748 68.7752 74.2085 68.3773L66.263 50.3371C65.5461 48.7035 64.3858 47.3009 62.9069 46.2791L34.036 26.8194C33.4533 26.3919 32.788 26.1742 32.1171 26.1742H12.8691C11.6342 26.1742 10.5124 26.8919 10.0109 28.0026L2.95029 43.0738C2.36093 44.3798 2.76575 45.9083 3.94303 46.7748L30.5371 67.6385L37.4701 49.6686C38.2038 47.7664 40.0852 46.4885 42.1522 46.4885H57.8998C58.6399 46.4885 59.2401 47.0792 59.2401 47.8079C59.2401 48.5367 58.6401 49.1274 57.8998 49.1274H42.1522C41.1915 49.1274 40.3168 49.7215 39.9759 50.6054L32.7871 69.2382C32.7491 69.3364 32.773 69.4163 32.805 69.4707C32.8175 69.4869 32.8293 69.503 32.8406 69.5191V69.5193Z" fill="#ABBD4F"/>
<path d="M40.85 61.4055C40.692 61.4055 40.5309 61.3779 40.3742 61.3191C39.6825 61.0604 39.3347 60.2983 39.5974 59.6169L41.4654 54.776C42.075 53.1953 43.6395 52.1328 45.3576 52.1328H52.1556C52.8957 52.1328 53.4959 52.7235 53.4959 53.4523C53.4959 54.181 52.8958 54.7717 52.1556 54.7717H45.3576C44.7455 54.7717 44.1884 55.1499 43.9712 55.713L42.1032 60.5542C41.8997 61.0812 41.3906 61.4052 40.8499 61.4052L40.85 61.4055Z" fill="#ABBD4F"/>
<path d="M39.8419 49.9451C39.5624 49.9451 39.281 49.8597 39.0402 49.6823L14.9947 31.9797C14.4018 31.5436 14.2808 30.7167 14.7241 30.1329C15.1678 29.5489 16.0078 29.4301 16.6001 29.8666L40.6456 47.5691C41.2385 48.0052 41.3595 48.8322 40.9162 49.4159C40.653 49.7624 40.25 49.9451 39.8419 49.9451Z" fill="#ABBD4F"/>
<path d="M55.3614 29.6549C55.3438 29.6549 55.3262 29.6546 55.308 29.654C54.6115 29.6267 54.0522 29.0799 54.0218 28.3947C54.0192 28.3451 53.8228 25.1713 51.121 21.6052C48.7314 18.4514 46.3629 17.9643 46.2631 17.945C45.6328 17.8238 45.1706 17.2778 45.1719 16.6459C45.1735 16.0134 45.6218 15.4697 46.2523 15.3512C46.3479 15.3312 48.9057 14.7684 51.2957 11.5709C53.7583 8.27656 54.3215 4.27174 54.327 4.2315C54.4172 3.56075 55.0145 3.07111 55.6961 3.08628C56.3836 3.10688 56.9434 3.63613 56.9925 4.31135C56.9951 4.3484 57.3178 8.29429 59.5252 11.2916C61.6822 14.2202 64.7203 14.7911 64.7508 14.7962C65.3438 14.9019 65.7921 15.3837 65.8469 15.9746C65.9019 16.565 65.5498 17.1192 64.9863 17.3289C64.9595 17.3393 61.8509 18.5469 59.4862 21.7101C57.156 24.8272 56.6964 28.4535 56.6917 28.4896C56.6115 29.1557 56.0373 29.6551 55.3613 29.6551L55.3614 29.6549ZM49.7108 16.6532C50.794 17.3544 52.0515 18.4195 53.2697 20.0274C54.2023 21.2583 54.8819 22.4521 55.3766 23.532C55.8507 22.4441 56.4845 21.2732 57.3275 20.1455C58.6387 18.3915 60.1288 17.146 61.3719 16.3062C60.0951 15.623 58.6055 14.538 57.3553 12.8402C56.5605 11.7609 55.9708 10.601 55.5343 9.49891C55.0252 10.677 54.3481 11.9398 53.4549 13.135C52.1941 14.8214 50.8567 15.9307 49.7108 16.6532Z" fill="#ABBD4F"/>
<mask id="mask0_154_22108" style="mask-type:luminance" maskUnits="userSpaceOnUse" x="45" y="3" width="21" height="27">
<path d="M55.3614 29.6549C55.3438 29.6549 55.3262 29.6546 55.308 29.654C54.6115 29.6267 54.0522 29.0799 54.0218 28.3947C54.0192 28.3451 53.8228 25.1713 51.121 21.6052C48.7314 18.4514 46.3629 17.9643 46.2631 17.945C45.6328 17.8238 45.1706 17.2778 45.1719 16.6459C45.1735 16.0134 45.6218 15.4697 46.2523 15.3512C46.3479 15.3312 48.9057 14.7684 51.2957 11.5709C53.7583 8.27656 54.3215 4.27174 54.327 4.2315C54.4172 3.56075 55.0145 3.07111 55.6961 3.08628C56.3836 3.10688 56.9434 3.63613 56.9925 4.31135C56.9951 4.3484 57.3178 8.29429 59.5252 11.2916C61.6822 14.2202 64.7203 14.7911 64.7508 14.7962C65.3438 14.9019 65.7921 15.3837 65.8469 15.9746C65.9019 16.565 65.5498 17.1192 64.9863 17.3289C64.9595 17.3393 61.8509 18.5469 59.4862 21.7101C57.156 24.8272 56.6964 28.4535 56.6917 28.4896C56.6115 29.1557 56.0373 29.6551 55.3613 29.6551L55.3614 29.6549ZM49.7108 16.6532C50.794 17.3544 52.0515 18.4195 53.2697 20.0274C54.2023 21.2583 54.8819 22.4521 55.3766 23.532C55.8507 22.4441 56.4845 21.2732 57.3275 20.1455C58.6387 18.3915 60.1288 17.146 61.3719 16.3062C60.0951 15.623 58.6055 14.538 57.3553 12.8402C56.5605 11.7609 55.9708 10.601 55.5343 9.49891C55.0252 10.677 54.3481 11.9398 53.4549 13.135C52.1941 14.8214 50.8567 15.9307 49.7108 16.6532Z" fill="white"/>
</mask>
<g mask="url(#mask0_154_22108)">
<path d="M58.8312 32.996C58.7346 32.996 58.6374 32.9856 58.5417 32.9647L56.767 32.5781L53.2916 32.3899L51.6474 32.3471C50.9556 32.3288 50.3918 31.7954 50.346 31.1155L50.1951 28.8837V28.884C50.1932 28.884 49.9773 27.2961 48.4118 25.2302C46.9937 23.3585 45.7162 23.0048 45.6626 22.9907L44.0982 22.6848C43.4758 22.5623 43.0259 22.0269 43.0204 21.402L42.9375 11.9332C42.9321 11.3008 43.3831 10.7535 44.0131 10.6285L45.5857 10.3162C45.8173 10.2444 47.2404 9.74531 48.5679 7.96943C50.0992 5.92095 50.5505 3.27007 50.555 3.24356L50.8728 1.12577C50.9739 0.453424 51.5773 -0.0226446 52.2671 0.000831418L59.3549 0.374212C60.0133 0.414138 60.5443 0.92023 60.6066 1.56718L60.8128 3.71564C60.8144 3.73304 61.0693 6.08017 62.2754 7.71726C63.3778 9.21462 65.1245 9.69197 65.3194 9.74131L66.8245 10.0222C67.4312 10.1353 67.8808 10.6417 67.9135 11.2486L68.3974 20.3533C68.4259 20.9154 68.0888 21.4332 67.5585 21.6432L66.0788 22.2285C66.0631 22.2349 63.8164 23.1695 62.216 25.3104C60.8927 27.0805 60.5092 29.2055 60.4788 29.3861L60.1608 31.8431C60.1134 32.2108 59.9105 32.5418 59.6027 32.7555C59.375 32.913 59.1053 32.9958 58.8314 32.9958L58.8312 32.996ZM52.939 29.7415L53.4011 29.7534L57.0233 29.9492C57.0959 29.9531 57.1682 29.9631 57.2392 29.9786L57.6872 30.0762L57.8225 29.0318C57.8237 29.0207 57.8254 29.0096 57.827 28.9985C57.8728 28.705 58.324 26.0645 60.057 23.7463C62.1623 20.9298 65.0605 19.7871 65.0896 19.7758L65.6726 19.5452L65.2924 12.4222L64.7862 12.3278C64.438 12.2496 61.8199 11.5959 60.105 9.26652C58.4608 7.0347 58.1561 4.09061 58.144 3.96621L58.0455 2.93853L57.5587 2.90883L53.3464 2.69754L53.2038 3.6476C53.1452 4.00262 52.605 7.02177 50.7268 9.53354C48.7814 12.1365 46.511 12.8045 46.2583 12.8719C46.2295 12.8796 46.2004 12.8865 46.1713 12.8922L45.6275 13.0002L45.6913 20.3068L46.2455 20.4157C46.662 20.512 48.6058 21.0732 50.5602 23.6527C52.5693 26.3039 52.8411 28.4276 52.8654 28.6611L52.939 29.7415Z" fill="#ABBD4F"/>
<path d="M57.2586 30.0643C57.1633 30.0643 57.0676 30.0544 56.9726 30.0336L56.9641 30.032L53.3709 29.8372C52.6945 29.8004 52.1524 29.2728 52.1073 28.6076C52.1057 28.587 51.9048 26.2389 49.7678 23.4175C47.8703 20.9132 46.0666 20.4905 45.9907 20.4737C45.3831 20.3394 44.9306 19.8065 44.9251 19.1936L44.8809 14.1314C44.8754 13.4958 45.3312 12.9466 45.965 12.825C46.0082 12.8134 48.0406 12.3028 49.9335 9.77011C51.9033 7.13472 52.4185 3.89551 52.4393 3.75896C52.542 3.0879 53.1432 2.60113 53.833 2.63658L57.6385 2.82727C58.3082 2.8608 58.8499 3.37648 58.9062 4.03461C58.9088 4.06399 59.2052 7.20068 60.9018 9.50357C62.5389 11.7271 65.0137 12.2637 65.0386 12.2688C65.6321 12.3926 66.0758 12.895 66.108 13.4916L66.3773 18.4823C66.408 19.0502 66.0654 19.5737 65.5275 19.7808C65.5057 19.7894 62.8293 20.8661 60.8528 23.5097C59.0078 25.979 58.5937 28.8885 58.5898 28.9175C58.5398 29.2835 58.3365 29.6133 58.0292 29.8246C57.8018 29.9814 57.5322 30.0639 57.2591 30.0639L57.2586 30.0643ZM54.5841 27.2599L56.1829 27.3466C56.5126 26.0412 57.2309 23.9025 58.6933 21.9459C60.3951 19.6697 62.4841 18.3544 63.6527 17.7432L63.4806 14.5549C62.2774 14.1204 60.2607 13.1304 58.7313 11.0528C57.2909 9.09777 56.665 6.77124 56.4051 5.40788L54.8447 5.32962C54.4919 6.74936 53.703 9.17921 52.0921 11.3341C50.4655 13.5101 48.6806 14.56 47.5693 15.0417L47.5971 18.248C48.6452 18.7063 50.3021 19.7093 51.9159 21.8395C53.5995 24.0617 54.2967 26.0545 54.5841 27.2599Z" fill="#ABBD4F"/>
<path d="M57.2586 30.0643C57.1633 30.0643 57.0676 30.0544 56.9726 30.0336L56.9641 30.032L53.3709 29.8372C52.6945 29.8004 52.1524 29.2728 52.1073 28.6076C52.1057 28.587 51.9048 26.2389 49.7678 23.4175C47.8703 20.9132 46.0666 20.4905 45.9907 20.4737C45.3831 20.3394 44.9306 19.8065 44.9251 19.1936L44.8809 14.1314C44.8754 13.4958 45.3312 12.9466 45.965 12.825C46.0082 12.8134 48.0406 12.3028 49.9335 9.77011C51.9033 7.13472 52.4185 3.89551 52.4393 3.75896C52.542 3.0879 53.1432 2.60113 53.833 2.63658L57.6385 2.82727C58.3082 2.8608 58.8499 3.37648 58.9062 4.03461C58.9088 4.06399 59.2052 7.20068 60.9018 9.50357C62.5389 11.7271 65.0137 12.2637 65.0386 12.2688C65.6321 12.3926 66.0758 12.895 66.108 13.4916L66.3773 18.4823C66.408 19.0502 66.0654 19.5737 65.5275 19.7808C65.5057 19.7894 62.8293 20.8661 60.8528 23.5097C59.0078 25.979 58.5937 28.8885 58.5898 28.9175C58.5398 29.2835 58.3365 29.6133 58.0292 29.8246C57.8018 29.9814 57.5322 30.0639 57.2591 30.0639L57.2586 30.0643ZM54.5841 27.2599L56.1829 27.3466C56.5126 26.0412 57.2309 23.9025 58.6933 21.9459C60.3951 19.6697 62.4841 18.3544 63.6527 17.7432L63.4806 14.5549C62.2774 14.1204 60.2607 13.1304 58.7313 11.0528C57.2909 9.09777 56.665 6.77124 56.4051 5.40788L54.8447 5.32962C54.4919 6.74936 53.703 9.17921 52.0921 11.3341C50.4655 13.5101 48.6806 14.56 47.5693 15.0417L47.5971 18.248C48.6452 18.7063 50.3021 19.7093 51.9159 21.8395C53.5995 24.0617 54.2967 26.0545 54.5841 27.2599Z" fill="#ABBD4F"/>
</g>
<path d="M67.6117 42.1762C67.5938 42.1762 67.5753 42.1758 67.5571 42.1749C66.8618 42.1473 66.3038 41.6025 66.2721 40.9188C66.2685 40.8596 66.1196 38.7972 64.3589 36.4729C62.8273 34.4514 61.3315 34.1248 61.2686 34.1119C60.643 33.9833 60.1838 33.4357 60.1895 32.8065C60.1947 32.1776 60.6378 31.6375 61.2654 31.5192C61.3154 31.5078 62.9406 31.1335 64.4773 29.078C66.0934 26.9161 66.4818 24.2416 66.4857 24.2149C66.5794 23.5458 67.1804 23.0488 67.8574 23.0742C68.5437 23.0961 69.1018 23.6234 69.1508 24.2973C69.1524 24.3202 69.3696 26.9257 70.8151 28.8886C72.1746 30.7349 74.0765 31.1229 74.1569 31.1384C74.7438 31.2528 75.1883 31.7373 75.2379 32.3242C75.2877 32.9114 74.9415 33.4608 74.3819 33.6692C74.3678 33.6746 72.3338 34.4724 70.7861 36.5427C69.2535 38.5931 68.9449 40.9886 68.942 41.0124C68.8605 41.6777 68.2867 42.176 67.6116 42.176L67.6117 42.1762ZM64.4606 32.8247C65.1108 33.3147 65.8166 33.9835 66.5074 34.8951C66.9517 35.4813 67.315 36.0567 67.6124 36.605C67.8912 36.0666 68.2259 35.5155 68.6274 34.9784C69.3832 33.9675 70.2249 33.1925 70.9899 32.6152C70.2079 32.1214 69.3695 31.4213 68.6451 30.4375C68.2783 29.9394 67.9723 29.4173 67.7182 28.898C67.4201 29.4791 67.0631 30.0716 66.6363 30.6424C65.9119 31.6118 65.1556 32.3153 64.4606 32.8246V32.8247Z" fill="#ABBD4F"/>
<mask id="mask1_154_22108" style="mask-type:luminance" maskUnits="userSpaceOnUse" x="60" y="23" width="16" height="20">
<path d="M67.6117 42.1762C67.5938 42.1762 67.5753 42.1758 67.5571 42.1749C66.8618 42.1473 66.3038 41.6025 66.2721 40.9188C66.2685 40.8596 66.1196 38.7972 64.3589 36.4729C62.8273 34.4514 61.3315 34.1248 61.2686 34.1119C60.643 33.9833 60.1838 33.4357 60.1895 32.8065C60.1947 32.1776 60.6378 31.6375 61.2654 31.5192C61.3154 31.5078 62.9406 31.1335 64.4773 29.078C66.0934 26.9161 66.4818 24.2416 66.4857 24.2149C66.5794 23.5458 67.1804 23.0488 67.8574 23.0742C68.5437 23.0961 69.1018 23.6234 69.1508 24.2973C69.1524 24.3202 69.3696 26.9257 70.8151 28.8886C72.1746 30.7349 74.0765 31.1229 74.1569 31.1384C74.7438 31.2528 75.1883 31.7373 75.2379 32.3242C75.2877 32.9114 74.9415 33.4608 74.3819 33.6692C74.3678 33.6746 72.3338 34.4724 70.7861 36.5427C69.2535 38.5931 68.9449 40.9886 68.942 41.0124C68.8605 41.6777 68.2867 42.176 67.6116 42.176L67.6117 42.1762ZM64.4606 32.8247C65.1108 33.3147 65.8166 33.9835 66.5074 34.8951C66.9517 35.4813 67.315 36.0567 67.6124 36.605C67.8912 36.0666 68.2259 35.5155 68.6274 34.9784C69.3832 33.9675 70.2249 33.1925 70.9899 32.6152C70.2079 32.1214 69.3695 31.4213 68.6451 30.4375C68.2783 29.9394 67.9723 29.4173 67.7182 28.898C67.4201 29.4791 67.0631 30.0716 66.6363 30.6424C65.9119 31.6118 65.1556 32.3153 64.4606 32.8246V32.8247Z" fill="white"/>
</mask>
<g mask="url(#mask1_154_22108)">
<path d="M69.9985 44.476C69.9019 44.476 69.8047 44.4658 69.709 44.4447L68.5215 44.186L65.0442 44.0295C64.3524 44.0111 63.7886 43.4774 63.7428 42.7979L63.6392 41.2628V41.2635C63.6362 41.2635 63.4805 40.269 62.4942 38.967C61.6857 37.9 60.9691 37.6239 60.8444 37.5824L59.7793 37.3733C59.157 37.251 58.707 36.7155 58.7015 36.0906L58.6446 29.5749C58.6391 28.9422 59.0905 28.3949 59.7205 28.27L60.7784 28.0607C60.9403 28.0065 61.7928 27.6809 62.6 26.6007C63.5905 25.2756 63.8879 23.5461 63.8908 23.529L64.109 22.0748C64.2104 21.4024 64.821 20.9254 65.503 20.9501L70.385 21.2076C71.0434 21.2478 71.5741 21.7539 71.6362 22.4005L71.7779 23.8786C71.7785 23.8843 71.9448 25.3953 72.7069 26.4293C73.4082 27.3819 74.5586 27.6632 74.5701 27.666L75.5763 27.8526C76.1829 27.9656 76.6326 28.4721 76.6652 29.0789L76.9984 35.3449C77.0265 35.9068 76.6898 36.4248 76.1598 36.6345L75.1418 37.0376C75.1354 37.0405 73.6906 37.6474 72.6645 39.0205C71.8186 40.1521 71.5691 41.5084 71.5464 41.6399L71.3283 43.3238C71.2805 43.6917 71.0779 44.0228 70.7701 44.2361C70.5424 44.3939 70.2728 44.4765 69.9989 44.4765L69.9985 44.476ZM66.3359 41.4252L68.7777 41.557C68.8032 41.5583 68.8285 41.5605 68.8539 41.5634L68.8898 41.2847C68.8911 41.2745 68.8923 41.2641 68.894 41.2537C68.9266 41.0421 69.2487 39.1369 70.5052 37.4556C72.047 35.3929 74.1425 34.5881 74.1635 34.5801L74.2738 34.5367L74.0182 30.2473C73.7483 30.1871 71.8076 29.7045 70.5367 27.9781C69.3738 26.3999 69.1337 24.3636 69.11 24.1368L69.0749 23.7714L66.5823 23.6464L66.5397 23.9305C66.524 24.0306 66.1627 26.2864 64.7587 28.1642C63.3684 30.0245 61.7659 30.5312 61.4591 30.6141C61.4297 30.6221 61.3999 30.629 61.3698 30.635L61.3346 30.6418L61.3726 34.9949L61.4206 35.0043C61.7334 35.0739 63.1971 35.481 64.6427 37.3888C66.0642 39.265 66.2808 40.7598 66.3099 41.0404L66.3361 41.4249L66.3359 41.4252Z" fill="#ABBD4F"/>
<path d="M68.9134 42.4591C68.8273 42.4591 68.7413 42.4508 68.6556 42.4344L66.2176 42.3023C65.5415 42.2656 64.9997 41.7386 64.9539 41.0737C64.9533 41.0646 64.8126 39.5507 63.4261 37.7202C62.2298 36.1414 61.1149 35.8608 61.0682 35.8494C60.4711 35.707 60.0163 35.1761 60.0109 34.5712L59.9805 31.0881C59.975 30.4586 60.4222 29.9129 61.0485 29.7846C61.0667 29.7792 62.3386 29.4448 63.5382 27.8395C64.8347 26.1054 65.1821 23.9107 65.1853 23.8886C65.2877 23.2182 65.8807 22.7377 66.5797 22.7637L69.198 22.8951C69.8684 22.929 70.4104 23.4459 70.4654 24.1047C70.467 24.1202 70.6646 26.1709 71.7606 27.6584C72.7858 29.0507 74.3411 29.3974 74.3564 29.4006C74.9468 29.5269 75.3898 30.0288 75.4218 30.6224L75.607 34.0565C75.638 34.6288 75.29 35.1554 74.7457 35.3595C74.7454 35.3598 73.0079 36.0657 71.7252 37.7813C70.5233 39.3892 70.2477 41.2946 70.2451 41.3136C70.1943 41.6798 69.9896 42.0104 69.6813 42.221C69.4539 42.3766 69.1856 42.4588 68.9134 42.4588V42.4591ZM67.4026 39.7236L67.8587 39.7481C68.127 38.8068 68.6365 37.4611 69.5661 36.2174C70.6832 34.7232 72.0169 33.8126 72.8835 33.331L72.7936 31.6597C71.8997 31.2967 70.5954 30.5728 69.5904 29.2078C68.6588 27.9438 68.2014 26.4728 67.9827 25.477L67.5714 25.4564C67.2845 26.4889 66.7236 28.0303 65.6971 29.4039C64.6401 30.8181 63.4842 31.5774 62.6687 31.9724L62.6835 33.6575C63.4551 34.0383 64.5336 34.7683 65.5745 36.1423C66.6405 37.5495 67.1553 38.84 67.4026 39.7236Z" fill="#ABBD4F"/>
<path d="M68.9134 42.4591C68.8273 42.4591 68.7413 42.4508 68.6556 42.4344L66.2176 42.3023C65.5415 42.2656 64.9997 41.7386 64.9539 41.0737C64.9533 41.0646 64.8126 39.5507 63.4261 37.7202C62.2298 36.1414 61.1149 35.8608 61.0682 35.8494C60.4711 35.707 60.0163 35.1761 60.0109 34.5712L59.9805 31.0881C59.975 30.4586 60.4222 29.9129 61.0485 29.7846C61.0667 29.7792 62.3386 29.4448 63.5382 27.8395C64.8347 26.1054 65.1821 23.9107 65.1853 23.8886C65.2877 23.2182 65.8807 22.7377 66.5797 22.7637L69.198 22.8951C69.8684 22.929 70.4104 23.4459 70.4654 24.1047C70.467 24.1202 70.6646 26.1709 71.7606 27.6584C72.7858 29.0507 74.3411 29.3974 74.3564 29.4006C74.9468 29.5269 75.3898 30.0288 75.4218 30.6224L75.607 34.0565C75.638 34.6288 75.29 35.1554 74.7457 35.3595C74.7454 35.3598 73.0079 36.0657 71.7252 37.7813C70.5233 39.3892 70.2477 41.2946 70.2451 41.3136C70.1943 41.6798 69.9896 42.0104 69.6813 42.221C69.4539 42.3766 69.1856 42.4588 68.9134 42.4588V42.4591ZM67.4026 39.7236L67.8587 39.7481C68.127 38.8068 68.6365 37.4611 69.5661 36.2174C70.6832 34.7232 72.0169 33.8126 72.8835 33.331L72.7936 31.6597C71.8997 31.2967 70.5954 30.5728 69.5904 29.2078C68.6588 27.9438 68.2014 26.4728 67.9827 25.477L67.5714 25.4564C67.2845 26.4889 66.7236 28.0303 65.6971 29.4039C64.6401 30.8181 63.4842 31.5774 62.6687 31.9724L62.6835 33.6575C63.4551 34.0383 64.5336 34.7683 65.5745 36.1423C66.6405 37.5495 67.1553 38.84 67.4026 39.7236Z" fill="#ABBD4F"/>
</g>
<path d="M5.94262 43.3542L9.79016 34.4262C10.4335 32.9331 12.332 32.4428 13.6333 33.4336L33.9704 48.9177C34.8622 49.5968 35.1869 50.7791 34.765 51.8099L31.1222 60.7077C30.5014 62.2237 28.5904 62.7415 27.2732 61.7504L6.73141 46.2964C5.81792 45.6092 5.49316 44.3974 5.94278 43.3539L5.94262 43.3542Z" fill="white"/>
<path d="M20.1797 28.8608L31.6526 28.5703L52.5395 43.0943H39.8898L20.1797 28.8608Z" fill="white"/>
</g>
<defs>
<clipPath id="clip0_154_22108">
<rect width="77" height="74" fill="white"/>
</clipPath>
</defs>
</svg>
