<svg width="265" height="149" viewBox="0 0 265 149" fill="none" xmlns="http://www.w3.org/2000/svg">
<g clip-path="url(#clip0_154_22004)">
<g opacity="0.5">
<path d="M261.529 147.211H-279.057C-279.455 147.211 -279.779 146.887 -279.779 146.489C-279.779 146.091 -279.455 145.767 -279.057 145.767H261.529C261.927 145.767 262.251 146.091 262.251 146.489C262.251 146.887 261.927 147.211 261.529 147.211Z" fill="#C6DB5A"/>
</g>
<g opacity="0.5">
<path d="M261.529 81.9148H-279.057C-279.455 81.9148 -279.779 81.5906 -279.779 81.1927C-279.779 80.7949 -279.455 80.4707 -279.057 80.4707H261.529C261.927 80.4707 262.251 80.7949 262.251 81.1927C262.251 81.5906 261.927 81.9148 261.529 81.9148Z" fill="#C6DB5A"/>
</g>
<g opacity="0.5">
<path d="M261.529 16.6189H-279.057C-279.455 16.6189 -279.779 16.2947 -279.779 15.8968C-279.779 15.499 -279.455 15.1748 -279.057 15.1748H261.529C261.927 15.1748 262.251 15.499 262.251 15.8968C262.251 16.2947 261.927 16.6189 261.529 16.6189Z" fill="#C6DB5A"/>
</g>
<path d="M28.3602 149C30.2774 149 31.8317 147.447 31.8317 145.531C31.8317 143.616 30.2774 142.062 28.3602 142.062C26.4429 142.062 24.8887 143.616 24.8887 145.531C24.8887 147.447 26.4429 149 28.3602 149Z" fill="#C6DB5A"/>
<path d="M187.277 145.531C187.277 147.447 185.723 149 183.805 149C181.888 149 180.334 147.447 180.334 145.531C180.334 143.616 181.888 142.062 183.805 142.062C185.723 142.062 187.277 143.616 187.277 145.531Z" fill="#C6DB5A"/>
<path d="M106.085 149C108.002 149 109.556 147.447 109.556 145.531C109.556 143.616 108.002 142.062 106.085 142.062C104.168 142.062 102.613 143.616 102.613 145.531C102.613 147.447 104.168 149 106.085 149Z" fill="#C6DB5A"/>
<path d="M265 145.531C265 147.447 263.445 149 261.528 149C259.611 149 258.057 147.447 258.057 145.531C258.057 143.616 259.611 142.062 261.528 142.062C263.445 142.062 265 143.616 265 145.531Z" fill="#C6DB5A"/>
<path d="M68.4231 146.486C68.4231 147.745 67.4026 148.764 66.1432 148.764C64.8838 148.764 63.8633 147.745 63.8633 146.486C63.8633 145.228 64.8838 144.208 66.1432 144.208C67.4026 144.208 68.4231 145.228 68.4231 146.486Z" fill="#C6DB5A"/>
<path d="M146.435 146.486C146.435 147.745 145.414 148.764 144.155 148.764C142.895 148.764 141.875 147.745 141.875 146.486C141.875 145.228 142.895 144.208 144.155 144.208C145.414 144.208 146.435 145.228 146.435 146.486Z" fill="#C6DB5A"/>
<path d="M224.45 146.486C224.45 147.745 223.43 148.764 222.171 148.764C220.911 148.764 219.891 147.745 219.891 146.486C219.891 145.228 220.911 144.208 222.171 144.208C223.43 144.208 224.45 145.228 224.45 146.486Z" fill="#C6DB5A"/>
<path d="M-211.439 119.614C-218.75 119.614 -226.106 118.029 -232.99 114.805L-281.42 92.1326C-282.075 91.8261 -282.355 91.048 -282.051 90.3967C-281.742 89.7395 -280.966 89.4625 -280.311 89.769L-231.881 112.444C-215.692 120.024 -196.765 118.049 -182.487 107.295L-150.574 83.25C-133.491 70.377 -110.002 69.6255 -92.125 81.3815C-80.8493 88.7994 -67.4146 91.1276 -54.3013 87.9418C-41.1852 84.7589 -30.3224 76.5276 -23.7097 64.7716L-5.22266 31.8995C3.2157 16.8958 18.5145 7.2676 35.7009 6.14475C52.8813 5.02779 69.3127 12.5783 79.6328 26.359L90.9822 41.513C100.022 53.5844 114.424 60.7871 129.514 60.7871H163.226C173.36 60.7871 183.161 63.7784 191.57 69.4339L262.256 116.997C262.855 117.401 263.014 118.212 262.61 118.81C262.209 119.405 261.398 119.567 260.796 119.163L190.11 71.6001C182.135 66.2334 172.841 63.3983 163.229 63.3983H129.517C113.61 63.3983 98.4237 55.8006 88.894 43.075L77.5446 27.9209C67.7524 14.8505 52.1705 7.69198 35.8749 8.74705C19.5733 9.81095 5.06207 18.944 -2.94272 33.1756L-21.4298 66.0477C-28.3993 78.4433 -39.855 87.1196 -53.682 90.4763C-67.506 93.836 -81.6722 91.3752 -93.5614 83.5594C-110.515 72.4076 -132.795 73.1208 -148.996 85.3307L-180.909 109.376C-189.89 116.143 -200.617 119.611 -211.436 119.611L-211.439 119.614Z" fill="#C6DB5A"/>
<path d="M36.8758 8.50831C36.8758 13.206 33.0622 17.0166 28.3607 17.0166C23.6593 17.0166 19.8457 13.2089 19.8457 8.50831C19.8457 3.80767 23.6593 0 28.3607 0C33.0622 0 36.8758 3.81061 36.8758 8.50831Z" fill="#C6DB5A"/>
<path d="M114.598 54.7339C114.598 59.4316 110.788 63.2422 106.083 63.2422C101.379 63.2422 97.5684 59.4345 97.5684 54.7339C97.5684 50.0333 101.379 46.2256 106.083 46.2256C110.788 46.2256 114.598 50.0333 114.598 54.7339Z" fill="#C6DB5A"/>
<path d="M192.319 67.0405C192.319 71.7382 188.505 75.5488 183.804 75.5488C179.103 75.5488 175.289 71.7412 175.289 67.0405C175.289 62.3399 179.1 58.5322 183.804 58.5322C188.508 58.5322 192.319 62.3399 192.319 67.0405Z" fill="#C6DB5A"/>
</g>
<defs>
<clipPath id="clip0_154_22004">
<rect width="551" height="149" fill="white" transform="translate(-286)"/>
</clipPath>
</defs>
</svg>
