<svg width="256" height="16" viewBox="0 0 256 16" fill="none" xmlns="http://www.w3.org/2000/svg">
<path d="M0 15.0819V0.254883H3.453V15.0819H0Z" fill="#283F67"/>
<path d="M6.94727 15.0819V0.254883H9.78527L18.5333 10.9309H17.1563V0.254883H20.5453V15.0819H17.7073L8.95927 4.40688H10.3363V15.0819H6.94727Z" fill="#283F67"/>
<path d="M28.9545 15.336C27.7685 15.336 26.6275 15.177 25.5335 14.86C24.4385 14.542 23.5595 14.129 22.8965 13.621L24.0615 11.037C24.6825 11.489 25.4315 11.86 26.3065 12.149C27.1815 12.438 28.0645 12.583 28.9545 12.583C29.6325 12.583 30.1795 12.512 30.5955 12.371C31.0115 12.23 31.3195 12.043 31.5175 11.81C31.7155 11.577 31.8135 11.305 31.8135 10.994C31.8135 10.599 31.6585 10.285 31.3475 10.052C31.0365 9.81898 30.6235 9.62798 30.1085 9.47998C29.5925 9.33198 29.0315 9.19098 28.4245 9.05598C27.8175 8.92198 27.2065 8.75898 26.5925 8.56898C25.9785 8.37798 25.4135 8.12398 24.8975 7.80598C24.3815 7.48798 23.9725 7.07198 23.6685 6.55598C23.3645 6.04098 23.2135 5.39398 23.2135 4.61798C23.2135 3.77098 23.4395 2.99798 23.8915 2.29898C24.3435 1.59998 25.0315 1.04198 25.9565 0.625977C26.8815 0.209977 28.0435 0.000976562 29.4415 0.000976562C30.3735 0.000976562 31.2945 0.113976 32.2055 0.339976C33.1165 0.565976 33.9105 0.890976 34.5885 1.31398L33.5085 3.89798C32.8445 3.51698 32.1595 3.23098 31.4545 3.03998C30.7485 2.84998 30.0705 2.75398 29.4205 2.75398C28.7425 2.75398 28.1995 2.82798 27.7895 2.97598C27.3795 3.12398 27.0795 3.32498 26.8895 3.57898C26.6995 3.83298 26.6035 4.11598 26.6035 4.42598C26.6035 4.82098 26.7585 5.13898 27.0695 5.37898C27.3795 5.61898 27.7895 5.80598 28.2985 5.93998C28.8065 6.07398 29.3715 6.20898 29.9935 6.34298C30.6145 6.47698 31.2285 6.64298 31.8365 6.84098C32.4435 7.03898 33.0015 7.28898 33.5095 7.59298C34.0175 7.89698 34.4315 8.30598 34.7485 8.82198C35.0665 9.33698 35.2245 9.97598 35.2245 10.739C35.2245 11.572 34.9945 12.335 34.5365 13.027C34.0775 13.719 33.3825 14.277 32.4495 14.7C31.5175 15.123 30.3525 15.336 28.9545 15.336Z" fill="#283F67"/>
<path d="M37.5762 15.0819V0.254883H41.0292V15.0819H37.5762Z" fill="#283F67"/>
<path d="M51.6838 15.336C50.5118 15.336 49.4318 15.149 48.4428 14.775C47.4538 14.401 46.5998 13.868 45.8798 13.176C45.1598 12.484 44.5978 11.672 44.1958 10.74C43.7928 9.80798 43.5918 8.78498 43.5918 7.66898C43.5918 6.55298 43.7928 5.52998 44.1958 4.59698C44.5978 3.66498 45.1668 2.85298 45.9008 2.16098C46.6348 1.46898 47.4968 0.935976 48.4848 0.561976C49.4728 0.187976 50.5608 0.000976562 51.7468 0.000976562C53.0598 0.000976562 54.2428 0.219976 55.2948 0.657976C56.3468 1.09598 57.2328 1.73198 57.9528 2.56398L55.7708 4.59698C55.2198 4.01798 54.6268 3.59098 53.9918 3.31598C53.3558 3.03998 52.6578 2.90298 51.8948 2.90298C51.1888 2.90298 50.5388 3.01898 49.9458 3.25198C49.3528 3.48498 48.8408 3.81298 48.4098 4.23698C47.9788 4.66098 47.6468 5.16198 47.4138 5.74098C47.1808 6.31998 47.0648 6.96298 47.0648 7.66898C47.0648 8.34698 47.1808 8.97898 47.4138 9.56498C47.6468 10.151 47.9788 10.656 48.4098 11.079C48.8408 11.503 49.3488 11.835 49.9348 12.075C50.5208 12.315 51.1668 12.435 51.8728 12.435C52.5508 12.435 53.2108 12.322 53.8528 12.096C54.4948 11.87 55.1198 11.496 55.7278 10.973L57.6768 13.451C56.8578 14.073 55.9188 14.542 54.8598 14.86C53.8008 15.178 52.7428 15.336 51.6838 15.336ZM57.6788 13.451L54.5438 12.985V7.43598H57.6788V13.451Z" fill="#283F67"/>
<path d="M60.8555 15.0819V0.254883H64.3085V15.0819H60.8555ZM64.0325 9.00288V6.10088H71.2765V9.00288H64.0325ZM71.0225 15.0819V0.254883H74.4545V15.0819H71.0225Z" fill="#283F67"/>
<path d="M81.0409 15.0819V3.05088H76.2969V0.254883H89.2179V3.05088H84.4729V15.0819H81.0409Z" fill="#283F67"/>
<path d="M97.0537 15.0819V0.254883H108.259V3.00888H100.464V12.3289H108.534V15.0829H97.0527L97.0537 15.0819ZM100.211 8.89688V6.20688H107.349V8.89688H100.211Z" fill="#283F67"/>
<path d="M111.268 15.0819V0.254883H118.004C119.614 0.254883 121.033 0.561883 122.261 1.17688C123.49 1.79088 124.45 2.65288 125.142 3.76088C125.834 4.86888 126.18 6.17188 126.18 7.66888C126.18 9.16588 125.834 10.4689 125.142 11.5769C124.45 12.6849 123.49 13.5469 122.261 14.1609C121.032 14.7749 119.613 15.0819 118.004 15.0819H111.268ZM114.721 12.2859H117.835C118.823 12.2859 119.681 12.0989 120.409 11.7249C121.136 11.3509 121.701 10.8139 122.103 10.1149C122.505 9.41588 122.707 8.59988 122.707 7.66788C122.707 6.72188 122.506 5.90288 122.103 5.21088C121.7 4.51888 121.136 3.98588 120.409 3.61088C119.681 3.23688 118.824 3.04988 117.835 3.04988H114.721V12.2849V12.2859Z" fill="#283F67"/>
<path d="M135.922 15.336C134.75 15.336 133.67 15.149 132.681 14.775C131.692 14.401 130.838 13.868 130.118 13.176C129.398 12.484 128.836 11.672 128.434 10.74C128.031 9.80798 127.83 8.78498 127.83 7.66898C127.83 6.55298 128.031 5.52998 128.434 4.59698C128.836 3.66498 129.405 2.85298 130.139 2.16098C130.873 1.46898 131.735 0.935976 132.723 0.561976C133.711 0.187976 134.799 0.000976562 135.985 0.000976562C137.298 0.000976562 138.481 0.219976 139.533 0.657976C140.585 1.09598 141.471 1.73198 142.191 2.56398L140.009 4.59698C139.458 4.01798 138.865 3.59098 138.23 3.31598C137.594 3.03998 136.896 2.90298 136.133 2.90298C135.427 2.90298 134.777 3.01898 134.184 3.25198C133.591 3.48498 133.079 3.81298 132.648 4.23698C132.217 4.66098 131.885 5.16198 131.652 5.74098C131.419 6.31998 131.303 6.96298 131.303 7.66898C131.303 8.34698 131.419 8.97898 131.652 9.56498C131.885 10.151 132.217 10.656 132.648 11.079C133.079 11.503 133.587 11.835 134.173 12.075C134.759 12.315 135.405 12.435 136.111 12.435C136.789 12.435 137.449 12.322 138.091 12.096C138.733 11.87 139.358 11.496 139.966 10.973L141.915 13.451C141.096 14.073 140.157 14.542 139.098 14.86C138.039 15.178 136.98 15.336 135.921 15.336H135.922ZM141.915 13.451L138.781 12.985V7.43598H141.916L141.915 13.451Z" fill="#283F67"/>
<path d="M145.095 15.0819V0.254883H156.3V3.00888H148.505V12.3289H156.575V15.0829H145.094L145.095 15.0819ZM148.251 8.89688V6.20688H155.389V8.89688H148.251Z" fill="#283F67"/>
<path d="M172.461 15.336C171.289 15.336 170.209 15.149 169.22 14.775C168.231 14.401 167.377 13.868 166.657 13.176C165.937 12.484 165.375 11.672 164.973 10.74C164.57 9.80798 164.369 8.78498 164.369 7.66898C164.369 6.55298 164.57 5.52998 164.973 4.59698C165.375 3.66498 165.944 2.85298 166.678 2.16098C167.412 1.46898 168.274 0.935976 169.262 0.561976C170.25 0.187976 171.338 0.000976562 172.524 0.000976562C173.837 0.000976562 175.02 0.219976 176.072 0.657976C177.124 1.09598 178.01 1.73198 178.73 2.56398L176.548 4.59698C175.997 4.01798 175.404 3.59098 174.769 3.31598C174.133 3.03998 173.435 2.90298 172.672 2.90298C171.966 2.90298 171.316 3.01898 170.723 3.25198C170.13 3.48498 169.618 3.81298 169.187 4.23698C168.756 4.66098 168.424 5.16198 168.191 5.74098C167.958 6.31998 167.842 6.96298 167.842 7.66898C167.842 8.34698 167.958 8.97898 168.191 9.56498C168.424 10.151 168.756 10.656 169.187 11.079C169.618 11.503 170.126 11.835 170.712 12.075C171.298 12.315 171.944 12.435 172.65 12.435C173.328 12.435 173.988 12.322 174.63 12.096C175.272 11.87 175.897 11.496 176.505 10.973L178.454 13.451C177.635 14.073 176.696 14.542 175.637 14.86C174.578 15.178 173.52 15.336 172.461 15.336ZM178.454 13.451L175.32 12.985V7.43598H178.455L178.454 13.451Z" fill="#283F67"/>
<path d="M181.633 15.0819V0.254883H185.086V12.2859H192.478V15.0819H181.633Z" fill="#283F67"/>
<path d="M201.374 15.336C200.202 15.336 199.121 15.146 198.133 14.764C197.145 14.383 196.283 13.846 195.549 13.154C194.815 12.462 194.246 11.65 193.844 10.718C193.441 9.786 193.24 8.769 193.24 7.668C193.24 6.553 193.441 5.532 193.844 4.607C194.246 3.682 194.815 2.874 195.549 2.182C196.283 1.49 197.141 0.953 198.123 0.572C199.104 0.191 200.181 0 201.353 0C202.525 0 203.601 0.187999 204.583 0.560999C205.564 0.934999 206.422 1.469 207.157 2.16C207.891 2.852 208.46 3.664 208.862 4.596C209.264 5.528 209.466 6.552 209.466 7.668C209.466 8.77 209.265 9.79 208.862 10.729C208.46 11.668 207.891 12.484 207.157 13.176C206.423 13.868 205.565 14.401 204.583 14.775C203.601 15.149 202.532 15.336 201.374 15.336ZM201.353 12.434C202.017 12.434 202.627 12.318 203.185 12.085C203.743 11.852 204.233 11.52 204.657 11.089C205.081 10.658 205.409 10.157 205.642 9.585C205.875 9.013 205.991 8.374 205.991 7.668C205.991 6.962 205.875 6.323 205.642 5.751C205.409 5.179 205.081 4.678 204.657 4.247C204.233 3.816 203.743 3.484 203.185 3.251C202.627 3.018 202.016 2.902 201.353 2.902C200.69 2.902 200.075 3.018 199.51 3.251C198.945 3.484 198.454 3.816 198.038 4.247C197.621 4.678 197.296 5.179 197.064 5.751C196.831 6.323 196.715 6.962 196.715 7.668C196.715 8.374 196.831 9.013 197.064 9.585C197.297 10.157 197.622 10.658 198.038 11.089C198.454 11.52 198.945 11.852 199.51 12.085C200.075 12.318 200.689 12.434 201.353 12.434Z" fill="#283F67"/>
<path d="M212.049 15.0819V0.254883H219.293C221.157 0.254883 222.558 0.607883 223.498 1.31388C224.437 2.01988 224.907 2.95188 224.907 4.10988C224.907 4.88688 224.716 5.56088 224.335 6.13288C223.954 6.70488 223.427 7.14588 222.757 7.45688C222.086 7.76688 221.327 7.92288 220.48 7.92288L220.882 7.03288C221.814 7.03288 222.637 7.18788 223.35 7.49888C224.063 7.80988 224.624 8.26188 225.034 8.85488C225.443 9.44788 225.648 10.1759 225.648 11.0369C225.648 12.3079 225.147 13.2999 224.144 14.0129C223.141 14.7269 221.666 15.0829 219.717 15.0829L212.049 15.0819ZM215.46 12.4979H219.485C220.36 12.4979 221.031 12.3499 221.497 12.0529C221.963 11.7559 222.196 11.2979 222.196 10.6759C222.196 10.0399 221.963 9.57388 221.497 9.27788C221.031 8.98088 220.36 8.83288 219.485 8.83288H215.206V6.33388H218.87C219.703 6.33388 220.342 6.18888 220.787 5.89988C221.232 5.61088 221.454 5.16888 221.454 4.57588C221.454 3.98288 221.232 3.54588 220.787 3.26288C220.342 2.98088 219.703 2.83988 218.87 2.83988H215.46V12.4979Z" fill="#283F67"/>
<path d="M226.306 15.0819L232.893 0.254883H236.282L242.933 15.0819H239.332L233.888 1.99188H235.265L229.821 15.0819H226.305H226.306ZM229.631 11.9049L230.5 9.29888H238.168L239.058 11.9049H229.632H229.631Z" fill="#283F67"/>
<path d="M244.479 15.0819V0.254883H247.932V12.2859H255.324V15.0819H244.479Z" fill="#283F67"/>
</svg>
