<svg width="120" height="8" viewBox="0 0 120 8" fill="none" xmlns="http://www.w3.org/2000/svg">
<path d="M0 7.0887V0.120117H1.62289V7.0887H0Z" fill="white"/>
<path d="M3.26562 7.0887V0.120117H4.59947L8.71096 5.13776H8.06378V0.120117H9.65659V7.0887H8.32275L4.21125 2.07153H4.85843V7.0887H3.26562Z" fill="white"/>
<path d="M13.6089 7.20832C13.0515 7.20832 12.5153 7.13359 12.0011 6.9846C11.4864 6.83514 11.0733 6.64104 10.7617 6.40228L11.3093 5.18782C11.6011 5.40026 11.9531 5.57462 12.3644 5.71045C12.7756 5.84628 13.1906 5.91443 13.6089 5.91443C13.9276 5.91443 14.1847 5.88106 14.3802 5.81479C14.5757 5.74852 14.7205 5.66063 14.8135 5.55112C14.9066 5.44161 14.9526 5.31378 14.9526 5.16761C14.9526 4.98196 14.8798 4.83438 14.7336 4.72488C14.5875 4.61537 14.3934 4.5256 14.1513 4.45604C13.9088 4.38648 13.6451 4.32021 13.3598 4.25676C13.0746 4.19378 12.7874 4.11717 12.4988 4.02788C12.2102 3.93811 11.9447 3.81873 11.7022 3.66927C11.4597 3.51981 11.2674 3.3243 11.1246 3.08178C10.9817 2.83973 10.9107 2.53565 10.9107 2.17093C10.9107 1.77285 11.0169 1.40955 11.2294 1.08102C11.4418 0.752495 11.7652 0.490239 12.1999 0.294722C12.6346 0.0992051 13.1808 0.000976562 13.8378 0.000976562C14.2759 0.000976562 14.7087 0.0540856 15.1369 0.160304C15.565 0.266522 15.9382 0.41927 16.2569 0.618077L15.7493 1.83254C15.4372 1.65347 15.1153 1.51905 14.7839 1.42928C14.4521 1.33999 14.1334 1.29487 13.8279 1.29487C13.5093 1.29487 13.2541 1.32965 13.0614 1.39921C12.8687 1.46876 12.7277 1.56323 12.6384 1.68261C12.5491 1.80199 12.504 1.935 12.504 2.0807C12.504 2.26634 12.5768 2.4158 12.723 2.5286C12.8687 2.6414 13.0614 2.72929 13.3006 2.79226C13.5394 2.85524 13.8049 2.91869 14.0973 2.98167C14.3891 3.04465 14.6777 3.12267 14.9635 3.21573C15.2487 3.30879 15.511 3.42629 15.7498 3.56916C15.9885 3.71204 16.1831 3.90427 16.3321 4.14678C16.4815 4.38883 16.5558 4.68916 16.5558 5.04776C16.5558 5.43926 16.4477 5.79787 16.2324 6.1231C16.0167 6.44834 15.6901 6.7106 15.2516 6.9094C14.8135 7.10821 14.266 7.20832 13.6089 7.20832Z" fill="white"/>
<path d="M17.6602 7.0887V0.120117H19.283V7.0887H17.6602Z" fill="white"/>
<path d="M24.2915 7.20832C23.7406 7.20832 23.233 7.12043 22.7682 6.94465C22.3034 6.76887 21.902 6.51837 21.5636 6.19313C21.2252 5.8679 20.9611 5.48626 20.7722 5.04823C20.5828 4.6102 20.4883 4.12939 20.4883 3.60488C20.4883 3.08037 20.5828 2.59957 20.7722 2.16106C20.9611 1.72303 21.2285 1.3414 21.5735 1.01616C21.9185 0.690926 22.3236 0.44042 22.788 0.264643C23.2523 0.0888652 23.7637 0.000976562 24.3211 0.000976562C24.9382 0.000976562 25.4942 0.103905 25.9886 0.309762C26.483 0.515619 26.8995 0.814534 27.2378 1.20557L26.2123 2.16106C25.9534 1.88894 25.6747 1.68825 25.3762 1.559C25.0773 1.42928 24.7492 1.3649 24.3906 1.3649C24.0588 1.3649 23.7533 1.41941 23.4746 1.52892C23.1959 1.63843 22.9553 1.79259 22.7527 1.99187C22.5501 2.19114 22.3941 2.42661 22.2846 2.69874C22.1751 2.97086 22.1206 3.27307 22.1206 3.60488C22.1206 3.92354 22.1751 4.22057 22.2846 4.49599C22.3941 4.7714 22.5501 5.00875 22.7527 5.20756C22.9553 5.40684 23.194 5.56287 23.4695 5.67567C23.7449 5.78847 24.0485 5.84487 24.3803 5.84487C24.6989 5.84487 25.0091 5.79176 25.3109 5.68554C25.6126 5.57932 25.9064 5.40354 26.1921 5.15774L27.1081 6.32238C26.7232 6.61472 26.2819 6.83514 25.7842 6.9846C25.2864 7.13406 24.7892 7.20832 24.2915 7.20832ZM27.1091 6.32238L25.6356 6.10336V3.49537H27.1091V6.32238Z" fill="white"/>
<path d="M28.6016 7.0887V0.120117H30.2244V7.0887H28.6016ZM30.0947 4.23162V2.8677H33.4994V4.23162H30.0947ZM33.38 7.0887V0.120117H34.993V7.0887H33.38Z" fill="white"/>
<path d="M38.089 7.0887V1.43422H35.8594V0.120117H41.9322V1.43422H39.702V7.0887H38.089Z" fill="white"/>
<path d="M45.6157 7.0887V0.120117H50.882V1.41448H47.2184V5.79481H51.0112V7.08917H45.6152L45.6157 7.0887ZM47.0995 4.1818V2.91752H50.4543V4.1818H47.0995Z" fill="white"/>
<path d="M52.2949 7.0887V0.120117H55.4608C56.2175 0.120117 56.8844 0.264405 57.4616 0.553451C58.0392 0.842026 58.4904 1.24716 58.8156 1.76791C59.1408 2.28866 59.3035 2.90107 59.3035 3.60464C59.3035 4.30822 59.1408 4.92062 58.8156 5.44138C58.4904 5.96213 58.0392 6.36726 57.4616 6.65584C56.8839 6.94441 56.217 7.0887 55.4608 7.0887H52.2949ZM53.9178 5.7746H55.3814C55.8457 5.7746 56.249 5.68671 56.5911 5.51094C56.9328 5.33516 57.1984 5.08277 57.3873 4.75425C57.5762 4.42572 57.6712 4.04221 57.6712 3.60417C57.6712 3.15956 57.5767 2.77464 57.3873 2.4494C57.1979 2.12417 56.9328 1.87366 56.5911 1.69741C56.249 1.52164 55.8462 1.43375 55.3814 1.43375H53.9178V5.77413V5.7746Z" fill="white"/>
<path d="M63.8833 7.20832C63.3324 7.20832 62.8248 7.12043 62.36 6.94465C61.8952 6.76887 61.4938 6.51837 61.1554 6.19313C60.817 5.8679 60.5529 5.48626 60.364 5.04823C60.1745 4.6102 60.0801 4.12939 60.0801 3.60488C60.0801 3.08037 60.1745 2.59957 60.364 2.16106C60.5529 1.72303 60.8203 1.3414 61.1653 1.01616C61.5103 0.690926 61.9154 0.44042 62.3798 0.264643C62.8441 0.0888652 63.3555 0.000976562 63.9129 0.000976562C64.53 0.000976562 65.086 0.103905 65.5804 0.309762C66.0748 0.515619 66.4913 0.814534 66.8297 1.20557L65.8041 2.16106C65.5452 1.88894 65.2665 1.68825 64.968 1.559C64.6691 1.42928 64.341 1.3649 63.9824 1.3649C63.6506 1.3649 63.3451 1.41941 63.0664 1.52892C62.7877 1.63843 62.5471 1.79259 62.3445 1.99187C62.1419 2.19114 61.9859 2.42661 61.8764 2.69874C61.7669 2.97086 61.7124 3.27307 61.7124 3.60488C61.7124 3.92354 61.7669 4.22057 61.8764 4.49599C61.9859 4.7714 62.1419 5.00875 62.3445 5.20756C62.5471 5.40684 62.7858 5.56287 63.0612 5.67567C63.3367 5.78847 63.6403 5.84487 63.9721 5.84487C64.2907 5.84487 64.6009 5.79176 64.9027 5.68554C65.2044 5.57932 65.4982 5.40354 65.7839 5.15774L66.6999 6.32238C66.315 6.61472 65.8737 6.83514 65.376 6.9846C64.8782 7.13406 64.3805 7.20832 63.8828 7.20832H63.8833ZM66.6999 6.32238L65.227 6.10336V3.49537H66.7004L66.6999 6.32238Z" fill="white"/>
<path d="M68.1938 7.0887V0.120117H73.4601V1.41448H69.7965V5.79481H73.5893V7.08917H68.1934L68.1938 7.0887ZM69.6771 4.1818V2.91752H73.0319V4.1818H69.6771Z" fill="white"/>
<path d="M81.0551 7.20832C80.5043 7.20832 79.9967 7.12043 79.5319 6.94465C79.0671 6.76887 78.6657 6.51837 78.3273 6.19313C77.9889 5.8679 77.7248 5.48626 77.5358 5.04823C77.3464 4.6102 77.252 4.12939 77.252 3.60488C77.252 3.08037 77.3464 2.59957 77.5358 2.16106C77.7248 1.72303 77.9922 1.3414 78.3372 1.01616C78.6821 0.690926 79.0873 0.44042 79.5516 0.264643C80.016 0.0888652 80.5273 0.000976562 81.0847 0.000976562C81.7018 0.000976562 82.2578 0.103905 82.7523 0.309762C83.2467 0.515619 83.6631 0.814534 84.0015 1.20557L82.976 2.16106C82.717 1.88894 82.4383 1.68825 82.1399 1.559C81.841 1.42928 81.5129 1.3649 81.1543 1.3649C80.8225 1.3649 80.517 1.41941 80.2383 1.52892C79.9596 1.63843 79.7189 1.79259 79.5164 1.99187C79.3138 2.19114 79.1578 2.42661 79.0483 2.69874C78.9388 2.97086 78.8842 3.27307 78.8842 3.60488C78.8842 3.92354 78.9388 4.22057 79.0483 4.49599C79.1578 4.7714 79.3138 5.00875 79.5164 5.20756C79.7189 5.40684 79.9577 5.56287 80.2331 5.67567C80.5085 5.78847 80.8121 5.84487 81.144 5.84487C81.4626 5.84487 81.7728 5.79176 82.0746 5.68554C82.3763 5.57932 82.67 5.40354 82.9558 5.15774L83.8718 6.32238C83.4869 6.61472 83.0456 6.83514 82.5478 6.9846C82.0501 7.13406 81.5529 7.20832 81.0551 7.20832ZM83.8718 6.32238L82.3988 6.10336V3.49537H83.8723L83.8718 6.32238Z" fill="white"/>
<path d="M85.3672 7.0887V0.120117H86.9901V5.7746H90.4643V7.0887H85.3672Z" fill="white"/>
<path d="M94.6432 7.20781C94.0924 7.20781 93.5843 7.11851 93.12 6.93897C92.6556 6.75991 92.2505 6.50752 91.9055 6.18229C91.5606 5.85705 91.2931 5.47542 91.1042 5.03738C90.9148 4.59935 90.8203 4.12137 90.8203 3.60391C90.8203 3.07986 90.9148 2.6 91.1042 2.16526C91.2931 1.73051 91.5606 1.35076 91.9055 1.02552C92.2505 0.700289 92.6538 0.447903 93.1153 0.268836C93.5763 0.0897686 94.0825 0 94.6334 0C95.1842 0 95.6899 0.0883584 96.1515 0.263666C96.6125 0.439443 97.0158 0.690419 97.3612 1.01518C97.7062 1.34042 97.9736 1.72205 98.1625 2.16009C98.3515 2.59812 98.4464 3.07939 98.4464 3.60391C98.4464 4.12184 98.352 4.60123 98.1625 5.04255C97.9736 5.48388 97.7062 5.86739 97.3612 6.19263C97.0162 6.51786 96.613 6.76837 96.1515 6.94414C95.6899 7.11992 95.1875 7.20781 94.6432 7.20781ZM94.6334 5.84389C94.9454 5.84389 95.2321 5.78937 95.4944 5.67986C95.7567 5.57036 95.987 5.41432 96.1862 5.21175C96.3855 5.00918 96.5397 4.77372 96.6492 4.50488C96.7587 4.23605 96.8132 3.93572 96.8132 3.60391C96.8132 3.27209 96.7587 2.97177 96.6492 2.70293C96.5397 2.43409 96.3855 2.19863 96.1862 1.99606C95.987 1.79349 95.7567 1.63746 95.4944 1.52795C95.2321 1.41844 94.945 1.36392 94.6334 1.36392C94.3218 1.36392 94.0327 1.41844 93.7672 1.52795C93.5016 1.63746 93.2709 1.79349 93.0753 1.99606C92.8794 2.19863 92.7266 2.43409 92.6176 2.70293C92.5081 2.97177 92.4535 3.27209 92.4535 3.60391C92.4535 3.93572 92.5081 4.23605 92.6176 4.50488C92.7271 4.77372 92.8798 5.00918 93.0753 5.21175C93.2709 5.41432 93.5016 5.57036 93.7672 5.67986C94.0327 5.78937 94.3213 5.84389 94.6334 5.84389Z" fill="white"/>
<path d="M99.6621 7.0887V0.120117H103.067C103.943 0.120117 104.601 0.286025 105.043 0.61784C105.484 0.949655 105.705 1.38769 105.705 1.93194C105.705 2.29712 105.616 2.6139 105.436 2.88274C105.257 3.15157 105.01 3.35884 104.695 3.50501C104.379 3.6507 104.023 3.72402 103.625 3.72402L103.814 3.30573C104.252 3.30573 104.638 3.37858 104.973 3.52475C105.309 3.67091 105.572 3.88335 105.765 4.16206C105.957 4.44076 106.054 4.78292 106.054 5.18758C106.054 5.78494 105.818 6.25118 105.347 6.58628C104.875 6.92185 104.182 7.08917 103.266 7.08917L99.6621 7.0887ZM101.265 5.87424H103.157C103.568 5.87424 103.884 5.80468 104.103 5.66509C104.322 5.52551 104.431 5.31025 104.431 5.01791C104.431 4.719 104.322 4.49998 104.103 4.36086C103.884 4.22128 103.568 4.15172 103.157 4.15172H101.146V2.9772H102.868C103.259 2.9772 103.56 2.90906 103.769 2.77323C103.978 2.6374 104.082 2.42966 104.082 2.15096C104.082 1.87225 103.978 1.66686 103.769 1.53386C103.56 1.40132 103.259 1.33505 102.868 1.33505H101.265V5.87424Z" fill="white"/>
<path d="M106.362 7.0887L109.458 0.120117H111.05L114.176 7.0887H112.484L109.925 0.936495H110.572L108.014 7.0887H106.361H106.362ZM107.925 5.59553L108.333 4.37073H111.937L112.355 5.59553H107.925H107.925Z" fill="white"/>
<path d="M114.902 7.0887V0.120117H116.525V5.7746H119.999V7.0887H114.902Z" fill="white"/>
</svg>
