<svg width="29" height="29" viewBox="0 0 29 29" fill="none" xmlns="http://www.w3.org/2000/svg">
<path d="M21.7888 20.079L26.9637 25.2539L25.2549 26.9627L20.0799 21.7878C18.2192 23.2765 15.8595 24.167 13.293 24.167C7.28997 24.167 2.41797 19.295 2.41797 13.292C2.41797 7.28899 7.28997 2.41699 13.293 2.41699C19.296 2.41699 24.168 7.28899 24.168 13.292C24.168 15.8585 23.2774 18.2182 21.7888 20.079ZM19.3645 19.1824C20.842 17.6596 21.7513 15.5825 21.7513 13.292C21.7513 8.61876 17.9662 4.83366 13.293 4.83366C8.61974 4.83366 4.83464 8.61876 4.83464 13.292C4.83464 17.9652 8.61974 21.7503 13.293 21.7503C15.5835 21.7503 17.6606 20.8411 19.1834 19.3635L19.3645 19.1824Z" fill="#365693"/>
</svg>
